<svg width="85" height="143" viewBox="0 0 85 143" fill="none" xmlns="http://www.w3.org/2000/svg">
<path d="M16.832 48.0075C16.832 48.0075 17.5728 31.3746 22.1523 28.3129L26.7002 38.8483L27.6738 40.6424C27.6738 40.6424 21.8995 55.2251 17.7832 54.8061" fill="url(#paint0_linear_18934_6823)"/>
<mask id="mask0_18934_6823" style="mask-type:luminance" maskUnits="userSpaceOnUse" x="16" y="28" width="12" height="27">
<path fill-rule="evenodd" clip-rule="evenodd" d="M16.8457 48.0098C16.8457 48.0098 17.5861 31.3993 22.1635 28.3417L26.7092 38.863L27.6824 40.6546C27.6824 40.6546 21.9107 55.2177 17.7965 54.7993" fill="white"/>
</mask>
<g mask="url(#mask0_18934_6823)">
<path d="M24.0495 39.3837C21.726 37.4823 22.4466 53.6464 20.3199 51.3833C18.1933 49.1201 15.5059 57.3766 15.5059 57.3766L17.5626 59.1997L27.2534 54.808L25.4145 43.9274" fill="url(#paint1_linear_18934_6823)"/>
</g>
<path d="M18.7408 27.0297C18.7408 27.0297 19.3434 23.1408 19.8199 21.0196C20.2964 18.8984 13.4916 18.0735 13.4916 18.0735L13.2183 28.9153L18.7408 27.0297Z" fill="url(#paint2_linear_18934_6823)"/>
<mask id="mask1_18934_6823" style="mask-type:luminance" maskUnits="userSpaceOnUse" x="13" y="17" width="8" height="12">
<path fill-rule="evenodd" clip-rule="evenodd" d="M19.0141 26.4958C19.0141 26.4958 19.6438 22.5946 20.1417 20.4668C20.6395 18.3389 13.5291 17.5114 13.5291 17.5114L13.2434 28.3872L19.0141 26.4958Z" fill="white"/>
</mask>
<g mask="url(#mask1_18934_6823)">
<path opacity="0.34" d="M11.3354 27.6851C15.8424 25.92 19.0545 25.2604 19.3368 25.6057C19.6191 25.951 19.066 28.117 19.066 28.117L14.2167 29.1406" fill="url(#paint3_linear_18934_6823)"/>
</g>
<path d="M14.7722 24.6988H12.3496C11.7114 24.6988 11.2478 24.0554 11.4661 23.4728L15.295 13.2548H18.6392L15.5914 24.0893C15.4918 24.4509 15.1553 24.7013 14.7722 24.6988Z" fill="url(#paint4_linear_18934_6823)"/>
<path d="M11.8996 22.7082C11.8996 22.7082 16.0203 25.4984 15.8759 23.1681C15.8759 23.1681 16.8906 22.8615 16.3499 21.6964C16.3499 21.6964 17.1245 20.8992 16.7105 20.01C16.7105 20.01 13.6187 16.1467 12.6671 16.2693C11.7155 16.392 11.8081 18.293 12.2042 18.8142C12.2042 18.8142 10.9491 20.3166 11.8175 21.0218C11.8175 21.0218 10.8513 22.0792 11.8996 22.7082Z" fill="url(#paint5_linear_18934_6823)"/>
<path d="M18.8873 20.7482C16.4762 20.8918 18.5817 19.1338 15.3203 16.7414C15.3203 16.7414 14.7291 15.7151 15.2202 15.1405C15.7113 14.566 18.8691 17.3007 19.5194 17.9711C20.1698 18.6414 19.6625 20.2506 19.5342 20.844C19.406 21.4374 18.8873 20.7482 18.8873 20.7482Z" fill="url(#paint6_linear_18934_6823)"/>
<path d="M7.14622 1.20837C7.14622 1.20837 10.4834 6.34695 18.3826 6.86455C19.7566 6.95459 20.9051 8.1008 21.0077 9.50611C21.0753 10.4315 21.0732 11.4827 20.8867 12.45C20.6206 13.8297 19.3689 14.7472 17.9871 14.5366C15.4156 14.1447 9.2131 13.9911 4.78564 16.2664L7.14622 1.20837Z" fill="url(#paint7_linear_18934_6823)"/>
<ellipse cx="5.29004" cy="8.33155" rx="8.02419" ry="2.91908" transform="rotate(-82.6537 5.29004 8.33155)" fill="url(#paint8_linear_18934_6823)"/>
<ellipse cx="5.29002" cy="8.33158" rx="7.09489" ry="2.58101" transform="rotate(-82.6537 5.29002 8.33158)" fill="url(#paint9_linear_18934_6823)"/>
<mask id="mask2_18934_6823" style="mask-type:luminance" maskUnits="userSpaceOnUse" x="1" y="0" width="7" height="16">
<ellipse cx="4.89597" cy="8.14966" rx="7.82329" ry="2.7772" transform="rotate(-82.9772 4.89597 8.14966)" fill="white"/>
</mask>
<g mask="url(#mask2_18934_6823)">
<ellipse opacity="0.27" cx="6.923" cy="8.64896" rx="2.47268" ry="2.39445" transform="rotate(-83.3563 6.923 8.64896)" fill="white"/>
</g>
<path d="M19.364 25.9036C19.364 25.9036 13.1715 27.0975 11.636 29.5484C11.636 29.5484 7.89605 54.2453 16.3236 55.3761C26.1588 56.6957 19.364 25.9036 19.364 25.9036Z" fill="url(#paint10_linear_18934_6823)"/>
<path d="M55.3806 117.702L62.2176 139.14L68.0294 136.805L62.4098 113.24L55.3806 117.702Z" fill="url(#paint11_linear_18934_6823)"/>
<mask id="mask3_18934_6823" style="mask-type:luminance" maskUnits="userSpaceOnUse" x="55" y="113" width="14" height="27">
<path fill-rule="evenodd" clip-rule="evenodd" d="M55.417 117.805L62.2896 139.593L68.1316 137.22L62.4828 113.271L55.417 117.805Z" fill="white"/>
</mask>
<g mask="url(#mask3_18934_6823)">
<path opacity="0.34" d="M54.9917 130.59C60.775 132.441 66.1721 125.984 66.1721 125.984L57.8238 125.436L54.9563 128.443" fill="url(#paint12_linear_18934_6823)"/>
</g>
<path d="M36.7122 124.936C36.6288 125.29 38.0803 137.935 38.0803 137.935L45.7436 137.167L43.8229 119.263L36.7122 124.936Z" fill="url(#paint13_linear_18934_6823)"/>
<mask id="mask4_18934_6823" style="mask-type:luminance" maskUnits="userSpaceOnUse" x="36" y="119" width="10" height="20">
<path fill-rule="evenodd" clip-rule="evenodd" d="M36.751 125.005C36.6686 125.362 38.1033 138.088 38.1033 138.088L45.6784 137.315L43.7799 119.296L36.751 125.005Z" fill="white"/>
</mask>
<g mask="url(#mask4_18934_6823)">
<path opacity="0.34" d="M37.3678 127.867C31.7336 129.483 43.3194 131.879 46.0843 131.266C48.8492 130.653 48.3428 126.975 48.3428 126.975L40.6256 126.863" fill="url(#paint14_linear_18934_6823)"/>
</g>
<path d="M28.2764 52.0081L36.7528 128.864C36.7528 128.864 40.2267 130.932 48.153 127.626L44.8236 70.1515L44.0887 44.5756L28.2764 52.0081Z" fill="url(#paint15_linear_18934_6823)"/>
<mask id="mask5_18934_6823" style="mask-type:luminance" maskUnits="userSpaceOnUse" x="28" y="44" width="21" height="86">
<path fill-rule="evenodd" clip-rule="evenodd" d="M28.3225 52.0772L36.8946 129.22C36.8946 129.22 40.4077 131.296 48.4234 127.977L45.0564 70.2884L44.3133 44.6168L28.3225 52.0772Z" fill="white"/>
</mask>
<g mask="url(#mask5_18934_6823)">
<path d="M32.0301 112.352C37.6859 113.284 48.6658 112.335 47.9045 110.76C47.1432 109.184 30.9175 106.948 30.9175 106.948L28.3225 109.184" fill="url(#paint16_linear_18934_6823)"/>
</g>
<path d="M56.8511 127.901C56.8511 127.901 58.2725 129.834 67.427 125.171L48.1867 46.9849L33.0947 49.3289L56.8511 127.901Z" fill="url(#paint17_linear_18934_6823)"/>
<mask id="mask6_18934_6823" style="mask-type:luminance" maskUnits="userSpaceOnUse" x="33" y="47" width="35" height="82">
<path fill-rule="evenodd" clip-rule="evenodd" d="M56.603 128.004C56.603 128.004 58.0059 129.938 67.0406 125.27L48.0521 47.0016L33.1575 49.3481L56.603 128.004Z" fill="white"/>
</mask>
<g mask="url(#mask6_18934_6823)">
<path d="M36.4143 56.8178C43.4957 60.9902 48.1584 56.3594 54.7965 76.8998C56.0524 80.786 50.036 51.6531 50.036 51.6531L36.4143 56.8178Z" fill="url(#paint18_linear_18934_6823)"/>
<path d="M50.0312 113.38C57.4021 113.811 63.7292 111.62 63.432 110.395C63.1347 109.17 53.4715 107.976 53.4715 107.976L51.3544 108.99" fill="url(#paint19_linear_18934_6823)"/>
</g>
<path d="M42.1119 31.3245C48.5315 46.4096 47.2419 50.4138 40.0844 50.0115C39.5821 49.9346 39.6165 49.9852 40.0844 50.0115C42.6153 50.3994 48.3017 49.6044 50.5091 51.55C52.7166 53.4956 55.9831 43.5976 55.9831 43.5976L54.185 40.1099" fill="url(#paint20_linear_18934_6823)"/>
<path d="M45.4033 141.549H22.958C22.958 141.549 21.3223 138.341 31.1177 138.481C38.3937 138.585 37.3511 132.514 37.3511 132.514C37.3511 132.514 40.211 134.946 45.972 134.799L46.917 139.668C47.1093 140.659 46.3931 141.549 45.4033 141.549Z" fill="url(#paint21_linear_18934_6823)"/>
<path d="M60.8018 136.079C60.8018 136.079 66.2181 134.354 67.2368 132.514C67.2368 132.514 68.7458 141.427 76.2409 140.193C84.4006 138.85 84.2922 142.754 84.2922 142.754H64.0123C62.9756 142.754 62.0578 142.032 61.8516 141.055L60.8018 136.079Z" fill="url(#paint22_linear_18934_6823)"/>
<path d="M31.6617 16.2051C31.677 16.5329 31.2878 25.3012 31.2878 25.3012L39.7203 24.3534L37.5849 13.2548L31.6617 16.2051Z" fill="url(#paint23_linear_18934_6823)"/>
<mask id="mask7_18934_6823" style="mask-type:luminance" maskUnits="userSpaceOnUse" x="30" y="13" width="10" height="13">
<path fill-rule="evenodd" clip-rule="evenodd" d="M31.0861 16.7717C31.1017 17.0926 30.7048 25.6769 30.7048 25.6769L39.3043 24.749L37.1265 13.8833L31.0861 16.7717Z" fill="white"/>
</mask>
<g mask="url(#mask7_18934_6823)">
<path opacity="0.34" d="M28.5591 25.4215C32.9267 23.0375 30.8957 20.4219 33.3948 18.7649C35.8938 17.1079 36.1465 14.7239 36.1465 14.7239L29.4281 15.8242L28.1306 22.9152L28.2019 24.3823" fill="url(#paint24_linear_18934_6823)"/>
</g>
<path d="M28.3604 6.02698C24.1402 21.2695 31.0888 20.6724 37.5866 14.9682C42.0159 9.89841 35.4278 6.82183 35.4278 6.82183L28.3604 6.02698Z" fill="url(#paint25_linear_18934_6823)"/>
<mask id="mask8_18934_6823" style="mask-type:luminance" maskUnits="userSpaceOnUse" x="27" y="6" width="13" height="14">
<path fill-rule="evenodd" clip-rule="evenodd" d="M28.3988 6.67468C24.1447 21.5834 31.1492 20.9994 37.6993 15.4201C42.1642 10.4613 35.5231 7.45213 35.5231 7.45213L28.3988 6.67468Z" fill="white"/>
</mask>
<g mask="url(#mask8_18934_6823)">
<path opacity="0.34" d="M25.3331 8.63472C27.9326 10.1351 32.1833 8.41253 32.1833 8.41253C32.1833 8.41253 31.6683 11.623 35.3373 10.2388C39.0064 8.85461 30.207 6.08312 30.207 6.08312L25.6273 5.97083L24.6108 8.63472" fill="url(#paint26_linear_18934_6823)"/>
</g>
<path d="M36.9655 13.874C35.2358 14.4787 38.421 10.4351 36.0006 11.6911C33.5801 12.9471 32.0609 8.29177 32.0609 8.29177C20.2482 11.1294 24.2335 -4.40778 32.5128 2.7561C31.3059 -0.128041 34.9608 -1.87988 36.4751 3.40736C37.9894 8.69461 43.4453 4.77157 37.8645 16.2665L36.9655 13.874Z" fill="url(#paint27_linear_18934_6823)"/>
<path d="M28.0411 107.509C33.8132 113.113 51.7667 109.931 51.7667 109.931C51.7667 109.931 38.7449 28.2304 31.1077 22.2897C28.7102 23.0809 22.2548 28.1653 22.2548 28.1653C22.1144 28.307 30.1028 78.2304 28.0411 107.509Z" fill="url(#paint28_linear_18934_6823)"/>
<mask id="mask9_18934_6823" style="mask-type:luminance" maskUnits="userSpaceOnUse" x="22" y="22" width="30" height="89">
<path fill-rule="evenodd" clip-rule="evenodd" d="M28.0738 107.652C33.8254 113.261 51.7152 110.076 51.7152 110.076C51.7152 110.076 38.7396 28.2835 31.1295 22.3361C28.7405 23.1282 22.308 28.2183 22.308 28.2183C22.1681 28.3601 30.1281 78.3396 28.0738 107.652Z" fill="white"/>
</mask>
<g mask="url(#mask9_18934_6823)">
<path d="M32.8671 77.6803H20.873L20.9798 66.1444H32.9739L32.8671 77.6803Z" fill="url(#paint29_linear_18934_6823)"/>
<path d="M34.0037 67.43H19.9265L20.7613 63.5514L33.9288 63.7441L34.0037 67.43Z" fill="white"/>
<path opacity="0.33" d="M41.0873 78.9194C37.0107 74.7545 44.8194 111.843 42.0481 115.166C39.2767 118.488 54.1311 110.076 54.1311 110.076L44.2793 78.8436" fill="url(#paint30_linear_18934_6823)"/>
</g>
<path d="M45.4045 110.522C60.8065 115.113 68.6318 107.795 68.6318 107.795C64.6794 76.6605 47.3411 32.7351 47.7254 24.459C47.7254 24.459 42.4695 22.7219 38.651 21.6873C38.651 21.6873 37.8818 28.3855 38.9717 40.7177C39.0339 41.422 36.644 44.9292 36.7101 45.6565C38.4228 64.4992 41.6935 91.2519 45.4045 110.522Z" fill="url(#paint31_linear_18934_6823)"/>
<mask id="mask10_18934_6823" style="mask-type:luminance" maskUnits="userSpaceOnUse" x="37" y="21" width="33" height="91">
<path fill-rule="evenodd" clip-rule="evenodd" d="M45.9791 110.359C61.309 114.939 69.0976 107.639 69.0976 107.639C65.1637 76.5769 47.9066 32.7544 48.2891 24.4976C48.2891 24.4976 43.0578 22.7647 39.2571 21.7324C39.2571 21.7324 38.4915 28.415 39.5763 40.7183C39.6383 41.421 37.2595 44.9199 37.3253 45.6456C39.03 64.4441 42.2854 91.1342 45.9791 110.359Z" fill="white"/>
</mask>
<g mask="url(#mask10_18934_6823)">
<path d="M46.9609 38.1536C43.868 38.3192 53.5587 54.7038 60.3112 74.9696C60.3112 74.9696 63.9329 63.4109 66.9648 73.1876C70.3828 84.2097 57.444 44.0473 57.444 44.0473L51.4854 42.3833" fill="url(#paint32_linear_18934_6823)"/>
</g>
<path d="M63.2109 60.8644C63.2109 60.8644 65.1328 67.4713 68.1228 67.0046C71.1128 66.538 76.1621 68.0661 76.1621 68.0661C76.1621 68.0661 77.5645 67.5389 75.4712 66.0942L78.0359 66.6489C78.0359 66.6489 79.2771 66.1911 77.5885 65.3719C77.5885 65.3719 79.7968 65.9096 82.4852 64.641C82.4852 64.641 82.4128 63.3754 81.7418 63.578C81.0708 63.7806 71.8884 62.9866 71.1419 62.1502C70.3954 61.3138 68.3953 58.429 68.3953 58.429L63.2109 60.8644Z" fill="url(#paint33_linear_18934_6823)"/>
<mask id="mask11_18934_6823" style="mask-type:luminance" maskUnits="userSpaceOnUse" x="63" y="58" width="20" height="11">
<path fill-rule="evenodd" clip-rule="evenodd" d="M63.2141 60.8883C63.2141 60.8883 65.1191 67.5004 68.0828 67.0334C71.0466 66.5663 76.0516 68.0956 76.0516 68.0956C76.0516 68.0956 77.4416 67.568 75.3667 66.1223L77.9089 66.6774C77.9089 66.6774 79.1391 66.2192 77.4654 65.3994C77.4654 65.3994 79.6543 65.9375 82.3191 64.6679C82.3191 64.6679 82.2473 63.4013 81.5822 63.6041C80.9171 63.8068 71.8154 63.0122 71.0755 62.1752C70.3355 61.3381 68.353 58.451 68.353 58.451L63.2141 60.8883Z" fill="white"/>
</mask>
<g mask="url(#mask11_18934_6823)">
<path opacity="0.34" d="M60.9559 63.2733C71.1057 64.3347 71.8796 60.1816 71.8796 60.1816L66.3623 58.451L59.4846 61.8669" fill="url(#paint34_linear_18934_6823)"/>
</g>
<path d="M61.4389 65.6567C63.7961 65.5055 70.0207 63.1075 71.0413 59.9249L52.2152 27.2474C49.5613 23.4899 45.689 22.8877 43.4721 23.9841L44.0182 23.5918C41.6726 24.7518 46.0041 39.0743 47.3794 41.4285L61.4389 65.6567Z" fill="url(#paint35_linear_18934_6823)"/>
<path d="M30.5958 24.589L29.481 27.516L32.5946 36.4311L38.7305 36.7453L40.9251 26.7008L39.4621 23.4943L35.5442 24.398L33.2917 24.504L31.5376 24.7379" fill="url(#paint36_linear_18934_6823)"/>
<path d="M34.1504 26.0223L33.0947 35.597L36.2218 43.9732L38.1275 42.8943L38.5156 35.0197L35.8034 25.3013L34.1504 26.0223Z" fill="url(#paint37_linear_18934_6823)"/>
<path d="M32.4924 24.3041L33.8635 26.3698C34.1961 26.8747 34.7418 27.1522 35.3045 27.1025L35.7552 27.0603C36.3056 27.0093 36.791 26.6411 37.0327 26.0914L37.9133 24.0966L35.0394 24.0987L32.4924 24.3041Z" fill="url(#paint38_linear_18934_6823)"/>
<path d="M29.5807 23.1897C29.5807 23.1897 30.7247 20.5183 31.221 20.4828C31.221 20.4828 31.9129 23.2423 34.9018 24.2689L32.4875 27.7106C32.4875 27.7106 28.838 25.2755 29.5807 23.1897Z" fill="url(#paint39_linear_18934_6823)"/>
<path d="M40.7414 21.3443C40.7414 21.3443 38.9416 19.2411 38.4451 19.2786C38.4451 19.2786 37.6701 22.4269 34.9016 23.944L37.5907 27.1083C37.5907 27.1083 41.8475 23.4036 40.7414 21.3443Z" fill="url(#paint40_linear_18934_6823)"/>
<path d="M30.2302 21.6873C30.2302 21.6873 36.4254 41.5472 37.9133 43.6558L37.1136 45.7801L27.6006 34.3211L30.2176 31.8292L26.4692 31.0363L28.1248 24.4349C28.1248 24.4349 29.368 22.155 30.2302 21.6873Z" fill="white"/>
<path d="M39.888 20.4828L37.311 45.7803L44.6215 33.7087L41.6676 30.8756L45.1412 29.9574L42.2688 22.77C42.2688 22.77 41.5105 21.4377 39.888 20.4828Z" fill="white"/>
<ellipse cx="38.0953" cy="49.549" rx="1.03696" ry="1.05686" transform="rotate(-31.8891 38.0953 49.549)" fill="white"/>
<ellipse cx="40.1011" cy="63.7656" rx="1.03696" ry="1.05686" transform="rotate(-31.8891 40.1011 63.7656)" fill="white"/>
<path d="M26.9788 11.4479C27.4694 12.573 28.8648 11.7219 28.8648 11.7219C28.8648 11.7219 30.3024 13.4241 33.9204 12.42C34.5166 12.573 33.3718 16.4 34.2994 16.6317C28.3434 22.7862 25.1619 17.0098 26.9788 11.4479Z" fill="white"/>
<path d="M33.0947 13.8572L33.7737 12.9124L36.7087 11.4479L36.5312 11.9676L33.7875 13.8572" fill="white"/>
<path d="M33.0947 16.2579L36.7087 15.0618L33.4013 16.8687L33.1002 16.5379" fill="white"/>
<path d="M34.9016 12.8718C39.0524 7.26483 41.5747 15.0028 35.479 15.6642L34.9016 12.8718Z" fill="url(#paint41_linear_18934_6823)"/>
<path d="M42.1297 42.0312L41.1066 42.1661L40.9293 40.4731C40.9117 40.3038 40.9494 40.1327 41.0339 39.9986C41.1185 39.8644 41.2427 39.7784 41.3786 39.7599C41.6639 39.7255 41.9189 39.9825 41.9524 40.3381L42.1297 42.0312Z" fill="url(#paint42_linear_18934_6823)"/>
<path d="M43.3343 41.4331L42.3526 41.564L42.1358 39.433C42.093 38.9842 42.278 38.5912 42.549 38.555C42.8201 38.5189 43.0746 38.8534 43.1174 39.3022L43.3343 41.4331Z" fill="url(#paint43_linear_18934_6823)"/>
<path d="M45.7436 42.5056L40.4329 42.7685L40.3228 41.2244L45.6335 40.9615L45.7436 42.5056Z" fill="white"/>
<path d="M45.0074 51.7075C44.8799 51.798 44.761 51.8988 44.6521 52.0087C42.7513 53.918 43.3511 58.7539 43.7477 61.9543L43.8327 62.6452L44.418 62.5914L44.333 61.8985C43.9723 58.9885 43.3682 54.1182 45.0841 52.3948C45.5486 51.9265 46.1506 51.7207 46.9238 51.7638L46.9484 51.2074C46.1868 51.1651 45.536 51.3332 45.0074 51.7075Z" fill="white"/>
<mask id="mask12_18934_6823" style="mask-type:luminance" maskUnits="userSpaceOnUse" x="43" y="51" width="5" height="12">
<path fill-rule="evenodd" clip-rule="evenodd" d="M45.4449 51.7337C45.33 51.8252 45.2229 51.927 45.1248 52.0381C43.412 53.9674 43.9525 58.854 44.3098 62.088L44.3864 62.786L44.9138 62.7317L44.8372 62.0315C44.5123 59.091 43.9679 54.1697 45.5139 52.4282C45.9326 51.955 46.475 51.747 47.1717 51.7906L47.1938 51.2284C46.5075 51.1856 45.9212 51.3555 45.4449 51.7337Z" fill="white"/>
</mask>
<g mask="url(#mask12_18934_6823)">
<path d="M45.0501 62.2413C44.3099 62.088 44.3508 61.9665 44.1517 61.6081C43.9526 61.2497 43.628 62.2673 43.6527 62.3052C43.6774 62.3431 44.5241 63.0708 44.5317 63.0089C44.5394 62.947 45.2527 62.5785 45.2527 62.5785" fill="url(#paint44_linear_18934_6823)"/>
</g>
<path d="M48.1058 51.2019L46.8555 51.2666C46.7078 51.2745 46.5708 51.3247 46.4754 51.4057C46.38 51.4868 46.3342 51.5919 46.3485 51.6974L46.3896 52.0317C46.4161 52.2532 46.6852 52.419 46.9954 52.4048L48.2457 52.3401C48.3934 52.3322 48.5304 52.2821 48.6258 52.201C48.7212 52.1199 48.7669 52.0148 48.7527 51.9093L48.7116 51.5751C48.6851 51.3535 48.416 51.1877 48.1058 51.2019Z" fill="url(#paint45_linear_18934_6823)"/>
<path d="M49.9597 68.2252L50.0685 68.719C50.5104 70.7373 50.9678 72.8239 52.6415 73.6565C53.8027 74.2343 55.0816 74.2917 57.1876 73.4707L56.7368 72.7243C54.8976 73.4395 53.9584 73.3603 53.056 72.9113C51.7676 72.2705 51.373 70.4695 50.9554 68.5633L50.8457 68.066L49.9597 68.2252Z" fill="url(#paint46_linear_18934_6823)"/>
<path d="M42.5323 53.664C42.6828 53.634 42.8357 53.6166 42.9894 53.612C45.6662 53.5246 49.0464 57.0392 51.2835 59.3649L51.7668 59.8665L51.3576 60.2359L50.8726 59.7329C48.8385 57.6183 45.4343 54.0786 43.0181 54.1575C42.3626 54.1779 41.8247 54.4613 41.3727 55.0225L40.925 54.6827C41.3704 54.13 41.9096 53.7887 42.5323 53.664Z" fill="white"/>
<path d="M39.8472 55.013L40.5347 54.3346C40.6169 54.2546 40.7278 54.2107 40.8428 54.2127C40.9577 54.2147 41.067 54.2624 41.1464 54.3452L41.4007 54.6049C41.5697 54.7751 41.5696 55.049 41.4007 55.2192L40.7132 55.8976C40.631 55.9776 40.52 56.0215 40.4051 56.0195C40.2902 56.0176 40.1808 55.9699 40.1014 55.8871L39.8471 55.6273C39.6782 55.4571 39.6782 55.1832 39.8472 55.013Z" fill="url(#paint47_linear_18934_6823)"/>
<path d="M43.9368 63.0455C44.5168 67.8635 47.1476 68.9375 48.2515 69.1754C50.1384 69.5723 52.0658 68.7059 53.0183 67.0326C53.5476 66.0903 54.4558 63.5426 51.4726 60.236L50.8498 60.8035C52.6854 62.838 53.2067 64.952 52.2793 66.6032C51.5074 67.96 49.9452 68.663 48.4155 68.342C46.4651 67.9213 45.139 65.9587 44.7775 62.9573L43.9368 63.0455Z" fill="url(#paint48_linear_18934_6823)"/>
<path d="M57.7902 76.4985H45.7488L43.9368 65.6567H55.9781L57.7902 76.4985Z" fill="url(#paint49_linear_18934_6823)"/>
<path d="M57.1879 66.8615H43.6435L43.3345 63.2476H55.7853L57.1879 66.8615Z" fill="white"/>
<path d="M10.8548 76.7667L13.6604 77.1241C13.0104 77.0415 12.368 76.9076 11.7392 76.7235L8.93359 76.3661C9.56239 76.5501 10.2048 76.6841 10.8548 76.7667Z" fill="url(#paint50_linear_18934_6823)"/>
<mask id="mask13_18934_6823" style="mask-type:luminance" maskUnits="userSpaceOnUse" x="8" y="76" width="6" height="2">
<path fill-rule="evenodd" clip-rule="evenodd" d="M10.8548 76.7667L13.6604 77.1241C13.0104 77.0415 12.368 76.9076 11.7392 76.7235L8.93359 76.3661C9.56239 76.5501 10.2048 76.6841 10.8548 76.7667Z" fill="white"/>
</mask>
<g mask="url(#mask13_18934_6823)">
<path d="M10.855 76.7666L13.6606 77.124C13.6251 77.1195 13.5895 77.1148 13.5539 77.11L10.7483 76.7526C10.7839 76.7574 10.8194 76.7621 10.855 76.7666Z" fill="url(#paint51_linear_18934_6823)"/>
</g>
<path d="M25.5603 74.6837C25.5208 74.5767 25.4797 74.4732 25.4362 74.3754C25.4308 74.3634 25.425 74.3523 25.4196 74.3404C25.3819 74.2577 25.342 74.1796 25.3013 74.1038C25.2842 74.0719 25.2669 74.0405 25.2493 74.0099C25.2124 73.9458 25.1741 73.885 25.1348 73.8263C25.1193 73.803 25.1043 73.7784 25.0883 73.7559C25.037 73.6833 24.982 73.6134 24.9236 73.5464C24.9111 73.5321 24.898 73.519 24.8852 73.5051C24.8349 73.4503 24.783 73.399 24.7297 73.3512C24.7174 73.3403 24.7054 73.3286 24.6929 73.318C24.6268 73.2613 24.5569 73.2092 24.4837 73.1621C24.4356 73.1316 24.3871 73.1046 24.3383 73.0799C24.3224 73.0718 24.3064 73.0653 24.2904 73.0579C24.2585 73.043 24.2265 73.0288 24.1943 73.0163C24.1603 73.0032 24.1262 72.9926 24.092 72.9821C24.0705 72.9755 24.049 72.9678 24.0273 72.9623C23.9889 72.9524 23.9503 72.9455 23.9116 72.9389C23.8918 72.9356 23.872 72.9304 23.8521 72.9279L26.6577 73.2853C26.6621 73.2858 26.6666 73.2864 26.671 73.287C26.6865 73.2892 26.7018 73.2937 26.7172 73.2964C26.7559 73.303 26.7946 73.3098 26.833 73.3197C26.8547 73.3252 26.8762 73.3329 26.8978 73.3395C26.9319 73.35 26.9659 73.3606 26.9998 73.3737C27.0066 73.3763 27.0136 73.3778 27.0204 73.3806C27.0458 73.3908 27.0709 73.4036 27.0962 73.4154C27.1121 73.4228 27.1281 73.4293 27.144 73.4373C27.1928 73.462 27.2412 73.489 27.2893 73.5195C27.3041 73.529 27.3188 73.5386 27.3334 73.5485C27.3907 73.5878 27.4458 73.6301 27.4985 73.6754C27.511 73.686 27.523 73.6977 27.5354 73.7087C27.5618 73.7323 27.5887 73.7548 27.6144 73.7801C27.6407 73.806 27.6656 73.835 27.6911 73.8627C27.7037 73.8765 27.7167 73.8895 27.7291 73.9037C27.7801 73.9619 27.8299 74.0229 27.8776 74.0887C27.8833 74.0965 27.8883 74.1055 27.8939 74.1133C27.9099 74.1358 27.9249 74.1605 27.9406 74.1839C27.9797 74.2425 28.018 74.3033 28.0549 74.3673C28.0725 74.3979 28.0897 74.4293 28.1068 74.461C28.1209 74.4874 28.1361 74.5116 28.1499 74.5388C28.1759 74.5901 28.2007 74.6442 28.2255 74.6985C28.2308 74.7101 28.2364 74.7209 28.2417 74.7327C28.2853 74.8305 28.3264 74.9341 28.3659 75.0412C28.3751 75.066 28.3841 75.0913 28.393 75.1166C28.4319 75.2266 28.4694 75.3396 28.5041 75.4588L28.5045 75.4603C28.5438 75.5955 28.5805 75.7366 28.6145 75.8836C28.6153 75.8873 28.6168 75.8943 28.6187 75.9027C28.6196 75.9069 28.621 75.9134 28.6222 75.9186C28.6236 75.9252 28.625 75.9315 28.6269 75.9397C28.6281 75.945 28.6296 75.9519 28.6309 75.9579C28.6334 75.9689 28.636 75.9806 28.6391 75.994C28.6407 76.0012 28.6426 76.0097 28.6444 76.0177C28.6476 76.0314 28.6509 76.046 28.6545 76.0617L28.6622 76.0949C28.6657 76.1099 28.6694 76.1259 28.6733 76.1424C28.6769 76.1579 28.6807 76.174 28.6847 76.1909C28.6884 76.2063 28.6922 76.2226 28.6962 76.2391C28.7004 76.2565 28.7046 76.2743 28.709 76.2929C28.7139 76.3131 28.7191 76.3346 28.7244 76.3561C28.7288 76.3742 28.7331 76.3921 28.7378 76.4111C28.7439 76.436 28.7504 76.4625 28.757 76.489C28.7616 76.5075 28.766 76.5253 28.7708 76.5446C28.778 76.5734 28.7857 76.6042 28.7934 76.6347C28.7982 76.6536 28.8027 76.6717 28.8077 76.6913C28.8201 76.7403 28.8332 76.7912 28.8468 76.8442C28.8509 76.86 28.8554 76.8769 28.8596 76.8929C28.8704 76.9346 28.8813 76.9765 28.8929 77.0204C28.8986 77.0422 28.9048 77.0653 28.9107 77.0876C28.921 77.1265 28.9314 77.1655 28.9423 77.206C28.9491 77.2316 28.9564 77.2583 28.9635 77.2846C28.9738 77.3229 28.9842 77.3613 28.9951 77.4009C29.0029 77.4296 29.0111 77.4592 29.0192 77.4886C29.0304 77.5292 29.0417 77.5702 29.0534 77.612C29.0615 77.641 29.0698 77.6705 29.0781 77.7001C29.0902 77.7435 29.1027 77.7875 29.1154 77.8321C29.1244 77.8638 29.1335 77.8957 29.1427 77.928C29.1552 77.9714 29.168 78.0157 29.1809 78.0603C29.1898 78.091 29.1987 78.1218 29.2078 78.153C29.2388 78.2589 29.2709 78.3677 29.3043 78.4794C29.31 78.4981 29.3158 78.5174 29.3215 78.5363C29.3534 78.6424 29.3865 78.7509 29.4207 78.8619C29.4256 78.8775 29.4302 78.8927 29.4351 78.9084C29.472 79.0277 29.5105 79.1501 29.5501 79.2745C29.5585 79.3009 29.567 79.3275 29.5755 79.3542C29.6162 79.4813 29.6579 79.6103 29.7013 79.7423C29.7049 79.753 29.7086 79.764 29.7121 79.7747C29.7531 79.8989 29.7955 80.0254 29.8389 80.1536C29.8483 80.1812 29.8575 80.2087 29.867 80.2366C29.9127 80.3706 29.9597 80.5067 30.0081 80.6447C30.0178 80.6724 30.0277 80.7005 30.0375 80.7283C30.0843 80.8609 30.1322 80.9951 30.1813 81.1308C30.1864 81.145 30.1914 81.159 30.1966 81.1732C30.2491 81.3178 30.3034 81.4647 30.3589 81.6127C30.3711 81.6454 30.3835 81.6782 30.3959 81.7112C30.4518 81.8596 30.509 82.0094 30.5676 82.1606C30.5748 82.1791 30.5822 82.1978 30.5894 82.2162C30.6442 82.3567 30.7003 82.4984 30.7577 82.6412C30.7695 82.6708 30.7812 82.7003 30.7932 82.73C30.8551 82.8833 30.9184 83.0377 30.9832 83.1933C30.9962 83.2245 31.0095 83.256 31.0226 83.2873C31.087 83.4409 31.1527 83.5954 31.2197 83.7507C31.2238 83.7601 31.2277 83.7694 31.2318 83.7788C31.3014 83.9395 31.3728 84.1011 31.4458 84.2635C31.4613 84.298 31.4768 84.3326 31.4924 84.3671C31.565 84.528 31.639 84.6894 31.7145 84.8514C31.7254 84.8746 31.7366 84.898 31.7475 84.9212C31.818 85.0715 31.8899 85.2222 31.9631 85.3732C31.9763 85.4005 31.9894 85.4277 32.0027 85.455C32.0817 85.6171 32.1623 85.7794 32.2445 85.9419C32.2625 85.9775 32.2806 86.0131 32.2988 86.0486C32.3724 86.1931 32.4471 86.3376 32.523 86.4821C32.5313 86.4978 32.5394 86.5136 32.5477 86.5293C32.6301 86.6854 32.7141 86.8414 32.7997 86.9973C32.8198 87.0341 32.8401 87.0709 32.8605 87.1076C32.9452 87.2611 33.0313 87.4143 33.1185 87.5672C33.1213 87.5721 33.1241 87.577 33.1269 87.5819C33.2162 87.7377 33.3073 87.893 33.3999 88.0478C33.4222 88.0851 33.4445 88.1224 33.4669 88.1597C33.5602 88.3146 33.6548 88.4689 33.7507 88.6227C33.756 88.6312 33.7615 88.6396 33.7668 88.6481C33.8586 88.7943 33.9519 88.9397 34.0467 89.0845C34.0704 89.1208 34.0942 89.1571 34.118 89.1933C34.2174 89.344 34.3181 89.4938 34.4203 89.6428C34.4322 89.6601 34.4445 89.6772 34.4564 89.6945C34.5498 89.8295 34.6445 89.9636 34.7406 90.0968C34.7629 90.1277 34.7852 90.1587 34.8075 90.1896C34.9552 90.3927 35.1058 90.5934 35.2595 90.7917C35.2761 90.813 35.2924 90.8344 35.309 90.8557C35.4664 91.0574 35.6271 91.2562 35.791 91.452C35.8047 91.4684 35.8182 91.485 35.8319 91.5014C36.0014 91.7028 36.1743 91.9006 36.3507 92.0947C36.3594 92.1043 36.3679 92.1141 36.3766 92.1237C36.5617 92.3266 36.7505 92.5252 36.9431 92.7195L38.0226 93.8177L35.2169 93.4603L34.1374 92.3621C33.9448 92.1681 33.7559 91.9695 33.571 91.7662C33.5623 91.7567 33.5538 91.7469 33.5451 91.7374C33.3688 91.5433 33.1959 91.3456 33.0264 91.1442C33.0125 91.1277 32.999 91.1109 32.9851 91.0943C32.8214 90.8987 32.6609 90.7001 32.5035 90.4985C32.4868 90.4771 32.4703 90.4555 32.4536 90.434C32.3001 90.2358 32.1495 90.0352 32.0019 89.8322C31.9942 89.8216 31.986 89.8114 31.9783 89.8008C31.9636 89.7805 31.9496 89.7597 31.9349 89.7394C31.8391 89.6062 31.7444 89.4722 31.651 89.3374C31.6389 89.32 31.6266 89.3027 31.6146 89.2853C31.5121 89.1363 31.4113 88.9864 31.3121 88.8355C31.2884 88.7996 31.2648 88.7636 31.2414 88.7276C31.1465 88.5822 31.0528 88.4362 30.9604 88.2895C30.9554 88.2815 30.9502 88.2736 30.9453 88.2657C30.8491 88.1121 30.7545 87.9579 30.6617 87.8029C30.639 87.7652 30.6164 87.7276 30.594 87.6899C30.5017 87.535 30.4107 87.3798 30.321 87.2242C30.3185 87.2198 30.3161 87.2155 30.3136 87.2111C30.226 87.0582 30.14 86.905 30.0555 86.7514C30.0347 86.7138 30.014 86.6762 29.9934 86.6386C29.9083 86.4831 29.8245 86.3276 29.742 86.1719C29.7337 86.1562 29.7256 86.1404 29.7174 86.1247C29.6413 85.9802 29.5666 85.8357 29.4932 85.6912C29.4828 85.6709 29.4719 85.6506 29.4616 85.6303C29.4539 85.615 29.4466 85.5997 29.4389 85.5844C29.3568 85.422 29.2762 85.2598 29.1971 85.0978C29.1836 85.0701 29.1704 85.0425 29.157 85.0148C29.0841 84.8644 29.0126 84.7144 28.9423 84.5647C28.9312 84.5411 28.9199 84.5174 28.9088 84.4938C28.8332 84.332 28.7592 84.1707 28.6869 84.0101C28.6711 83.9751 28.6554 83.9401 28.6398 83.9053C28.5673 83.7435 28.4961 83.5824 28.4264 83.4219C28.4219 83.4117 28.4177 83.4015 28.4132 83.3913C28.3464 83.2369 28.2811 83.0833 28.2173 82.9308C28.204 82.899 28.1906 82.8672 28.1774 82.8356C28.1127 82.6802 28.0494 82.5258 27.9876 82.3726C27.9756 82.3429 27.9639 82.3135 27.952 82.2839C27.8947 82.141 27.8386 81.9993 27.7837 81.8586C27.7765 81.8402 27.7691 81.8216 27.762 81.8032C27.7032 81.6518 27.6459 81.5019 27.5902 81.3537C27.5777 81.3205 27.5653 81.2876 27.553 81.2546C27.4976 81.1068 27.4436 80.9605 27.3909 80.8158C27.3858 80.8015 27.3808 80.7877 27.3756 80.7735C27.3263 80.6373 27.2783 80.5028 27.2316 80.3701C27.2219 80.3427 27.2121 80.3151 27.2025 80.2878C27.1541 80.1496 27.107 80.0134 27.0613 79.8792C27.0518 79.8513 27.0426 79.8239 27.0332 79.7962C26.9898 79.668 26.9475 79.5418 26.9064 79.4173C26.9029 79.4066 26.8992 79.3956 26.8956 79.3849C26.8522 79.2528 26.8105 79.1239 26.7698 78.9968C26.7613 78.9701 26.7528 78.9435 26.7444 78.9171C26.705 78.7932 26.6666 78.6713 26.6298 78.5525C26.6245 78.5352 26.6194 78.5186 26.6141 78.5014C26.5802 78.3915 26.5474 78.284 26.5158 78.1789C26.5101 78.16 26.5043 78.1408 26.4987 78.122C26.4652 78.0102 26.433 77.9014 26.4021 77.7956C26.3995 77.7864 26.3964 77.7764 26.3937 77.7673C26.3874 77.7453 26.3815 77.7246 26.3752 77.7029C26.3624 77.6586 26.3497 77.6148 26.3373 77.5716C26.3277 77.5379 26.3182 77.5047 26.3089 77.4718C26.2967 77.4292 26.2849 77.3873 26.2733 77.3458C26.2646 77.3149 26.2559 77.2841 26.2475 77.2538C26.2359 77.2122 26.2246 77.1716 26.2135 77.1312C26.2054 77.1017 26.1972 77.0723 26.1894 77.0435C26.1785 77.0038 26.1681 76.9655 26.1578 76.9272C26.1507 76.9009 26.1434 76.8743 26.1366 76.8487C26.1257 76.8081 26.1153 76.7691 26.105 76.7302C26.0991 76.7079 26.0929 76.6848 26.0872 76.663C26.0756 76.6191 26.0647 76.5772 26.0539 76.5355C26.0494 76.5182 26.0447 76.5003 26.0403 76.4833C26.0272 76.4326 26.0146 76.3835 26.0026 76.3364C25.9966 76.3126 25.9911 76.2906 25.9853 76.2677C25.9784 76.2405 25.9715 76.213 25.965 76.1872C25.9602 76.1679 25.9559 76.1501 25.9513 76.1316C25.9447 76.1051 25.9382 76.0786 25.932 76.0537C25.9274 76.0346 25.9231 76.0169 25.9187 75.9988C25.9134 75.9771 25.9082 75.9558 25.9033 75.9355C25.8988 75.9167 25.8946 75.8992 25.8905 75.8817C25.8865 75.8651 25.8827 75.849 25.879 75.8335C25.875 75.8166 25.8712 75.8005 25.8676 75.785C25.8637 75.7682 25.86 75.7527 25.8565 75.7375C25.8538 75.726 25.8512 75.7149 25.8488 75.7043C25.8451 75.6884 25.8419 75.6741 25.8387 75.6603C25.8369 75.6522 25.835 75.644 25.8333 75.6365C25.8303 75.6231 25.8277 75.6116 25.8252 75.6005C25.8238 75.5942 25.8224 75.5878 25.8211 75.5823C25.8193 75.574 25.8179 75.5678 25.8165 75.5612C25.8153 75.5557 25.8139 75.5496 25.813 75.5453C25.811 75.5364 25.8096 75.53 25.8088 75.5262C25.7748 75.3793 25.7381 75.2382 25.6988 75.1029C25.664 74.9832 25.6263 74.8697 25.5873 74.7592C25.5785 74.7338 25.5695 74.7085 25.5603 74.6837Z" fill="url(#paint52_linear_18934_6823)"/>
<path d="M8.29252 141.317C8.6456 141.123 8.99262 140.926 9.3368 140.729C9.41245 140.686 9.48797 140.642 9.56336 140.599C9.89879 140.405 10.2302 140.21 10.5577 140.013C10.6075 139.983 10.6564 139.953 10.706 139.923C11.0021 139.744 11.2946 139.564 11.5836 139.382C11.6451 139.344 11.7071 139.305 11.7682 139.267C12.0833 139.067 12.3942 138.867 12.7009 138.664C12.766 138.621 12.8305 138.578 12.8953 138.535C13.1812 138.345 13.4638 138.154 13.743 137.961C13.7756 137.938 13.8088 137.916 13.8412 137.894C14.141 137.685 14.4363 137.475 14.7272 137.264C14.7936 137.216 14.8596 137.167 14.9255 137.119C15.2165 136.906 15.5039 136.691 15.7876 136.475C15.8104 136.457 15.8326 136.44 15.8554 136.422C16.1219 136.217 16.3846 136.011 16.6436 135.803C16.7023 135.756 16.7613 135.709 16.8197 135.661C17.0894 135.443 17.3554 135.223 17.6177 135.001C17.6655 134.96 17.7125 134.92 17.76 134.879C17.9968 134.677 18.2305 134.473 18.4611 134.267C18.5038 134.229 18.5472 134.192 18.5897 134.153C18.8424 133.927 19.0912 133.698 19.3362 133.467C19.3908 133.415 19.4451 133.363 19.4994 133.312C19.7405 133.082 19.9784 132.851 20.213 132.618C20.2221 132.609 20.2315 132.6 20.2406 132.591C20.4811 132.351 20.7166 132.108 20.9496 131.863C21.0016 131.808 21.0535 131.753 21.1053 131.699C21.3337 131.456 21.5587 131.212 21.7804 130.965C21.8099 130.932 21.8387 130.899 21.8681 130.866C22.0698 130.639 22.2685 130.41 22.4642 130.18C22.5072 130.129 22.5505 130.079 22.5932 130.028C22.8041 129.777 23.0116 129.524 23.2157 129.268C23.2573 129.216 23.2982 129.164 23.3396 129.112C23.5273 128.874 23.7123 128.635 23.8944 128.393C23.9197 128.36 23.9454 128.327 23.9706 128.293C24.1677 128.03 24.3612 127.763 24.5511 127.495C24.5942 127.434 24.6371 127.373 24.6798 127.312C24.8707 127.039 25.0586 126.764 25.2435 126.487C25.2524 126.474 25.2609 126.46 25.2698 126.447C25.4471 126.179 25.6211 125.908 25.7917 125.634C25.8304 125.572 25.8693 125.511 25.9077 125.449C26.0124 125.28 26.1139 125.108 26.2163 124.937C26.3172 124.768 26.4187 124.599 26.5174 124.429C26.6103 124.268 26.7006 124.106 26.7914 123.943C26.8878 123.771 26.9845 123.6 27.0787 123.426C27.1677 123.261 27.2543 123.095 27.3414 122.929C27.4334 122.753 27.5258 122.578 27.6157 122.4C27.7007 122.232 27.7834 122.062 27.8665 121.892C27.9544 121.713 28.0425 121.533 28.1284 121.352C28.2369 121.122 28.3436 120.891 28.4486 120.657C28.4876 120.571 28.5275 120.486 28.566 120.399C28.7117 120.071 28.8542 119.74 28.9936 119.405C29.0227 119.335 29.0504 119.264 29.0792 119.194C29.1889 118.926 29.2968 118.657 29.4028 118.385C29.4483 118.268 29.4928 118.15 29.5376 118.032C29.6274 117.796 29.7158 117.559 29.8028 117.319C29.844 117.206 29.8849 117.092 29.9256 116.978C30.0212 116.709 30.1149 116.438 30.2067 116.164C30.2341 116.083 30.2623 116.002 30.2893 115.921C30.4061 115.568 30.5201 115.212 30.6311 114.852C30.658 114.765 30.6837 114.676 30.7102 114.589C30.7974 114.302 30.8829 114.013 30.9667 113.721C30.9929 113.63 31.0189 113.538 31.0448 113.446C31.1469 113.084 31.2473 112.719 31.3442 112.349L35.517 96.4004C35.5336 96.3368 35.5484 96.273 35.5623 96.2092C35.5829 96.1146 35.6002 96.0199 35.6149 95.9253C35.618 95.9055 35.6206 95.8858 35.6234 95.866C35.6395 95.7536 35.6524 95.6414 35.6605 95.5304C35.6617 95.5144 35.6621 95.4988 35.6631 95.4829C35.6675 95.4131 35.6703 95.3438 35.6716 95.2751C35.6721 95.2498 35.6723 95.2246 35.6723 95.1995C35.6725 95.133 35.6712 95.0672 35.6684 95.0021C35.6677 94.9838 35.6675 94.9653 35.6665 94.9471C35.6634 94.8906 35.6588 94.835 35.6537 94.7798C35.6523 94.7657 35.6516 94.7512 35.6501 94.7371C35.6429 94.6682 35.634 94.6006 35.6234 94.5342C35.6206 94.5162 35.6168 94.499 35.6137 94.4812C35.6054 94.4334 35.5968 94.3859 35.5868 94.3397C35.5817 94.316 35.5756 94.2931 35.57 94.2698C35.5606 94.2309 35.5511 94.1921 35.5405 94.1545C35.5348 94.1339 35.5283 94.114 35.5222 94.0939C35.5068 94.0434 35.4903 93.9943 35.4726 93.9467C35.4658 93.9282 35.4591 93.9096 35.452 93.8916C35.4274 93.8297 35.4014 93.7695 35.3729 93.7132C35.3506 93.6691 35.327 93.6269 35.3023 93.5866C35.2946 93.5739 35.2862 93.5624 35.2782 93.5501C35.2583 93.5194 35.2384 93.4886 35.2171 93.4603L38.0227 93.8177C38.0283 93.8252 38.0339 93.8327 38.0394 93.8403C38.0549 93.8617 38.0693 93.8851 38.0841 93.9079C38.0919 93.92 38.1002 93.9313 38.1079 93.9438C38.1324 93.9841 38.156 94.0259 38.1782 94.0698L38.1786 94.0706C38.2071 94.127 38.233 94.187 38.2576 94.2489C38.2648 94.267 38.2715 94.2857 38.2783 94.3042C38.296 94.3518 38.3125 94.4009 38.3279 94.4513C38.3316 94.4635 38.3362 94.4745 38.3398 94.4869C38.3422 94.4949 38.3439 94.5037 38.3462 94.5118C38.3567 94.5493 38.3662 94.588 38.3755 94.6268C38.3812 94.6503 38.3873 94.6734 38.3925 94.6974C38.4024 94.7433 38.411 94.7904 38.4192 94.8378C38.4224 94.8559 38.4262 94.8733 38.4291 94.8916C38.4396 94.9579 38.4485 95.0255 38.4558 95.0943C38.4573 95.1092 38.4581 95.1246 38.4595 95.1396C38.4646 95.194 38.4691 95.2486 38.4722 95.3043C38.4724 95.3094 38.4731 95.3143 38.4733 95.3195C38.474 95.3328 38.4736 95.3468 38.4741 95.3602C38.4768 95.425 38.4781 95.4904 38.478 95.5565C38.4779 95.5819 38.4777 95.6072 38.4772 95.6328C38.4759 95.7014 38.4731 95.7704 38.4688 95.84C38.4679 95.8529 38.4681 95.8656 38.4672 95.8785C38.4669 95.8816 38.4664 95.8847 38.4662 95.8877C38.4581 95.9988 38.4452 96.1109 38.4291 96.2234C38.4275 96.2345 38.4271 96.2454 38.4254 96.2565C38.4241 96.2652 38.4219 96.274 38.4205 96.2827C38.4058 96.3774 38.3885 96.4721 38.3679 96.5667C38.3669 96.5714 38.3664 96.576 38.3653 96.5806C38.3523 96.6398 38.338 96.6988 38.3226 96.7578L34.1498 112.706C34.053 113.076 33.9525 113.441 33.8504 113.804C33.8246 113.896 33.7986 113.987 33.7724 114.078C33.7458 114.171 33.7201 114.265 33.6931 114.358C33.6353 114.556 33.5752 114.751 33.5157 114.947C33.4893 115.034 33.4636 115.122 33.4368 115.209C33.3257 115.569 33.2118 115.925 33.0949 116.278C33.068 116.36 33.0399 116.44 33.0126 116.521C32.9205 116.794 32.8267 117.066 32.7312 117.336C32.6907 117.45 32.6499 117.563 32.6086 117.676C32.5703 117.782 32.5332 117.889 32.4943 117.994C32.445 118.127 32.3934 118.258 32.3432 118.39C32.2984 118.508 32.254 118.626 32.2085 118.743C32.1027 119.014 31.9949 119.284 31.8849 119.551C31.8561 119.621 31.8284 119.692 31.7993 119.762C31.6601 120.097 31.5176 120.428 31.3719 120.756C31.3331 120.843 31.2927 120.93 31.2535 121.017C31.1726 121.196 31.0924 121.376 31.0096 121.553C30.985 121.605 30.9589 121.656 30.9342 121.709C30.8482 121.891 30.76 122.07 30.6719 122.25C30.589 122.42 30.5063 122.59 30.4214 122.757C30.3313 122.935 30.2388 123.111 30.1465 123.287C30.0597 123.453 29.9734 123.619 29.8847 123.782C29.7902 123.957 29.6932 124.129 29.5966 124.302C29.5059 124.463 29.4157 124.626 29.3231 124.786C29.2244 124.957 29.1229 125.125 29.0219 125.294C28.9505 125.413 28.8815 125.535 28.8089 125.653C28.7775 125.704 28.745 125.755 28.7133 125.806C28.6749 125.868 28.6361 125.93 28.5974 125.991C28.4264 126.264 28.2527 126.535 28.0762 126.803C28.067 126.817 28.0581 126.831 28.0489 126.845C27.865 127.122 27.6773 127.397 27.4859 127.668C27.4429 127.73 27.3997 127.791 27.3564 127.852C27.1661 128.121 26.9727 128.387 26.7762 128.65C26.751 128.684 26.7252 128.717 26.6999 128.751C26.5181 128.992 26.3333 129.232 26.1454 129.469C26.104 129.521 26.063 129.574 26.0213 129.626C25.8173 129.881 25.6099 130.134 25.3991 130.385C25.3562 130.436 25.3125 130.487 25.2693 130.538C25.0738 130.768 24.8756 130.996 24.6744 131.222C24.6447 131.256 24.6156 131.289 24.5858 131.323C24.3646 131.57 24.1397 131.814 23.9109 132.056C23.8593 132.111 23.8073 132.166 23.7552 132.22C23.5224 132.465 23.2871 132.708 23.0468 132.948C23.0369 132.958 23.0266 132.968 23.0167 132.977C22.7833 133.21 22.546 133.441 22.3049 133.669C22.2507 133.721 22.1966 133.772 22.1421 133.824C21.8967 134.055 21.6478 134.284 21.3953 134.511C21.3528 134.549 21.3094 134.587 21.2666 134.625C21.0363 134.83 20.8028 135.034 20.5663 135.236C20.5184 135.277 20.471 135.318 20.4229 135.359C20.1611 135.58 19.8954 135.8 19.6258 136.018C19.567 136.066 19.5077 136.113 19.4485 136.161C19.1897 136.368 18.9276 136.574 18.6622 136.779C18.639 136.797 18.6162 136.815 18.5928 136.833C18.3101 137.049 18.0229 137.264 17.7314 137.476C17.6653 137.525 17.599 137.573 17.5325 137.621C17.2408 137.833 16.9455 138.043 16.6464 138.251C16.6146 138.273 16.582 138.295 16.55 138.317C16.2704 138.511 15.9871 138.703 15.7 138.893C15.6357 138.936 15.5717 138.979 15.507 139.021C15.2001 139.224 14.8892 139.424 14.5743 139.624C14.5128 139.663 14.4504 139.701 14.3886 139.74C14.0996 139.921 13.8073 140.101 13.5116 140.28C13.462 140.31 13.4131 140.341 13.3633 140.371C13.0363 140.567 12.7049 140.762 12.369 140.956C12.2937 141 12.2182 141.043 12.1424 141.086C11.7982 141.284 11.4512 141.48 11.0981 141.674C10.9021 141.788 10.6867 141.863 10.4629 141.897C10.3784 141.909 10.2931 141.914 10.2078 141.911C10.1654 141.909 10.123 141.906 10.0808 141.9L7.27515 141.543C7.62981 141.58 7.98694 141.501 8.29252 141.317Z" fill="url(#paint53_linear_18934_6823)"/>
<mask id="mask14_18934_6823" style="mask-type:luminance" maskUnits="userSpaceOnUse" x="7" y="93" width="32" height="49">
<path fill-rule="evenodd" clip-rule="evenodd" d="M8.29252 141.317C8.6456 141.123 8.99262 140.926 9.3368 140.729C9.41245 140.686 9.48797 140.642 9.56336 140.599C9.89879 140.405 10.2302 140.21 10.5577 140.013C10.6075 139.983 10.6564 139.953 10.706 139.923C11.0021 139.744 11.2946 139.564 11.5836 139.382C11.6451 139.344 11.7071 139.305 11.7682 139.267C12.0833 139.067 12.3942 138.867 12.7009 138.664C12.766 138.621 12.8305 138.578 12.8953 138.535C13.1812 138.345 13.4638 138.154 13.743 137.961C13.7756 137.938 13.8088 137.916 13.8412 137.894C14.141 137.685 14.4363 137.475 14.7272 137.264C14.7936 137.216 14.8596 137.167 14.9255 137.119C15.2165 136.906 15.5039 136.691 15.7876 136.475C15.8104 136.457 15.8326 136.44 15.8554 136.422C16.1219 136.217 16.3846 136.011 16.6436 135.803C16.7023 135.756 16.7613 135.709 16.8197 135.661C17.0894 135.443 17.3554 135.223 17.6177 135.001C17.6655 134.96 17.7125 134.92 17.76 134.879C17.9968 134.677 18.2305 134.473 18.4611 134.267C18.5038 134.229 18.5472 134.192 18.5897 134.153C18.8424 133.927 19.0912 133.698 19.3362 133.467C19.3908 133.415 19.4451 133.363 19.4994 133.312C19.7405 133.082 19.9784 132.851 20.213 132.618C20.2221 132.609 20.2315 132.6 20.2406 132.591C20.4811 132.351 20.7166 132.108 20.9496 131.863C21.0016 131.808 21.0535 131.753 21.1053 131.699C21.3337 131.456 21.5587 131.212 21.7804 130.965C21.8099 130.932 21.8387 130.899 21.8681 130.866C22.0698 130.639 22.2685 130.41 22.4642 130.18C22.5072 130.129 22.5505 130.079 22.5932 130.028C22.8041 129.777 23.0116 129.524 23.2157 129.268C23.2573 129.216 23.2982 129.164 23.3396 129.112C23.5273 128.874 23.7123 128.635 23.8944 128.393C23.9197 128.36 23.9454 128.327 23.9706 128.293C24.1677 128.03 24.3612 127.763 24.5511 127.495C24.5942 127.434 24.6371 127.373 24.6798 127.312C24.8707 127.039 25.0586 126.764 25.2435 126.487C25.2524 126.474 25.2609 126.46 25.2698 126.447C25.4471 126.179 25.6211 125.908 25.7917 125.634C25.8304 125.572 25.8693 125.511 25.9077 125.449C26.0124 125.28 26.1139 125.108 26.2163 124.937C26.3172 124.768 26.4187 124.599 26.5174 124.429C26.6103 124.268 26.7006 124.106 26.7914 123.943C26.8878 123.771 26.9845 123.6 27.0787 123.426C27.1677 123.261 27.2543 123.095 27.3414 122.929C27.4334 122.753 27.5258 122.578 27.6157 122.4C27.7007 122.232 27.7834 122.062 27.8665 121.892C27.9544 121.713 28.0425 121.533 28.1284 121.352C28.2369 121.122 28.3436 120.891 28.4486 120.657C28.4876 120.571 28.5275 120.486 28.566 120.399C28.7117 120.071 28.8542 119.74 28.9936 119.405C29.0227 119.335 29.0504 119.264 29.0792 119.194C29.1889 118.926 29.2968 118.657 29.4028 118.385C29.4483 118.268 29.4928 118.15 29.5376 118.032C29.6274 117.796 29.7158 117.559 29.8028 117.319C29.844 117.206 29.8849 117.092 29.9256 116.978C30.0212 116.709 30.1149 116.438 30.2067 116.164C30.2341 116.083 30.2623 116.002 30.2893 115.921C30.4061 115.568 30.5201 115.212 30.6311 114.852C30.658 114.765 30.6837 114.676 30.7102 114.589C30.7974 114.302 30.8829 114.013 30.9667 113.721C30.9929 113.63 31.0189 113.538 31.0448 113.446C31.1469 113.084 31.2473 112.719 31.3442 112.349L35.517 96.4004C35.5336 96.3368 35.5484 96.273 35.5623 96.2092C35.5829 96.1146 35.6002 96.0199 35.6149 95.9253C35.618 95.9055 35.6206 95.8858 35.6234 95.866C35.6395 95.7536 35.6524 95.6414 35.6605 95.5304C35.6617 95.5144 35.6621 95.4988 35.6631 95.4829C35.6675 95.4131 35.6703 95.3438 35.6716 95.2751C35.6721 95.2498 35.6723 95.2246 35.6723 95.1995C35.6725 95.133 35.6712 95.0672 35.6684 95.0021C35.6677 94.9838 35.6675 94.9653 35.6665 94.9471C35.6634 94.8906 35.6588 94.835 35.6537 94.7798C35.6523 94.7657 35.6516 94.7512 35.6501 94.7371C35.6429 94.6682 35.634 94.6006 35.6234 94.5342C35.6206 94.5162 35.6168 94.499 35.6137 94.4812C35.6054 94.4334 35.5968 94.3859 35.5868 94.3397C35.5817 94.316 35.5756 94.2931 35.57 94.2698C35.5606 94.2309 35.5511 94.1921 35.5405 94.1545C35.5348 94.1339 35.5283 94.114 35.5222 94.0939C35.5068 94.0434 35.4903 93.9943 35.4726 93.9467C35.4658 93.9282 35.4591 93.9096 35.452 93.8916C35.4274 93.8297 35.4014 93.7695 35.3729 93.7132C35.3506 93.6691 35.327 93.6269 35.3023 93.5866C35.2946 93.5739 35.2862 93.5624 35.2782 93.5501C35.2583 93.5194 35.2384 93.4886 35.2171 93.4603L38.0227 93.8177C38.0283 93.8252 38.0339 93.8327 38.0394 93.8403C38.0549 93.8617 38.0693 93.8851 38.0841 93.9079C38.0919 93.92 38.1002 93.9313 38.1079 93.9438C38.1324 93.9841 38.156 94.0259 38.1782 94.0698L38.1786 94.0706C38.2071 94.127 38.233 94.187 38.2576 94.2489C38.2648 94.267 38.2715 94.2857 38.2783 94.3042C38.296 94.3518 38.3125 94.4009 38.3279 94.4513C38.3316 94.4635 38.3362 94.4745 38.3398 94.4869C38.3422 94.4949 38.3439 94.5037 38.3462 94.5118C38.3567 94.5493 38.3662 94.588 38.3755 94.6268C38.3812 94.6503 38.3873 94.6734 38.3925 94.6974C38.4024 94.7433 38.411 94.7904 38.4192 94.8378C38.4224 94.8559 38.4262 94.8733 38.4291 94.8916C38.4396 94.9579 38.4485 95.0255 38.4558 95.0943C38.4573 95.1092 38.4581 95.1246 38.4595 95.1396C38.4646 95.194 38.4691 95.2486 38.4722 95.3043C38.4724 95.3094 38.4731 95.3143 38.4733 95.3195C38.474 95.3328 38.4736 95.3468 38.4741 95.3602C38.4768 95.425 38.4781 95.4904 38.478 95.5565C38.4779 95.5819 38.4777 95.6072 38.4772 95.6328C38.4759 95.7014 38.4731 95.7704 38.4688 95.84C38.4679 95.8529 38.4681 95.8656 38.4672 95.8785C38.4669 95.8816 38.4664 95.8847 38.4662 95.8877C38.4581 95.9988 38.4452 96.1109 38.4291 96.2234C38.4275 96.2345 38.4271 96.2454 38.4254 96.2565C38.4241 96.2652 38.4219 96.274 38.4205 96.2827C38.4058 96.3774 38.3885 96.4721 38.3679 96.5667C38.3669 96.5714 38.3664 96.576 38.3653 96.5806C38.3523 96.6398 38.338 96.6988 38.3226 96.7578L34.1498 112.706C34.053 113.076 33.9525 113.441 33.8504 113.804C33.8246 113.896 33.7986 113.987 33.7724 114.078C33.7458 114.171 33.7201 114.265 33.6931 114.358C33.6353 114.556 33.5752 114.751 33.5157 114.947C33.4893 115.034 33.4636 115.122 33.4368 115.209C33.3257 115.569 33.2118 115.925 33.0949 116.278C33.068 116.36 33.0399 116.44 33.0126 116.521C32.9205 116.794 32.8267 117.066 32.7312 117.336C32.6907 117.45 32.6499 117.563 32.6086 117.676C32.5703 117.782 32.5332 117.889 32.4943 117.994C32.445 118.127 32.3934 118.258 32.3432 118.39C32.2984 118.508 32.254 118.626 32.2085 118.743C32.1027 119.014 31.9949 119.284 31.8849 119.551C31.8561 119.621 31.8284 119.692 31.7993 119.762C31.6601 120.097 31.5176 120.428 31.3719 120.756C31.3331 120.843 31.2927 120.93 31.2535 121.017C31.1726 121.196 31.0924 121.376 31.0096 121.553C30.985 121.605 30.9589 121.656 30.9342 121.709C30.8482 121.891 30.76 122.07 30.6719 122.25C30.589 122.42 30.5063 122.59 30.4214 122.757C30.3313 122.935 30.2388 123.111 30.1465 123.287C30.0597 123.453 29.9734 123.619 29.8847 123.782C29.7902 123.957 29.6932 124.129 29.5966 124.302C29.5059 124.463 29.4157 124.626 29.3231 124.786C29.2244 124.957 29.1229 125.125 29.0219 125.294C28.9505 125.413 28.8815 125.535 28.8089 125.653C28.7775 125.704 28.745 125.755 28.7133 125.806C28.6749 125.868 28.6361 125.93 28.5974 125.991C28.4264 126.264 28.2527 126.535 28.0762 126.803C28.067 126.817 28.0581 126.831 28.0489 126.845C27.865 127.122 27.6773 127.397 27.4859 127.668C27.4429 127.73 27.3997 127.791 27.3564 127.852C27.1661 128.121 26.9727 128.387 26.7762 128.65C26.751 128.684 26.7252 128.717 26.6999 128.751C26.5181 128.992 26.3333 129.232 26.1454 129.469C26.104 129.521 26.063 129.574 26.0213 129.626C25.8173 129.881 25.6099 130.134 25.3991 130.385C25.3562 130.436 25.3125 130.487 25.2693 130.538C25.0738 130.768 24.8756 130.996 24.6744 131.222C24.6447 131.256 24.6156 131.289 24.5858 131.323C24.3646 131.57 24.1397 131.814 23.9109 132.056C23.8593 132.111 23.8073 132.166 23.7552 132.22C23.5224 132.465 23.2871 132.708 23.0468 132.948C23.0369 132.958 23.0266 132.968 23.0167 132.977C22.7833 133.21 22.546 133.441 22.3049 133.669C22.2507 133.721 22.1966 133.772 22.1421 133.824C21.8967 134.055 21.6478 134.284 21.3953 134.511C21.3528 134.549 21.3094 134.587 21.2666 134.625C21.0363 134.83 20.8028 135.034 20.5663 135.236C20.5184 135.277 20.471 135.318 20.4229 135.359C20.1611 135.58 19.8954 135.8 19.6258 136.018C19.567 136.066 19.5077 136.113 19.4485 136.161C19.1897 136.368 18.9276 136.574 18.6622 136.779C18.639 136.797 18.6162 136.815 18.5928 136.833C18.3101 137.049 18.0229 137.264 17.7314 137.476C17.6653 137.525 17.599 137.573 17.5325 137.621C17.2408 137.833 16.9455 138.043 16.6464 138.251C16.6146 138.273 16.582 138.295 16.55 138.317C16.2704 138.511 15.9871 138.703 15.7 138.893C15.6357 138.936 15.5717 138.979 15.507 139.021C15.2001 139.224 14.8892 139.424 14.5743 139.624C14.5128 139.663 14.4504 139.701 14.3886 139.74C14.0996 139.921 13.8073 140.101 13.5116 140.28C13.462 140.31 13.4131 140.341 13.3633 140.371C13.0363 140.567 12.7049 140.762 12.369 140.956C12.2937 141 12.2182 141.043 12.1424 141.086C11.7982 141.284 11.4512 141.48 11.0981 141.674C10.9021 141.788 10.6867 141.863 10.4629 141.897C10.3784 141.909 10.2931 141.914 10.2078 141.911C10.1654 141.909 10.123 141.906 10.0808 141.9L7.27515 141.543C7.62981 141.58 7.98694 141.501 8.29252 141.317Z" fill="white"/>
</mask>
<g mask="url(#mask14_18934_6823)">
<path d="M40.592 98.3789C24.4145 149.011 -6.76831 141.554 -6.76831 141.554L20.8976 150.182L42.7021 126.05" fill="url(#paint54_linear_18934_6823)"/>
</g>
<path d="M24.4837 73.1621C23.9091 72.7972 23.2783 72.8515 22.689 73.2404L22.5117 73.3791C22.4469 73.4296 16.0211 78.4418 8.93369 76.366L7.70847 76.0081C7.10821 75.935 6.46417 76.6211 6.16579 77.7615L1.99296 93.7097C-1.49461 107.039 -0.450122 120.748 5.48348 139.551C5.74486 140.363 6.13789 140.985 6.65241 141.312C7.17799 141.646 7.74812 141.622 8.29256 141.317C20.9633 134.337 27.8583 125.671 31.3442 112.348L35.5171 96.4002C35.8138 95.2661 35.6744 94.0659 35.2172 93.4601L34.1377 92.3619C28.1651 86.3497 25.8605 75.7661 25.809 75.5261C25.5377 74.3541 25.0978 73.552 24.4837 73.1621Z" fill="url(#paint55_linear_18934_6823)"/>
<mask id="mask15_18934_6823" style="mask-type:luminance" maskUnits="userSpaceOnUse" x="0" y="72" width="36" height="70">
<path fill-rule="evenodd" clip-rule="evenodd" d="M24.4837 73.1621C23.9091 72.7972 23.2783 72.8515 22.689 73.2404L22.5117 73.3791C22.4469 73.4296 16.0211 78.4418 8.93369 76.366L7.70847 76.0081C7.10821 75.935 6.46417 76.6211 6.16579 77.7615L1.99296 93.7097C-1.49461 107.039 -0.450122 120.748 5.48348 139.551C5.74486 140.363 6.13789 140.985 6.65241 141.312C7.17799 141.646 7.74812 141.622 8.29256 141.317C20.9633 134.337 27.8583 125.671 31.3442 112.348L35.5171 96.4002C35.8138 95.2661 35.6744 94.0659 35.2172 93.4601L34.1377 92.3619C28.1651 86.3497 25.8605 75.7661 25.809 75.5261C25.5377 74.3541 25.0978 73.552 24.4837 73.1621Z" fill="white"/>
</mask>
<g mask="url(#mask15_18934_6823)">
<path d="M35.6735 88.3339C38.702 126.94 0 143.622 0 143.622L34.5567 145.965L49.5016 100.23L38.4782 80.8324" fill="url(#paint56_linear_18934_6823)"/>
</g>
<path d="M22.2223 79.8065C21.772 79.5206 21.2777 79.5632 20.8158 79.8679L20.6769 79.9766C20.6261 80.0162 15.5906 83.944 10.0365 82.3173L9.07638 82.0368C8.60599 81.9796 8.10128 82.5172 7.86745 83.4109L4.59743 95.9086C1.8644 106.354 2.68289 117.097 7.33277 131.832C7.53759 132.468 7.84558 132.956 8.24879 133.212C8.66066 133.473 9.10744 133.455 9.53409 133.216C19.4635 127.746 24.8667 120.955 27.5985 110.515L30.8685 98.0171C31.101 97.1283 30.9917 96.1878 30.6335 95.7131L29.7876 94.8525C25.1072 90.141 23.3012 81.8472 23.2608 81.6591C23.0482 80.7407 22.7035 80.1121 22.2223 79.8065Z" fill="url(#paint57_linear_18934_6823)"/>
<mask id="mask16_18934_6823" style="mask-type:luminance" maskUnits="userSpaceOnUse" x="3" y="79" width="28" height="55">
<path fill-rule="evenodd" clip-rule="evenodd" d="M22.2223 79.8067C21.772 79.5207 21.2777 79.5633 20.8158 79.868L20.6769 79.9767C20.6261 80.0163 15.5906 83.9441 10.0365 82.3175L9.07638 82.0369C8.60599 81.9797 8.10128 82.5174 7.86745 83.411L4.59743 95.9088C1.8644 106.354 2.68289 117.097 7.33277 131.833C7.53759 132.469 7.84558 132.956 8.24879 133.212C8.66066 133.474 9.10744 133.455 9.53409 133.216C19.4635 127.746 24.8667 120.955 27.5985 110.515L30.8685 98.0172C31.101 97.1284 30.9917 96.188 30.6335 95.7132L29.7876 94.8526C25.1072 90.1411 23.3012 81.8473 23.2608 81.6592C23.0482 80.7408 22.7035 80.1122 22.2223 79.8067Z" fill="white"/>
</mask>
<g mask="url(#mask16_18934_6823)">
<path d="M44.4069 79.614C44.4069 79.614 30.1565 70.3488 25.8793 75.8334C7.27533 99.6885 9.74555 122.997 8.24898 133.212C6.75242 143.427 37.1927 119.842 37.1927 119.842L37.5445 90.9068" fill="url(#paint58_linear_18934_6823)"/>
</g>
<path d="M10.9452 97.2254L9.62671 97.0645C9.67918 97.0712 9.72951 97.0897 9.77407 97.1185L11.0925 97.2795C11.048 97.2507 10.9976 97.2322 10.9452 97.2254Z" fill="url(#paint59_linear_18934_6823)"/>
<mask id="mask17_18934_6823" style="mask-type:luminance" maskUnits="userSpaceOnUse" x="9" y="97" width="3" height="1">
<path fill-rule="evenodd" clip-rule="evenodd" d="M10.9452 97.2254L9.62671 97.0645C9.67918 97.0712 9.72951 97.0897 9.77407 97.1185L11.0925 97.2795C11.048 97.2507 10.9976 97.2322 10.9452 97.2254Z" fill="white"/>
</mask>
<g mask="url(#mask17_18934_6823)">
<path d="M9.77421 97.1185L11.0927 97.2795C11.0716 97.2661 11.0494 97.2548 11.0262 97.2458L9.70776 97.0848C9.73093 97.0939 9.75319 97.1051 9.77421 97.1185Z" fill="url(#paint60_linear_18934_6823)"/>
<path d="M9.70761 97.0848L11.0261 97.2458C11 97.2357 10.9729 97.2289 10.9452 97.2254L9.62671 97.0645C9.6544 97.0679 9.68157 97.0747 9.70761 97.0848Z" fill="url(#paint61_linear_18934_6823)"/>
</g>
<path d="M12.383 98.765L13.7014 98.926L11.0926 97.2794L9.77417 97.1184L12.383 98.765Z" fill="url(#paint62_linear_18934_6823)"/>
<path d="M15.7259 92.9825L14.4075 92.8215C14.4599 92.8283 14.5103 92.8468 14.5548 92.8756L15.8733 93.0365C15.8287 93.0077 15.7784 92.9893 15.7259 92.9825Z" fill="url(#paint63_linear_18934_6823)"/>
<mask id="mask18_18934_6823" style="mask-type:luminance" maskUnits="userSpaceOnUse" x="14" y="92" width="2" height="2">
<path fill-rule="evenodd" clip-rule="evenodd" d="M15.7259 92.9825L14.4075 92.8215C14.4599 92.8283 14.5103 92.8468 14.5548 92.8756L15.8733 93.0365C15.8287 93.0077 15.7784 92.9893 15.7259 92.9825Z" fill="white"/>
</mask>
<g mask="url(#mask18_18934_6823)">
<path d="M14.5547 92.8756L15.8732 93.0365C15.8522 93.0232 15.8299 93.0119 15.8067 93.0029L14.4883 92.8419C14.5115 92.8509 14.5337 92.8622 14.5547 92.8756" fill="url(#paint64_linear_18934_6823)"/>
<path d="M14.4884 92.8419L15.8068 93.0029C15.7808 92.9928 15.7536 92.9859 15.7259 92.9825L14.4075 92.8215C14.4352 92.8249 14.4623 92.8318 14.4884 92.8419Z" fill="url(#paint65_linear_18934_6823)"/>
</g>
<path d="M11.9292 112.96L13.2477 113.121C13.5256 113.155 13.8206 112.832 13.9547 112.31L12.6362 112.149C12.5022 112.671 12.2071 112.994 11.9292 112.96Z" fill="url(#paint66_linear_18934_6823)"/>
<mask id="mask19_18934_6823" style="mask-type:luminance" maskUnits="userSpaceOnUse" x="11" y="112" width="3" height="2">
<path fill-rule="evenodd" clip-rule="evenodd" d="M11.9292 112.96L13.2477 113.121C13.5256 113.155 13.8206 112.832 13.9547 112.31L12.6362 112.149C12.5022 112.671 12.2071 112.994 11.9292 112.96Z" fill="white"/>
</mask>
<g mask="url(#mask19_18934_6823)">
<path d="M11.9292 112.96L13.2477 113.121C13.4339 113.144 13.6279 113.006 13.776 112.756L12.4575 112.595C12.3095 112.845 12.1155 112.983 11.9292 112.96" fill="url(#paint67_linear_18934_6823)"/>
<path d="M12.4575 112.595L13.776 112.756C13.8039 112.708 13.8291 112.659 13.8515 112.609L12.533 112.448C12.5106 112.498 12.4854 112.547 12.4575 112.595" fill="url(#paint68_linear_18934_6823)"/>
<path d="M12.533 112.448L13.8514 112.609C13.8707 112.566 13.8886 112.521 13.9053 112.473L12.5869 112.312C12.5702 112.36 12.5523 112.405 12.533 112.448Z" fill="url(#paint69_linear_18934_6823)"/>
<path d="M12.5867 112.312L13.9051 112.473C13.9204 112.43 13.9344 112.384 13.9472 112.337L12.6287 112.176C12.616 112.223 12.602 112.269 12.5867 112.312Z" fill="url(#paint70_linear_18934_6823)"/>
<path d="M12.6289 112.176L13.9474 112.337C13.9498 112.328 13.9522 112.319 13.9546 112.31L12.6361 112.149C12.6338 112.158 12.6314 112.167 12.6289 112.176Z" fill="url(#paint71_linear_18934_6823)"/>
</g>
<path d="M12.6362 112.149L13.9547 112.31L15.2728 107.178L13.9544 107.017L12.6362 112.149Z" fill="url(#paint72_linear_18934_6823)"/>
<path d="M16.5957 94.1637L17.9142 94.3247L15.8734 93.0366L14.5549 92.8756L16.5957 94.1637Z" fill="url(#paint73_linear_18934_6823)"/>
<path d="M15.5591 100.77L16.8775 100.931L18.1956 95.7988L16.8772 95.6378L15.5591 100.77Z" fill="url(#paint74_linear_18934_6823)"/>
<path d="M16.8771 95.6379L18.1955 95.7989C18.3537 95.183 18.228 94.5228 17.9142 94.3247L16.5957 94.1637C16.9095 94.3618 17.0353 95.0221 16.8771 95.6379Z" fill="url(#paint75_linear_18934_6823)"/>
<mask id="mask20_18934_6823" style="mask-type:luminance" maskUnits="userSpaceOnUse" x="16" y="94" width="3" height="2">
<path fill-rule="evenodd" clip-rule="evenodd" d="M16.8771 95.6379L18.1955 95.7989C18.3537 95.183 18.228 94.5228 17.9142 94.3247L16.5957 94.1637C16.9095 94.3618 17.0353 95.0221 16.8771 95.6379Z" fill="white"/>
</mask>
<g mask="url(#mask20_18934_6823)">
<path d="M16.8772 95.6378L18.1957 95.7988C18.2055 95.7605 18.2143 95.722 18.2219 95.6834L16.9035 95.5225C16.8958 95.561 16.887 95.5995 16.8772 95.6378Z" fill="url(#paint76_linear_18934_6823)"/>
<path d="M16.9033 95.5225L18.2218 95.6835C18.232 95.6323 18.2402 95.5811 18.2467 95.53L16.9282 95.369C16.9218 95.4201 16.9135 95.4713 16.9033 95.5225Z" fill="url(#paint77_linear_18934_6823)"/>
<path d="M16.9282 95.369L18.2467 95.53C18.2544 95.4685 18.2595 95.4074 18.262 95.347L16.9436 95.186C16.941 95.2464 16.936 95.3076 16.9282 95.369Z" fill="url(#paint78_linear_18934_6823)"/>
<path d="M16.9437 95.1861L18.2621 95.3471C18.2667 95.2422 18.263 95.1371 18.2513 95.0328L16.9329 94.8718C16.9446 94.9761 16.9482 95.0812 16.9437 95.1861Z" fill="url(#paint79_linear_18934_6823)"/>
<path d="M16.9327 94.8717L18.2512 95.0327C18.2431 94.9605 18.2302 94.8888 18.2127 94.8183L16.8943 94.6573C16.9118 94.7279 16.9246 94.7995 16.9327 94.8717Z" fill="url(#paint80_linear_18934_6823)"/>
<path d="M16.8944 94.6574L18.2129 94.8184C18.1924 94.7342 18.1629 94.6527 18.1249 94.575L16.8064 94.4141C16.8445 94.4917 16.874 94.5733 16.8944 94.6574Z" fill="url(#paint81_linear_18934_6823)"/>
<path d="M16.8062 94.4141L18.1247 94.5751C18.1051 94.5356 18.0823 94.4978 18.0565 94.4621L16.738 94.3011C16.7638 94.3368 16.7866 94.3746 16.8062 94.4141Z" fill="url(#paint82_linear_18934_6823)"/>
<path d="M16.7381 94.301L18.0565 94.462C18.0366 94.4345 18.0145 94.4088 17.9903 94.3851L16.6719 94.2241C16.6961 94.2478 16.7182 94.2735 16.7381 94.301Z" fill="url(#paint83_linear_18934_6823)"/>
<path d="M16.672 94.2245L17.9904 94.3855C17.9693 94.3648 17.9463 94.3462 17.9217 94.3298L16.6033 94.1688C16.6278 94.1852 16.6509 94.2038 16.672 94.2245Z" fill="url(#paint84_linear_18934_6823)"/>
<path d="M16.6032 94.1687L17.9217 94.3296C17.9192 94.328 17.9167 94.3264 17.9142 94.3248L16.5957 94.1638C16.5982 94.1654 16.6007 94.167 16.6032 94.1687Z" fill="url(#paint85_linear_18934_6823)"/>
</g>
<path d="M16.7097 108.717L18.0282 108.878C18.3061 108.912 18.6012 108.589 18.7352 108.067L17.4167 107.906C17.2827 108.428 16.9876 108.751 16.7097 108.717Z" fill="url(#paint86_linear_18934_6823)"/>
<mask id="mask21_18934_6823" style="mask-type:luminance" maskUnits="userSpaceOnUse" x="16" y="107" width="3" height="2">
<path fill-rule="evenodd" clip-rule="evenodd" d="M16.7097 108.717L18.0282 108.878C18.3061 108.912 18.6012 108.589 18.7352 108.067L17.4167 107.906C17.2827 108.428 16.9876 108.751 16.7097 108.717Z" fill="white"/>
</mask>
<g mask="url(#mask21_18934_6823)">
<path d="M16.7097 108.717L18.0282 108.878C18.2144 108.901 18.4084 108.763 18.5565 108.513L17.238 108.352C17.09 108.602 16.896 108.74 16.7097 108.717" fill="url(#paint87_linear_18934_6823)"/>
<path d="M17.2383 108.352L18.5567 108.513C18.5846 108.465 18.6098 108.416 18.6322 108.366L17.3138 108.205C17.2914 108.255 17.2662 108.304 17.2383 108.352" fill="url(#paint88_linear_18934_6823)"/>
<path d="M17.3135 108.205L18.6319 108.366C18.6512 108.323 18.6692 108.278 18.6858 108.23L17.3674 108.069C17.3508 108.117 17.3328 108.162 17.3135 108.205Z" fill="url(#paint89_linear_18934_6823)"/>
<path d="M17.3674 108.069L18.6859 108.23C18.7011 108.187 18.7152 108.142 18.728 108.095L17.4095 107.934C17.3968 107.981 17.3827 108.026 17.3674 108.069Z" fill="url(#paint90_linear_18934_6823)"/>
<path d="M17.4094 107.934L18.7279 108.095C18.7303 108.085 18.7328 108.076 18.7351 108.067L17.4167 107.906C17.4143 107.915 17.4119 107.924 17.4094 107.934Z" fill="url(#paint91_linear_18934_6823)"/>
</g>
<path d="M18.1671 102.416L19.4855 102.577L16.8775 100.931L15.5591 100.77L18.1671 102.416Z" fill="url(#paint92_linear_18934_6823)"/>
<path d="M17.4167 107.906L18.7353 108.067L19.7668 104.051L18.4483 103.89L17.4167 107.906Z" fill="url(#paint93_linear_18934_6823)"/>
<path d="M18.4484 103.89L19.7668 104.051C19.925 103.435 19.7993 102.775 19.4854 102.577L18.167 102.416C18.4808 102.614 18.6066 103.274 18.4484 103.89Z" fill="url(#paint94_linear_18934_6823)"/>
<mask id="mask22_18934_6823" style="mask-type:luminance" maskUnits="userSpaceOnUse" x="18" y="102" width="2" height="3">
<path fill-rule="evenodd" clip-rule="evenodd" d="M18.4484 103.89L19.7668 104.051C19.925 103.435 19.7993 102.775 19.4854 102.577L18.167 102.416C18.4808 102.614 18.6066 103.274 18.4484 103.89Z" fill="white"/>
</mask>
<g mask="url(#mask22_18934_6823)">
<path d="M18.4485 103.89L19.7669 104.051C19.7768 104.013 19.7855 103.974 19.7932 103.936L18.4747 103.775C18.4671 103.813 18.4583 103.852 18.4485 103.89Z" fill="url(#paint95_linear_18934_6823)"/>
<path d="M18.4746 103.775L19.7931 103.936C19.8032 103.884 19.8115 103.833 19.818 103.782L18.4995 103.621C18.4931 103.672 18.4848 103.723 18.4746 103.775Z" fill="url(#paint96_linear_18934_6823)"/>
<path d="M18.4995 103.621L19.818 103.782C19.8257 103.721 19.8308 103.659 19.8333 103.599L18.5148 103.438C18.5123 103.498 18.5073 103.56 18.4995 103.621Z" fill="url(#paint97_linear_18934_6823)"/>
<path d="M18.515 103.438L19.8334 103.599C19.8379 103.494 19.8343 103.389 19.8226 103.285L18.5042 103.124C18.5159 103.228 18.5195 103.333 18.515 103.438Z" fill="url(#paint98_linear_18934_6823)"/>
<path d="M18.504 103.124L19.8225 103.285C19.8144 103.213 19.8015 103.141 19.784 103.07L18.4656 102.909C18.4831 102.98 18.4959 103.052 18.504 103.124Z" fill="url(#paint99_linear_18934_6823)"/>
<path d="M18.4657 102.909L19.7842 103.07C19.7637 102.986 19.7342 102.905 19.6961 102.827L18.3777 102.666C18.4158 102.744 18.4453 102.825 18.4657 102.909Z" fill="url(#paint100_linear_18934_6823)"/>
<path d="M18.3775 102.666L19.696 102.827C19.6764 102.788 19.6536 102.75 19.6278 102.714L18.3093 102.553C18.3351 102.589 18.3579 102.627 18.3775 102.666Z" fill="url(#paint101_linear_18934_6823)"/>
<path d="M18.3094 102.553L19.6278 102.714C19.6079 102.687 19.5858 102.661 19.5616 102.637L18.2432 102.476C18.2673 102.5 18.2895 102.526 18.3094 102.553Z" fill="url(#paint102_linear_18934_6823)"/>
<path d="M18.2433 102.476L19.5617 102.637C19.5406 102.617 19.5176 102.598 19.493 102.582L18.1746 102.421C18.1991 102.437 18.2221 102.456 18.2433 102.476Z" fill="url(#paint103_linear_18934_6823)"/>
<path d="M18.1742 102.421L19.4927 102.582C19.4902 102.58 19.4877 102.578 19.4852 102.577L18.1667 102.416C18.1693 102.417 18.1718 102.419 18.1742 102.421Z" fill="url(#paint104_linear_18934_6823)"/>
</g>
<path d="M14.555 92.8755C14.2411 92.6775 13.8594 93.0174 13.7012 93.6333L12.3831 98.765L9.77432 97.1184C9.46048 96.9203 9.07878 97.2603 8.92061 97.8761L7.88905 101.892C7.73087 102.508 7.8558 103.168 8.16964 103.366L10.7784 105.013L9.46032 110.144C9.30215 110.76 9.42706 111.42 9.74091 111.618L11.7817 112.906C12.0956 113.104 12.4781 112.765 12.6362 112.149L13.9544 107.017L16.5623 108.663C16.8762 108.861 17.2587 108.522 17.4169 107.906L18.4484 103.89C18.6066 103.274 18.4809 102.614 18.167 102.416L15.5591 100.77L16.8772 95.6378C17.0353 95.022 16.9096 94.3618 16.5958 94.1637L14.555 92.8755Z" fill="url(#paint105_linear_18934_6823)"/>
<defs>
<linearGradient id="paint0_linear_18934_6823" x1="52.6569" y1="76.7319" x2="25.1115" y2="66.2963" gradientUnits="userSpaceOnUse">
<stop offset="0.1023" stop-color="white"/>
<stop offset="0.8855" stop-color="#E3EBFD"/>
</linearGradient>
<linearGradient id="paint1_linear_18934_6823" x1="45.9981" y1="78.131" x2="25.2125" y2="62.3243" gradientUnits="userSpaceOnUse">
<stop offset="0.1023" stop-color="white"/>
<stop offset="0.8855" stop-color="#CDDEFD"/>
</linearGradient>
<linearGradient id="paint2_linear_18934_6823" x1="15.0641" y1="8.46006" x2="2.36335" y2="13.9055" gradientUnits="userSpaceOnUse">
<stop offset="0.1023" stop-color="#FCADBA"/>
<stop offset="0.8855" stop-color="#FBDAD9"/>
</linearGradient>
<linearGradient id="paint3_linear_18934_6823" x1="11.612" y1="21.6516" x2="10.2087" y2="29.5648" gradientUnits="userSpaceOnUse">
<stop offset="0.1011" stop-color="#FF7638"/>
<stop offset="0.8855" stop-color="#FF3929"/>
</linearGradient>
<linearGradient id="paint4_linear_18934_6823" x1="11.1742" y1="25.1067" x2="18.9167" y2="25.1067" gradientUnits="userSpaceOnUse">
<stop offset="0.1011" stop-color="#FECE63"/>
<stop offset="1" stop-color="#F55850"/>
</linearGradient>
<linearGradient id="paint5_linear_18934_6823" x1="6.734" y1="23.9836" x2="14.6498" y2="25.7277" gradientUnits="userSpaceOnUse">
<stop offset="0.1023" stop-color="#FCADBA"/>
<stop offset="0.8855" stop-color="#FBDAD9"/>
</linearGradient>
<linearGradient id="paint6_linear_18934_6823" x1="12.607" y1="9.26267" x2="0.6266" y2="18.1249" gradientUnits="userSpaceOnUse">
<stop offset="0.1023" stop-color="#FCADBA"/>
<stop offset="0.8855" stop-color="#FBDAD9"/>
</linearGradient>
<linearGradient id="paint7_linear_18934_6823" x1="2.60853" y1="16.4" x2="19.155" y2="16.4" gradientUnits="userSpaceOnUse">
<stop offset="0.1011" stop-color="#FECE63"/>
<stop offset="1" stop-color="#F55850"/>
</linearGradient>
<linearGradient id="paint8_linear_18934_6823" x1="-5.65755" y1="12.8311" x2="-6.2486" y2="15.8677" gradientUnits="userSpaceOnUse">
<stop offset="0.1011" stop-color="#FECE63"/>
<stop offset="1" stop-color="#F55850"/>
</linearGradient>
<linearGradient id="paint9_linear_18934_6823" x1="1.13278" y1="0.0561491" x2="0.568967" y2="6.8252" gradientUnits="userSpaceOnUse">
<stop offset="0.1011" stop-color="#FECE63"/>
<stop offset="1" stop-color="#F55850"/>
</linearGradient>
<linearGradient id="paint10_linear_18934_6823" x1="49.781" y1="75.2757" x2="23.4864" y2="67.3333" gradientUnits="userSpaceOnUse">
<stop offset="0.1023" stop-color="white"/>
<stop offset="0.8855" stop-color="#E3EBFD"/>
</linearGradient>
<linearGradient id="paint11_linear_18934_6823" x1="48.4634" y1="136.711" x2="60.2124" y2="136.711" gradientUnits="userSpaceOnUse">
<stop offset="0.1023" stop-color="#FCADBA"/>
<stop offset="0.8855" stop-color="#FBDAD9"/>
</linearGradient>
<linearGradient id="paint12_linear_18934_6823" x1="53.7019" y1="130.289" x2="64.9583" y2="130.289" gradientUnits="userSpaceOnUse">
<stop offset="0.1011" stop-color="#FF7638"/>
<stop offset="0.8855" stop-color="#FF3929"/>
</linearGradient>
<linearGradient id="paint13_linear_18934_6823" x1="29.1647" y1="135.782" x2="37.6076" y2="135.782" gradientUnits="userSpaceOnUse">
<stop offset="0.1023" stop-color="#FCADBA"/>
<stop offset="0.8855" stop-color="#FBDAD9"/>
</linearGradient>
<linearGradient id="paint14_linear_18934_6823" x1="34.553" y1="130.72" x2="47.1112" y2="130.72" gradientUnits="userSpaceOnUse">
<stop offset="0.1011" stop-color="#FF7638"/>
<stop offset="0.8855" stop-color="#FF3929"/>
</linearGradient>
<linearGradient id="paint15_linear_18934_6823" x1="36.0723" y1="116.004" x2="56.8387" y2="120.49" gradientUnits="userSpaceOnUse">
<stop stop-color="#3BB9D3"/>
<stop offset="1" stop-color="#46FFD6"/>
</linearGradient>
<linearGradient id="paint16_linear_18934_6823" x1="23.1226" y1="110.464" x2="23.2836" y2="119.346" gradientUnits="userSpaceOnUse">
<stop stop-color="#3BB9D3"/>
<stop offset="1" stop-color="#46FFD6"/>
</linearGradient>
<linearGradient id="paint17_linear_18934_6823" x1="41.4088" y1="102.969" x2="71.089" y2="123.425" gradientUnits="userSpaceOnUse">
<stop stop-color="#3BB9D3"/>
<stop offset="1" stop-color="#46FFD6"/>
</linearGradient>
<linearGradient id="paint18_linear_18934_6823" x1="66.3288" y1="132.674" x2="59.8289" y2="116.134" gradientUnits="userSpaceOnUse">
<stop offset="0.0048" stop-color="#9F5BFF"/>
<stop offset="0.9986" stop-color="#7418FF"/>
</linearGradient>
<linearGradient id="paint19_linear_18934_6823" x1="48.4592" y1="112.83" x2="48.9274" y2="119.844" gradientUnits="userSpaceOnUse">
<stop stop-color="#3BB9D3"/>
<stop offset="1" stop-color="#46FFD6"/>
</linearGradient>
<linearGradient id="paint20_linear_18934_6823" x1="55.017" y1="62.9915" x2="61.1716" y2="68.3498" gradientUnits="userSpaceOnUse">
<stop offset="0.0035" stop-color="#4B8CFF"/>
<stop offset="1" stop-color="#00BEE1"/>
</linearGradient>
<linearGradient id="paint21_linear_18934_6823" x1="22.6628" y1="141.56" x2="46.8073" y2="141.56" gradientUnits="userSpaceOnUse">
<stop offset="0.1023" stop-color="#915758"/>
<stop offset="0.8855" stop-color="#2C090B"/>
</linearGradient>
<linearGradient id="paint22_linear_18934_6823" x1="52.8311" y1="141.043" x2="75.9981" y2="141.043" gradientUnits="userSpaceOnUse">
<stop offset="0.1023" stop-color="#915758"/>
<stop offset="0.8855" stop-color="#2C090B"/>
</linearGradient>
<linearGradient id="paint23_linear_18934_6823" x1="43.7494" y1="19.3705" x2="33.3054" y2="15.557" gradientUnits="userSpaceOnUse">
<stop offset="0.1023" stop-color="#FCADBA"/>
<stop offset="0.8855" stop-color="#FBDAD9"/>
</linearGradient>
<linearGradient id="paint24_linear_18934_6823" x1="20.0795" y1="14.023" x2="29.7474" y2="21.0684" gradientUnits="userSpaceOnUse">
<stop offset="0.1011" stop-color="#FF7638"/>
<stop offset="0.8855" stop-color="#FF3929"/>
</linearGradient>
<linearGradient id="paint25_linear_18934_6823" x1="17.1596" y1="8.92173" x2="30.2421" y2="25.078" gradientUnits="userSpaceOnUse">
<stop offset="0.1023" stop-color="#FCADBA"/>
<stop offset="0.8855" stop-color="#FBDAD9"/>
</linearGradient>
<linearGradient id="paint26_linear_18934_6823" x1="9.81511" y1="3.76569" x2="11.3761" y2="16.8458" gradientUnits="userSpaceOnUse">
<stop offset="0.1011" stop-color="#FF7638"/>
<stop offset="0.8855" stop-color="#FF3929"/>
</linearGradient>
<linearGradient id="paint27_linear_18934_6823" x1="23.0159" y1="16.1742" x2="38.4812" y2="16.1742" gradientUnits="userSpaceOnUse">
<stop offset="0.1023" stop-color="#915758"/>
<stop offset="0.8855" stop-color="#2C090B"/>
</linearGradient>
<linearGradient id="paint28_linear_18934_6823" x1="58.8793" y1="78.8341" x2="28.2836" y2="71.5104" gradientUnits="userSpaceOnUse">
<stop offset="0.1023" stop-color="white"/>
<stop offset="0.8855" stop-color="#E3EBFD"/>
</linearGradient>
<linearGradient id="paint29_linear_18934_6823" x1="35.8468" y1="80.079" x2="35.8945" y2="63.0101" gradientUnits="userSpaceOnUse">
<stop offset="0.1023" stop-color="white"/>
<stop offset="0.8855" stop-color="#E3EBFD"/>
</linearGradient>
<linearGradient id="paint30_linear_18934_6823" x1="74.6345" y1="82.6361" x2="43.0258" y2="78.6562" gradientUnits="userSpaceOnUse">
<stop offset="0.1023" stop-color="white"/>
<stop offset="0.8855" stop-color="#CDDEFD"/>
</linearGradient>
<linearGradient id="paint31_linear_18934_6823" x1="74.4123" y1="72.4435" x2="24.9602" y2="53.7515" gradientUnits="userSpaceOnUse">
<stop offset="0.1023" stop-color="white"/>
<stop offset="0.8855" stop-color="#E3EBFD"/>
</linearGradient>
<linearGradient id="paint32_linear_18934_6823" x1="64.334" y1="84.6423" x2="75.737" y2="51.6306" gradientUnits="userSpaceOnUse">
<stop offset="0.1023" stop-color="white"/>
<stop offset="0.8855" stop-color="#CDDEFD"/>
</linearGradient>
<linearGradient id="paint33_linear_18934_6823" x1="69.7796" y1="69.6048" x2="78.808" y2="58.6293" gradientUnits="userSpaceOnUse">
<stop offset="0.1023" stop-color="#FCADBA"/>
<stop offset="0.8855" stop-color="#FBDAD9"/>
</linearGradient>
<linearGradient id="paint34_linear_18934_6823" x1="59.3269" y1="63.3814" x2="71.7504" y2="63.3814" gradientUnits="userSpaceOnUse">
<stop offset="0.1011" stop-color="#FF7638"/>
<stop offset="0.8855" stop-color="#FF3929"/>
</linearGradient>
<linearGradient id="paint35_linear_18934_6823" x1="106.893" y1="87.3882" x2="54.5933" y2="19.3468" gradientUnits="userSpaceOnUse">
<stop offset="0.1023" stop-color="white"/>
<stop offset="0.8855" stop-color="#E3EBFD"/>
</linearGradient>
<linearGradient id="paint36_linear_18934_6823" x1="29.3666" y1="36.5462" x2="40.8074" y2="36.7181" gradientUnits="userSpaceOnUse">
<stop offset="0.0083" stop-color="#00CAFE"/>
<stop offset="1" stop-color="#0088FA"/>
</linearGradient>
<linearGradient id="paint37_linear_18934_6823" x1="38.6876" y1="35.3281" x2="32.3238" y2="33.0174" gradientUnits="userSpaceOnUse">
<stop offset="0.1011" stop-color="#FFCC02"/>
<stop offset="1" stop-color="#FFE484"/>
</linearGradient>
<linearGradient id="paint38_linear_18934_6823" x1="39.2257" y1="27.1735" x2="39.1752" y2="23.3494" gradientUnits="userSpaceOnUse">
<stop offset="0.1011" stop-color="#FFCC02"/>
<stop offset="1" stop-color="#FFE484"/>
</linearGradient>
<linearGradient id="paint39_linear_18934_6823" x1="29.4328" y1="27.6606" x2="34.8554" y2="27.7224" gradientUnits="userSpaceOnUse">
<stop offset="0.0083" stop-color="#00CAFE"/>
<stop offset="1" stop-color="#0088FA"/>
</linearGradient>
<linearGradient id="paint40_linear_18934_6823" x1="34.8488" y1="27.034" x2="40.8659" y2="27.1101" gradientUnits="userSpaceOnUse">
<stop offset="0.0083" stop-color="#00CAFE"/>
<stop offset="1" stop-color="#0088FA"/>
</linearGradient>
<linearGradient id="paint41_linear_18934_6823" x1="21.1377" y1="7.70763" x2="32.3951" y2="20.0316" gradientUnits="userSpaceOnUse">
<stop offset="0.1023" stop-color="#FCADBA"/>
<stop offset="0.8855" stop-color="#FBDAD9"/>
</linearGradient>
<linearGradient id="paint42_linear_18934_6823" x1="43.8889" y1="42.8192" x2="40.6192" y2="40.6178" gradientUnits="userSpaceOnUse">
<stop offset="0.1023" stop-color="#915758"/>
<stop offset="0.8855" stop-color="#2C090B"/>
</linearGradient>
<linearGradient id="paint43_linear_18934_6823" x1="45.3309" y1="41.8356" x2="41.5629" y2="40.195" gradientUnits="userSpaceOnUse">
<stop offset="0.0083" stop-color="#00CAFE"/>
<stop offset="1" stop-color="#0088FA"/>
</linearGradient>
<linearGradient id="paint44_linear_18934_6823" x1="43.187" y1="60.4596" x2="43.0868" y2="62.966" gradientUnits="userSpaceOnUse">
<stop offset="0.1023" stop-color="#DCDCF8"/>
<stop offset="0.8855" stop-color="#F5F6FE"/>
</linearGradient>
<linearGradient id="paint45_linear_18934_6823" x1="47.6309" y1="52.8042" x2="48.3679" y2="51.2131" gradientUnits="userSpaceOnUse">
<stop offset="0.1023" stop-color="#915A57"/>
<stop offset="0.8855" stop-color="#2C0B09"/>
</linearGradient>
<linearGradient id="paint46_linear_18934_6823" x1="58.4202" y1="75.0674" x2="58.7962" y2="66.5591" gradientUnits="userSpaceOnUse">
<stop offset="0.0083" stop-color="#009EFE"/>
<stop offset="1" stop-color="#005DFA"/>
</linearGradient>
<linearGradient id="paint47_linear_18934_6823" x1="41.3488" y1="54.023" x2="39.5154" y2="54.4047" gradientUnits="userSpaceOnUse">
<stop offset="0.1023" stop-color="#915A57"/>
<stop offset="0.8855" stop-color="#2C0B09"/>
</linearGradient>
<linearGradient id="paint48_linear_18934_6823" x1="43.9368" y1="69.2717" x2="53.5739" y2="69.2717" gradientUnits="userSpaceOnUse">
<stop offset="0.0083" stop-color="#00CAFE"/>
<stop offset="1" stop-color="#0088FA"/>
</linearGradient>
<linearGradient id="paint49_linear_18934_6823" x1="62.4385" y1="77.644" x2="60.7195" y2="61.4877" gradientUnits="userSpaceOnUse">
<stop offset="0.1023" stop-color="white"/>
<stop offset="0.8855" stop-color="#E3EBFD"/>
</linearGradient>
<linearGradient id="paint50_linear_18934_6823" x1="13.6604" y1="76.3661" x2="8.93359" y2="76.3661" gradientUnits="userSpaceOnUse">
<stop offset="0.1011" stop-color="#FFDF94"/>
<stop offset="1" stop-color="#FFA200"/>
</linearGradient>
<linearGradient id="paint51_linear_18934_6823" x1="48.3143" y1="77.124" x2="51.2267" y2="77.124" gradientUnits="userSpaceOnUse">
<stop offset="0.1011" stop-color="#FFDF94"/>
<stop offset="1" stop-color="#FFA200"/>
</linearGradient>
<linearGradient id="paint52_linear_18934_6823" x1="23.9519" y1="93.8178" x2="38.1226" y2="93.8178" gradientUnits="userSpaceOnUse">
<stop offset="0.0083" stop-color="#00CAFE"/>
<stop offset="1" stop-color="#0088FA"/>
</linearGradient>
<linearGradient id="paint53_linear_18934_6823" x1="43.8293" y1="72.0278" x2="8.39913" y2="83.2052" gradientUnits="userSpaceOnUse">
<stop offset="0.0083" stop-color="#00CAFE"/>
<stop offset="1" stop-color="#0088FA"/>
</linearGradient>
<linearGradient id="paint54_linear_18934_6823" x1="-9.86615" y1="123.073" x2="28.8848" y2="149.954" gradientUnits="userSpaceOnUse">
<stop offset="0.0083" stop-color="#00CAFE"/>
<stop offset="1" stop-color="#0088FA"/>
</linearGradient>
<linearGradient id="paint55_linear_18934_6823" x1="42.825" y1="155.416" x2="30.0114" y2="69.2914" gradientUnits="userSpaceOnUse">
<stop offset="0.1023" stop-color="#DCDFF8"/>
<stop offset="0.8855" stop-color="#F5F7FE"/>
</linearGradient>
<linearGradient id="paint56_linear_18934_6823" x1="27.1412" y1="90.3092" x2="7.7137" y2="130.636" gradientUnits="userSpaceOnUse">
<stop offset="0.1023" stop-color="#DCDFF8"/>
<stop offset="0.8855" stop-color="#F5F7FE"/>
</linearGradient>
<linearGradient id="paint57_linear_18934_6823" x1="45.616" y1="48.8469" x2="3.67505" y2="76.8887" gradientUnits="userSpaceOnUse">
<stop offset="0.0083" stop-color="#00CAFE"/>
<stop offset="1" stop-color="#0088FA"/>
</linearGradient>
<linearGradient id="paint58_linear_18934_6823" x1="18.442" y1="100.84" x2="31.4901" y2="104.12" gradientUnits="userSpaceOnUse">
<stop offset="0.0083" stop-color="#00CAFE"/>
<stop offset="1" stop-color="#0088FA"/>
</linearGradient>
<linearGradient id="paint59_linear_18934_6823" x1="64.8345" y1="106.457" x2="64.6441" y2="92.1658" gradientUnits="userSpaceOnUse">
<stop offset="0.1114" stop-color="#B7DBFB"/>
<stop offset="0.8855" stop-color="#D6E8FA"/>
</linearGradient>
<linearGradient id="paint60_linear_18934_6823" x1="95.7093" y1="107.702" x2="95.8839" y2="93.4202" gradientUnits="userSpaceOnUse">
<stop offset="0.1114" stop-color="#B7DBFB"/>
<stop offset="0.8855" stop-color="#D6E8FA"/>
</linearGradient>
<linearGradient id="paint61_linear_18934_6823" x1="100.001" y1="107.68" x2="100.15" y2="93.4136" gradientUnits="userSpaceOnUse">
<stop offset="0.1114" stop-color="#B7DBFB"/>
<stop offset="0.8855" stop-color="#D6E8FA"/>
</linearGradient>
<linearGradient id="paint62_linear_18934_6823" x1="60.0832" y1="108.735" x2="62.06" y2="93.6653" gradientUnits="userSpaceOnUse">
<stop offset="0.1114" stop-color="#B7DBFB"/>
<stop offset="0.8855" stop-color="#D6E8FA"/>
</linearGradient>
<linearGradient id="paint63_linear_18934_6823" x1="88.2957" y1="104.38" x2="88.4861" y2="90.0892" gradientUnits="userSpaceOnUse">
<stop offset="0.1114" stop-color="#B7DBFB"/>
<stop offset="0.8855" stop-color="#D6E8FA"/>
</linearGradient>
<linearGradient id="paint64_linear_18934_6823" x1="90.3828" y1="104.338" x2="90.5575" y2="90.0559" gradientUnits="userSpaceOnUse">
<stop offset="0.1114" stop-color="#B7DBFB"/>
<stop offset="0.8855" stop-color="#D6E8FA"/>
</linearGradient>
<linearGradient id="paint65_linear_18934_6823" x1="94.6786" y1="104.316" x2="94.827" y2="90.0492" gradientUnits="userSpaceOnUse">
<stop offset="0.1114" stop-color="#B7DBFB"/>
<stop offset="0.8855" stop-color="#D6E8FA"/>
</linearGradient>
<linearGradient id="paint66_linear_18934_6823" x1="65.0516" y1="112.389" x2="67.2205" y2="97.2646" gradientUnits="userSpaceOnUse">
<stop offset="0.1114" stop-color="#B7DBFB"/>
<stop offset="0.8855" stop-color="#D6E8FA"/>
</linearGradient>
<linearGradient id="paint67_linear_18934_6823" x1="75.2325" y1="111.638" x2="75.9735" y2="97.0524" gradientUnits="userSpaceOnUse">
<stop offset="0.1114" stop-color="#B7DBFB"/>
<stop offset="0.8855" stop-color="#D6E8FA"/>
</linearGradient>
<linearGradient id="paint68_linear_18934_6823" x1="82.2705" y1="111.14" x2="82.7058" y2="96.7114" gradientUnits="userSpaceOnUse">
<stop offset="0.1114" stop-color="#B7DBFB"/>
<stop offset="0.8855" stop-color="#D6E8FA"/>
</linearGradient>
<linearGradient id="paint69_linear_18934_6823" x1="82.823" y1="111.051" x2="83.2405" y2="96.6327" gradientUnits="userSpaceOnUse">
<stop offset="0.1114" stop-color="#B7DBFB"/>
<stop offset="0.8855" stop-color="#D6E8FA"/>
</linearGradient>
<linearGradient id="paint70_linear_18934_6823" x1="82.4376" y1="111" x2="82.8628" y2="96.5767" gradientUnits="userSpaceOnUse">
<stop offset="0.1114" stop-color="#B7DBFB"/>
<stop offset="0.8855" stop-color="#D6E8FA"/>
</linearGradient>
<linearGradient id="paint71_linear_18934_6823" x1="99.7745" y1="110.632" x2="99.9531" y2="96.3473" gradientUnits="userSpaceOnUse">
<stop offset="0.1114" stop-color="#B7DBFB"/>
<stop offset="0.8855" stop-color="#D6E8FA"/>
</linearGradient>
<linearGradient id="paint72_linear_18934_6823" x1="51.8019" y1="117.793" x2="64.2613" y2="112.801" gradientUnits="userSpaceOnUse">
<stop offset="0.1114" stop-color="#B7DBFB"/>
<stop offset="0.8855" stop-color="#D6E8FA"/>
</linearGradient>
<linearGradient id="paint73_linear_18934_6823" x1="55.9141" y1="105.322" x2="57.6414" y2="90.3326" gradientUnits="userSpaceOnUse">
<stop offset="0.1114" stop-color="#B7DBFB"/>
<stop offset="0.8855" stop-color="#D6E8FA"/>
</linearGradient>
<linearGradient id="paint74_linear_18934_6823" x1="44.6362" y1="113.266" x2="57.0955" y2="108.273" gradientUnits="userSpaceOnUse">
<stop offset="0.1114" stop-color="#B7DBFB"/>
<stop offset="0.8855" stop-color="#D6E8FA"/>
</linearGradient>
<linearGradient id="paint75_linear_18934_6823" x1="46.4723" y1="107.579" x2="54.9974" y2="93.2507" gradientUnits="userSpaceOnUse">
<stop offset="0.1114" stop-color="#B7DBFB"/>
<stop offset="0.8855" stop-color="#D6E8FA"/>
</linearGradient>
<linearGradient id="paint76_linear_18934_6823" x1="73.9464" y1="104.313" x2="74.3229" y2="89.9162" gradientUnits="userSpaceOnUse">
<stop offset="0.1114" stop-color="#B7DBFB"/>
<stop offset="0.8855" stop-color="#D6E8FA"/>
</linearGradient>
<linearGradient id="paint77_linear_18934_6823" x1="69.6551" y1="104.389" x2="70.1458" y2="89.9308" gradientUnits="userSpaceOnUse">
<stop offset="0.1114" stop-color="#B7DBFB"/>
<stop offset="0.8855" stop-color="#D6E8FA"/>
</linearGradient>
<linearGradient id="paint78_linear_18934_6823" x1="66.7744" y1="104.437" x2="67.3721" y2="89.9231" gradientUnits="userSpaceOnUse">
<stop offset="0.1114" stop-color="#B7DBFB"/>
<stop offset="0.8855" stop-color="#D6E8FA"/>
</linearGradient>
<linearGradient id="paint79_linear_18934_6823" x1="59.0273" y1="104.801" x2="60.1939" y2="90.0235" gradientUnits="userSpaceOnUse">
<stop offset="0.1114" stop-color="#B7DBFB"/>
<stop offset="0.8855" stop-color="#D6E8FA"/>
</linearGradient>
<linearGradient id="paint80_linear_18934_6823" x1="64.7003" y1="104.385" x2="65.3902" y2="89.8248" gradientUnits="userSpaceOnUse">
<stop offset="0.1114" stop-color="#B7DBFB"/>
<stop offset="0.8855" stop-color="#D6E8FA"/>
</linearGradient>
<linearGradient id="paint81_linear_18934_6823" x1="63.6774" y1="104.397" x2="64.4239" y2="89.8091" gradientUnits="userSpaceOnUse">
<stop offset="0.1114" stop-color="#B7DBFB"/>
<stop offset="0.8855" stop-color="#D6E8FA"/>
</linearGradient>
<linearGradient id="paint82_linear_18934_6823" x1="74.8725" y1="103.987" x2="75.2201" y2="89.6066" gradientUnits="userSpaceOnUse">
<stop offset="0.1114" stop-color="#B7DBFB"/>
<stop offset="0.8855" stop-color="#D6E8FA"/>
</linearGradient>
<linearGradient id="paint83_linear_18934_6823" x1="80.2663" y1="103.878" x2="80.5282" y2="89.5458" gradientUnits="userSpaceOnUse">
<stop offset="0.1114" stop-color="#B7DBFB"/>
<stop offset="0.8855" stop-color="#D6E8FA"/>
</linearGradient>
<linearGradient id="paint84_linear_18934_6823" x1="84.4014" y1="103.822" x2="84.6175" y2="89.516" gradientUnits="userSpaceOnUse">
<stop offset="0.1114" stop-color="#B7DBFB"/>
<stop offset="0.8855" stop-color="#D6E8FA"/>
</linearGradient>
<linearGradient id="paint85_linear_18934_6823" x1="95.7128" y1="103.694" x2="95.8509" y2="89.4337" gradientUnits="userSpaceOnUse">
<stop offset="0.1114" stop-color="#B7DBFB"/>
<stop offset="0.8855" stop-color="#D6E8FA"/>
</linearGradient>
<linearGradient id="paint86_linear_18934_6823" x1="59.7269" y1="109.025" x2="61.8958" y2="93.9003" gradientUnits="userSpaceOnUse">
<stop offset="0.1114" stop-color="#B7DBFB"/>
<stop offset="0.8855" stop-color="#D6E8FA"/>
</linearGradient>
<linearGradient id="paint87_linear_18934_6823" x1="69.9076" y1="108.273" x2="70.6486" y2="93.6881" gradientUnits="userSpaceOnUse">
<stop offset="0.1114" stop-color="#B7DBFB"/>
<stop offset="0.8855" stop-color="#D6E8FA"/>
</linearGradient>
<linearGradient id="paint88_linear_18934_6823" x1="76.9461" y1="107.776" x2="77.3814" y2="93.3472" gradientUnits="userSpaceOnUse">
<stop offset="0.1114" stop-color="#B7DBFB"/>
<stop offset="0.8855" stop-color="#D6E8FA"/>
</linearGradient>
<linearGradient id="paint89_linear_18934_6823" x1="77.499" y1="107.687" x2="77.9164" y2="93.2685" gradientUnits="userSpaceOnUse">
<stop offset="0.1114" stop-color="#B7DBFB"/>
<stop offset="0.8855" stop-color="#D6E8FA"/>
</linearGradient>
<linearGradient id="paint90_linear_18934_6823" x1="77.1131" y1="107.636" x2="77.5382" y2="93.2125" gradientUnits="userSpaceOnUse">
<stop offset="0.1114" stop-color="#B7DBFB"/>
<stop offset="0.8855" stop-color="#D6E8FA"/>
</linearGradient>
<linearGradient id="paint91_linear_18934_6823" x1="94.4497" y1="107.267" x2="94.6284" y2="92.983" gradientUnits="userSpaceOnUse">
<stop offset="0.1114" stop-color="#B7DBFB"/>
<stop offset="0.8855" stop-color="#D6E8FA"/>
</linearGradient>
<linearGradient id="paint92_linear_18934_6823" x1="57.552" y1="107.134" x2="59.5285" y2="92.0651" gradientUnits="userSpaceOnUse">
<stop offset="0.1114" stop-color="#B7DBFB"/>
<stop offset="0.8855" stop-color="#D6E8FA"/>
</linearGradient>
<linearGradient id="paint93_linear_18934_6823" x1="47.2853" y1="113.641" x2="59.9911" y2="107.147" gradientUnits="userSpaceOnUse">
<stop offset="0.1114" stop-color="#B7DBFB"/>
<stop offset="0.8855" stop-color="#D6E8FA"/>
</linearGradient>
<linearGradient id="paint94_linear_18934_6823" x1="49.0161" y1="109.186" x2="57.541" y2="94.8577" gradientUnits="userSpaceOnUse">
<stop offset="0.1114" stop-color="#B7DBFB"/>
<stop offset="0.8855" stop-color="#D6E8FA"/>
</linearGradient>
<linearGradient id="paint95_linear_18934_6823" x1="76.4907" y1="105.92" x2="76.8672" y2="91.5234" gradientUnits="userSpaceOnUse">
<stop offset="0.1114" stop-color="#B7DBFB"/>
<stop offset="0.8855" stop-color="#D6E8FA"/>
</linearGradient>
<linearGradient id="paint96_linear_18934_6823" x1="72.1994" y1="105.996" x2="72.6901" y2="91.538" gradientUnits="userSpaceOnUse">
<stop offset="0.1114" stop-color="#B7DBFB"/>
<stop offset="0.8855" stop-color="#D6E8FA"/>
</linearGradient>
<linearGradient id="paint97_linear_18934_6823" x1="69.3185" y1="106.044" x2="69.9162" y2="91.5303" gradientUnits="userSpaceOnUse">
<stop offset="0.1114" stop-color="#B7DBFB"/>
<stop offset="0.8855" stop-color="#D6E8FA"/>
</linearGradient>
<linearGradient id="paint98_linear_18934_6823" x1="61.5709" y1="106.408" x2="62.7375" y2="91.6306" gradientUnits="userSpaceOnUse">
<stop offset="0.1114" stop-color="#B7DBFB"/>
<stop offset="0.8855" stop-color="#D6E8FA"/>
</linearGradient>
<linearGradient id="paint99_linear_18934_6823" x1="67.2425" y1="105.992" x2="67.9324" y2="91.4328" gradientUnits="userSpaceOnUse">
<stop offset="0.1114" stop-color="#B7DBFB"/>
<stop offset="0.8855" stop-color="#D6E8FA"/>
</linearGradient>
<linearGradient id="paint100_linear_18934_6823" x1="66.2209" y1="106.004" x2="66.9673" y2="91.4163" gradientUnits="userSpaceOnUse">
<stop offset="0.1114" stop-color="#B7DBFB"/>
<stop offset="0.8855" stop-color="#D6E8FA"/>
</linearGradient>
<linearGradient id="paint101_linear_18934_6823" x1="77.4163" y1="105.594" x2="77.7638" y2="91.2138" gradientUnits="userSpaceOnUse">
<stop offset="0.1114" stop-color="#B7DBFB"/>
<stop offset="0.8855" stop-color="#D6E8FA"/>
</linearGradient>
<linearGradient id="paint102_linear_18934_6823" x1="82.8102" y1="105.486" x2="83.0721" y2="91.1531" gradientUnits="userSpaceOnUse">
<stop offset="0.1114" stop-color="#B7DBFB"/>
<stop offset="0.8855" stop-color="#D6E8FA"/>
</linearGradient>
<linearGradient id="paint103_linear_18934_6823" x1="86.9451" y1="105.429" x2="87.1612" y2="91.1231" gradientUnits="userSpaceOnUse">
<stop offset="0.1114" stop-color="#B7DBFB"/>
<stop offset="0.8855" stop-color="#D6E8FA"/>
</linearGradient>
<linearGradient id="paint104_linear_18934_6823" x1="98.2563" y1="105.301" x2="98.3944" y2="91.0407" gradientUnits="userSpaceOnUse">
<stop offset="0.1114" stop-color="#B7DBFB"/>
<stop offset="0.8855" stop-color="#D6E8FA"/>
</linearGradient>
<linearGradient id="paint105_linear_18934_6823" x1="44.1015" y1="113.968" x2="45.8564" y2="112.995" gradientUnits="userSpaceOnUse">
<stop offset="0.1114" stop-color="#B7DBFB"/>
<stop offset="0.8855" stop-color="#D6E8FA"/>
</linearGradient>
</defs>
</svg>
