<svg width="29" height="38" viewBox="0 0 29 38" fill="none" xmlns="http://www.w3.org/2000/svg">
<path d="M9.85351 29.7211V31.4743H7.94919V33.7535H9.85351V35.3314H12.1041V33.7535H13.8352V31.4743H12.1041V29.7211H9.85351Z" fill="url(#paint0_linear_18934_7499)"/>
<path fill-rule="evenodd" clip-rule="evenodd" d="M14.7008 18.5881C12.3637 18.6757 7.58562 16.6069 7.17013 7.63035C7.28555 5.20505 8.95327 0.284302 14.7008 0.00378457C16.7783 -0.0838771 21.1063 1.31871 21.7988 7.63035C21.8853 10.6401 20.0676 18.6757 14.7008 18.5881ZM10.0266 4.82516C8.78016 4.6849 8.98791 8.1563 9.24759 9.82188C8.62435 9.05045 8.22319 9.02915 8.20887 9.29591C8.90135 15.8179 12.8254 17.5069 14.7008 17.5361C20.3272 16.4841 20.9332 9.64655 20.6735 9.29591C20.4658 9.01539 20.0099 9.41279 19.8079 9.64655C20.2926 5.36866 19.4328 4.64984 18.9423 4.82516C18.3075 5.14659 16.5706 5.8245 14.7008 5.96476C12.3637 6.14009 11.5847 5.00048 10.0266 4.82516Z" fill="url(#paint1_linear_18934_7499)"/>
<path d="M20.2407 17.7114C19.202 19.4647 16.6398 23.1114 14.7008 23.6724C13.691 23.2341 11.2211 21.7263 9.42069 19.2017L13.8352 29.5458H17.4708C18.221 29.4581 19.704 29.9665 19.6348 32.7016C19.5655 35.4366 18.1632 35.8282 17.4708 35.6821H4.40021C3.70774 35.7405 2.32278 35.2262 2.32278 32.7016C2.32278 30.1769 3.59232 29.5458 4.2271 29.5458L5.35237 18.5881C3.90971 19.3186 0.868569 21.6913 0.245338 25.338C-0.377894 28.9847 0.331898 29.9548 0.764698 29.9841C0.418458 30.5393 -0.17015 32.1405 0.245338 34.1042C0.764698 36.5587 3.10182 37.8736 4.2271 37.9613C5.12732 38.0314 13.5467 37.9905 17.6439 37.9613C18.9712 38.0489 21.6257 37.4002 21.6257 34.1042V32.7016C24.2225 33.0814 29.3295 32.4386 28.9833 26.8282C28.5505 19.8153 22.8375 17.7114 20.2407 17.7114Z" fill="url(#paint2_linear_18934_7499)"/>
<defs>
<linearGradient id="paint0_linear_18934_7499" x1="14.5" y1="38" x2="14.5" y2="1.41561e-07" gradientUnits="userSpaceOnUse">
<stop stop-color="#46BEE8"/>
<stop offset="1" stop-color="#24D89D"/>
</linearGradient>
<linearGradient id="paint1_linear_18934_7499" x1="14.5" y1="38" x2="14.5" y2="1.41561e-07" gradientUnits="userSpaceOnUse">
<stop stop-color="#46BEE8"/>
<stop offset="1" stop-color="#24D89D"/>
</linearGradient>
<linearGradient id="paint2_linear_18934_7499" x1="14.5" y1="38" x2="14.5" y2="1.41561e-07" gradientUnits="userSpaceOnUse">
<stop stop-color="#46BEE8"/>
<stop offset="1" stop-color="#24D89D"/>
</linearGradient>
</defs>
</svg>
