<svg width="39" height="38" viewBox="0 0 39 38" fill="none" xmlns="http://www.w3.org/2000/svg">
<path d="M19.3301 0C8.83767 0 0.330078 8.50759 0.330078 19C0.330078 29.4924 8.83767 38 19.3301 38C29.8225 38 38.3301 29.4924 38.3301 19C38.3301 8.50759 29.8225 0 19.3301 0ZM19.3301 34.7768C10.6189 34.7768 3.55329 27.7112 3.55329 19C3.55329 15.2254 4.88075 11.7563 7.09459 9.04196L29.2881 31.2355C26.5738 33.4493 23.1046 34.7768 19.3301 34.7768ZM31.5656 28.958L9.37204 6.76451C12.0863 4.55067 15.5555 3.22321 19.3301 3.22321C28.0412 3.22321 35.1069 10.2888 35.1069 19C35.1069 22.7746 33.7794 26.2437 31.5656 28.958Z" fill="url(#paint0_linear_18934_2570)"/>
<path d="M16.5724 29.7273C16.2462 29.7273 15.9729 29.6167 15.7525 29.3956C15.5322 29.1745 15.4217 28.9013 15.4209 28.5758V23.9697H10.8148C10.4886 23.9697 10.2153 23.8592 9.99497 23.6381C9.77464 23.417 9.6641 23.1437 9.66333 22.8182V15.9091C9.66333 15.5828 9.77388 15.3095 9.99497 15.0892C10.2161 14.8689 10.4894 14.7583 10.8148 14.7576H15.4209V10.1515C15.4209 9.82525 15.5315 9.55196 15.7525 9.33164C15.9736 9.11131 16.2469 9.00077 16.5724 9H23.4815C23.8078 9 24.0815 9.11055 24.3025 9.33164C24.5236 9.55273 24.6338 9.82602 24.633 10.1515V14.7576H29.2391C29.5654 14.7576 29.839 14.8681 30.0601 15.0892C30.2812 15.3103 30.3914 15.5836 30.3906 15.9091V22.8182C30.3906 23.1444 30.2801 23.4181 30.059 23.6392C29.8379 23.8603 29.5646 23.9705 29.2391 23.9697H24.633V28.5758C24.633 28.902 24.5225 29.1757 24.3014 29.3968C24.0803 29.6179 23.807 29.728 23.4815 29.7273H16.5724ZM17.7239 27.4242H22.33V21.6667H28.0876V17.0606H22.33V11.303H17.7239V17.0606H11.9664V21.6667H17.7239V27.4242Z" fill="url(#paint1_linear_18934_2570)"/>
<defs>
<linearGradient id="paint0_linear_18934_2570" x1="19.3301" y1="38" x2="19.3301" y2="1.41561e-07" gradientUnits="userSpaceOnUse">
<stop stop-color="#46BEE8"/>
<stop offset="1" stop-color="#24D89D"/>
</linearGradient>
<linearGradient id="paint1_linear_18934_2570" x1="20.027" y1="29.7273" x2="20.027" y2="9" gradientUnits="userSpaceOnUse">
<stop stop-color="#46BEE8"/>
<stop offset="1" stop-color="#24D89D"/>
</linearGradient>
</defs>
</svg>
