<svg width="43" height="42" viewBox="0 0 43 42" fill="none" xmlns="http://www.w3.org/2000/svg">
<path d="M19.8339 9.16299V11.8496H22.7339V9.16299H25.5339V6.17781H22.7339V3.39165H19.8339V6.17781H17.1339V9.16299H19.8339Z" fill="url(#paint0_linear_18934_2952)"/>
<path fill-rule="evenodd" clip-rule="evenodd" d="M21.1339 15.3324C23.5672 15.3987 28.5739 13.979 29.1339 7.7699C29.0672 5.11644 27.3739 -0.150693 21.1339 0.00851608C18.7672 -0.124191 13.9739 1.2423 13.7339 7.7699C13.6339 9.99221 14.9739 14.6159 21.1339 15.3324ZM27.7339 7.7699C27.3339 12.785 23.1672 13.9724 21.1339 13.9393C16.6539 13.9393 15.2006 9.82636 15.0339 7.7699C15.2739 2.35674 19.2006 1.26884 21.1339 1.40153C26.0939 0.685091 27.6006 5.3486 27.7339 7.7699Z" fill="url(#paint1_linear_18934_2952)"/>
<path d="M15.4335 18.8151C12.2335 18.8151 11.1002 21.535 10.9335 22.8949V24.885V29.9598H38.9335V25.8801V24.3875C38.9335 19.9296 36.2002 18.8151 34.8335 18.8151H15.4335Z" fill="url(#paint2_linear_18934_2952)"/>
<path d="M7.2335 16.1285C7.2335 15.2329 7.7935 13.4219 10.0335 13.3423C12.2735 13.2627 12.9002 15.1666 12.9335 16.1285C12.9002 17.024 12.2735 18.8151 10.0335 18.8151C7.7935 18.8151 7.2335 17.024 7.2335 16.1285Z" fill="url(#paint3_linear_18934_2952)"/>
<path d="M10.9335 22.8949L5.1335 17.6211V14.8349C5.16683 14.1715 4.7335 12.7652 2.7335 12.4468C2.16683 12.4136 0.893496 12.7652 0.333496 14.4369V39.7114C0.533496 40.5074 1.2935 42.0597 2.7335 41.9005C4.5335 41.7015 4.7335 40.6069 5.1335 39.7114C5.4535 38.9949 5.26683 36.2287 5.1335 34.9351H37.5335V40.2089C37.6002 40.6733 38.1935 41.6816 40.0335 42C40.8002 41.8673 42.3335 41.3234 42.3335 40.2089V27.6712C42.2668 26.9415 41.4935 25.2631 38.9335 24.3875V25.8801C40.4535 26.3577 40.9668 27.4722 41.0335 27.9697V39.8109C40.9335 40.0431 40.5935 40.5273 40.0335 40.6069C39.4735 40.6865 39.0668 40.1094 38.9335 39.8109V34.9351C38.9335 33.741 38.0002 33.5088 37.5335 33.542H5.1335C4.0135 33.542 3.80016 34.4707 3.8335 34.9351V39.7114C3.7335 39.9436 3.3735 40.4278 2.7335 40.5074C2.0935 40.587 1.7335 40.0099 1.6335 39.7114V14.8349C1.70016 14.5364 2.0135 13.9393 2.7335 13.9393C3.4535 13.9393 3.76683 14.5364 3.8335 14.8349V18.2181L10.9335 24.885V22.8949Z" fill="url(#paint4_linear_18934_2952)"/>
<defs>
<linearGradient id="paint0_linear_18934_2952" x1="21.3335" y1="42" x2="21.3335" y2="1.56462e-07" gradientUnits="userSpaceOnUse">
<stop stop-color="#46BEE8"/>
<stop offset="1" stop-color="#24D89D"/>
</linearGradient>
<linearGradient id="paint1_linear_18934_2952" x1="21.3335" y1="42" x2="21.3335" y2="1.56462e-07" gradientUnits="userSpaceOnUse">
<stop stop-color="#46BEE8"/>
<stop offset="1" stop-color="#24D89D"/>
</linearGradient>
<linearGradient id="paint2_linear_18934_2952" x1="21.3335" y1="42" x2="21.3335" y2="1.56462e-07" gradientUnits="userSpaceOnUse">
<stop stop-color="#46BEE8"/>
<stop offset="1" stop-color="#24D89D"/>
</linearGradient>
<linearGradient id="paint3_linear_18934_2952" x1="21.3335" y1="42" x2="21.3335" y2="1.56462e-07" gradientUnits="userSpaceOnUse">
<stop stop-color="#46BEE8"/>
<stop offset="1" stop-color="#24D89D"/>
</linearGradient>
<linearGradient id="paint4_linear_18934_2952" x1="21.3335" y1="42" x2="21.3335" y2="1.56462e-07" gradientUnits="userSpaceOnUse">
<stop stop-color="#46BEE8"/>
<stop offset="1" stop-color="#24D89D"/>
</linearGradient>
</defs>
</svg>
