<svg width="144" height="122" viewBox="0 0 144 122" fill="none" xmlns="http://www.w3.org/2000/svg">
<g opacity="0.19">
<path opacity="0.19" d="M141.58 92.2027C151.417 56.7949 130.375 28.0913 94.5826 28.0913C58.7899 28.0913 21.7998 56.7949 11.9632 92.2027C7.22688 109.252 9.65219 124.744 17.4333 136.229H111.649C125.811 124.744 136.844 109.252 141.58 92.2027Z" fill="#057BF4"/>
</g>
<g opacity="0.35">
<rect x="22.4448" y="44.9076" width="1.72702" height="4.52073" fill="url(#paint0_linear_18934_3245)"/>
<rect x="36.189" y="80.525" width="1.72702" height="4.52073" transform="rotate(135 36.189 80.525)" fill="url(#paint1_linear_18934_3245)"/>
<rect x="42.521" y="58.3027" width="1.94746" height="5.09775" transform="rotate(70.0632 42.521 58.3027)" fill="url(#paint2_linear_18934_3245)"/>
<rect x="13.8252" y="84.0938" width="2.1182" height="5.5447" transform="rotate(-148.294 13.8252 84.0938)" fill="url(#paint3_linear_18934_3245)"/>
<rect x="41.0127" y="72.6703" width="0.941426" height="2.46432" transform="rotate(116.235 41.0127 72.6703)" fill="url(#paint4_linear_18934_3245)"/>
<rect x="35.4529" y="51.126" width="0.941426" height="2.46432" transform="rotate(37.6666 35.4529 51.126)" fill="url(#paint5_linear_18934_3245)"/>
<rect x="11.8232" y="51.1226" width="0.941426" height="2.46432" transform="rotate(-36.2059 11.8232 51.1226)" fill="url(#paint6_linear_18934_3245)"/>
<path d="M11.654 50.0946C11.7991 49.9884 11.9805 49.9442 12.1582 49.9716C12.3359 49.9991 12.4954 50.0961 12.6017 50.2412L12.6533 50.3117C12.8745 50.6139 12.8088 51.0381 12.5067 51.2593C12.2045 51.4805 11.7803 51.4149 11.5591 51.1127L11.5074 51.0422C11.4012 50.8971 11.357 50.7158 11.3845 50.5381C11.412 50.3603 11.5089 50.2008 11.654 50.0946Z" fill="url(#paint7_linear_18934_3245)"/>
<rect x="7.39746" y="75.611" width="0.941426" height="2.46432" transform="rotate(-126.915 7.39746 75.611)" fill="url(#paint8_linear_18934_3245)"/>
<rect x="3.00269" y="62.6315" width="1.94746" height="5.09776" transform="rotate(-81.6106 3.00269 62.6315)" fill="url(#paint9_linear_18934_3245)"/>
<path d="M0.347188 61.3841L0.38428 61.1326C0.576027 59.8324 1.78547 58.9339 3.08564 59.1256C4.38582 59.3174 5.28438 60.5268 5.09263 61.827L5.05554 62.0785C4.86379 63.3787 3.65435 64.2772 2.35418 64.0855C1.05401 63.8937 0.155447 62.6843 0.347195 61.3841L0.347188 61.3841Z" fill="url(#paint10_linear_18934_3245)"/>
<circle cx="23.3083" cy="65.6108" r="16.6243" fill="url(#paint11_linear_18934_3245)"/>
<mask id="mask0_18934_3245" style="mask-type:luminance" maskUnits="userSpaceOnUse" x="6" y="48" width="34" height="35">
<circle cx="23.3083" cy="65.6108" r="16.6243" fill="white"/>
</mask>
<g mask="url(#mask0_18934_3245)">
<path d="M25.9265 47.3457C48.1627 71.823 35.734 81.8639 20.6901 82.2351C5.64615 82.6062 33.3743 93.3894 33.3743 93.3894L42.309 65.3531L39.8443 47.4838" fill="url(#paint12_linear_18934_3245)"/>
</g>
<circle cx="15.4059" cy="61.6078" r="3.70959" fill="url(#paint13_linear_18934_3245)"/>
<circle cx="29.2469" cy="57.1145" r="3.70959" fill="url(#paint14_linear_18934_3245)"/>
<circle cx="27.8815" cy="74.0098" r="3.70959" fill="url(#paint15_linear_18934_3245)"/>
<circle cx="11.8983" cy="50.4283" r="1.26985" fill="url(#paint16_linear_18934_3245)"/>
<circle cx="35.9525" cy="51.2492" r="1.26985" fill="url(#paint17_linear_18934_3245)"/>
<circle cx="6.98152" cy="75.3348" r="1.26985" fill="url(#paint18_linear_18934_3245)"/>
<circle cx="41.1622" cy="73.1468" r="1.26985" fill="url(#paint19_linear_18934_3245)"/>
<circle cx="23.3084" cy="44.7275" r="2.61821" fill="url(#paint20_linear_18934_3245)"/>
<circle cx="43.4388" cy="58.8473" r="2.61821" fill="url(#paint21_linear_18934_3245)"/>
<circle cx="36.5305" cy="82.2351" r="3.09324" fill="url(#paint22_linear_18934_3245)"/>
<circle cx="12.8242" cy="83.6992" r="3.09324" fill="url(#paint23_linear_18934_3245)"/>
</g>
<path d="M76.4839 77.5781L74.2455 77.2209C61.2935 75.1525 52.6131 67.3978 52.5255 67.3195L52.2893 67.1056C52.2893 67.1043 52.2867 67.1056 52.2867 67.1056C50.4579 65.6688 47.8683 65.7264 46.1052 67.2429L45.975 67.3645C45.7811 67.5419 37.1693 75.3193 24.3617 77.2128L22.0424 77.5555C22.0424 77.5568 22.0451 77.5639 22.0424 77.5639C20.9737 77.8405 20.2272 78.8047 20.2271 79.9086V95.7707C20.2271 109.021 28.0823 120.145 46.4882 132.96C48.1429 134.127 50.3487 134.14 52.0172 132.993L52.0408 132.977C70.4632 120.153 78.3233 109.028 78.3233 95.7707V79.9086C78.3188 78.8013 77.5598 77.8398 76.4839 77.5781V77.5781Z" fill="url(#paint24_linear_18934_3245)"/>
<path d="M76.4839 80.1805L74.2455 79.8233C61.2935 77.7549 52.6131 70.0002 52.5255 69.9219L52.2893 69.708C52.2893 69.7067 52.2867 69.708 52.2867 69.708C50.4579 68.2712 47.8683 68.3288 46.1052 69.8453L45.975 69.9669C45.7811 70.1443 37.1693 77.9217 24.3617 79.8152L22.0424 80.1579C22.0424 80.1592 22.0451 80.1663 22.0424 80.1663C20.9737 80.4429 20.2272 81.4071 20.2271 82.511V98.3731C20.2271 111.623 28.0823 122.748 46.4882 135.563C48.1429 136.729 50.3487 136.742 52.0172 135.596L52.0408 135.579C70.4632 122.755 78.3233 111.63 78.3233 98.3731V82.511C78.3188 81.4037 77.5598 80.4422 76.4839 80.1805V80.1805Z" fill="url(#paint25_linear_18934_3245)"/>
<mask id="mask1_18934_3245" style="mask-type:luminance" maskUnits="userSpaceOnUse" x="20" y="68" width="59" height="69">
<path fill-rule="evenodd" clip-rule="evenodd" d="M76.4839 80.1805L74.2455 79.8233C61.2935 77.7549 52.6131 70.0002 52.5255 69.9219L52.2893 69.708C52.2893 69.7067 52.2867 69.708 52.2867 69.708C50.4579 68.2712 47.8683 68.3288 46.1052 69.8453L45.975 69.9669C45.7811 70.1443 37.1693 77.9217 24.3617 79.8152L22.0424 80.1579C22.0424 80.1592 22.0451 80.1663 22.0424 80.1663C20.9737 80.4429 20.2272 81.4071 20.2271 82.511V98.3731C20.2271 111.623 28.0823 122.748 46.4882 135.563C48.1429 136.729 50.3487 136.742 52.0172 135.596L52.0408 135.579C70.4632 122.755 78.3233 111.63 78.3233 98.3731V82.511C78.3188 81.4037 77.5598 80.4422 76.4839 80.1805V80.1805Z" fill="white"/>
</mask>
<g mask="url(#mask1_18934_3245)">
<path d="M49.2752 66.0656C22.7667 95.8951 47.2649 131.51 64.9695 135.01C82.6741 138.51 46.2144 143.039 46.2144 143.039L14.7378 135.216C14.7378 135.216 3.41513 81.1985 4.65034 79.6945C5.88554 78.1905 28.531 62.9563 28.531 62.9563L33.8835 63.7798" fill="url(#paint26_linear_18934_3245)"/>
<path opacity="0.12" d="M78.3231 93.1122C79.8604 110.169 55.9798 133.637 47.951 138.372C39.9221 143.107 66.2732 133.844 66.2732 133.844L77.1841 123.344L84.1836 99.955L82.3308 98.0128" fill="white"/>
</g>
<path d="M69.9403 85.562L68.2402 85.2907C58.403 83.7197 51.8102 77.83 51.7437 77.7705L51.5643 77.608C51.5643 77.6071 51.5622 77.608 51.5622 77.608C50.1733 76.5168 48.2065 76.5605 46.8674 77.7123L46.7685 77.8046C46.6212 77.9394 40.0805 83.8464 30.353 85.2846L28.5914 85.5448C28.5914 85.5458 28.5934 85.5512 28.5914 85.5512C27.7797 85.7613 27.2127 86.4936 27.2126 87.3321V99.3795C27.2126 109.443 33.1788 117.892 47.1583 127.625C48.415 128.511 50.0904 128.521 51.3576 127.651L51.3755 127.638C65.3675 117.898 71.3373 109.448 71.3373 99.3795V87.3321C71.3339 86.4911 70.7575 85.7608 69.9403 85.5621L69.9403 85.562Z" fill="url(#paint27_radial_18934_3245)"/>
<mask id="mask2_18934_3245" style="mask-type:luminance" maskUnits="userSpaceOnUse" x="27" y="76" width="45" height="53">
<path fill-rule="evenodd" clip-rule="evenodd" d="M69.9403 85.562L68.2402 85.2907C58.403 83.7197 51.8102 77.83 51.7437 77.7705L51.5643 77.608C51.5643 77.6071 51.5622 77.608 51.5622 77.608C50.1733 76.5168 48.2065 76.5605 46.8674 77.7123L46.7685 77.8046C46.6212 77.9394 40.0805 83.8464 30.353 85.2846L28.5914 85.5448C28.5914 85.5458 28.5934 85.5512 28.5914 85.5512C27.7797 85.7613 27.2127 86.4936 27.2126 87.3321V99.3795C27.2126 109.443 33.1788 117.892 47.1583 127.625C48.415 128.511 50.0904 128.521 51.3576 127.651L51.3755 127.638C65.3675 117.898 71.3373 109.448 71.3373 99.3795V87.3321C71.3339 86.4911 70.7575 85.7608 69.9403 85.5621L69.9403 85.562Z" fill="white"/>
</mask>
<g mask="url(#mask2_18934_3245)">
<path d="M47.6079 107.977L46.988 111.139L62.9793 129.314L78.3231 112.982L59.9484 98.179L49.275 102.557" fill="url(#paint28_linear_18934_3245)"/>
</g>
<path d="M58.6775 96.9081H52.8328V91.0633C52.8327 90.3614 52.2638 89.7925 51.5619 89.7925H46.988C46.2861 89.7925 45.7172 90.3614 45.7172 91.0633V96.9081H39.8724C39.1705 96.9081 38.6016 97.477 38.6016 98.1789V102.753C38.6016 103.455 39.1705 104.024 39.8724 104.024H45.7172V109.868C45.7172 110.57 46.2861 111.139 46.988 111.139H51.5619C52.2638 111.139 52.8327 110.57 52.8328 109.868V104.024H58.6775C59.3794 104.024 59.9483 103.455 59.9484 102.753V98.1789C59.9483 97.477 59.3794 96.9081 58.6775 96.9081Z" fill="white"/>
<mask id="mask3_18934_3245" style="mask-type:luminance" maskUnits="userSpaceOnUse" x="38" y="89" width="22" height="23">
<path fill-rule="evenodd" clip-rule="evenodd" d="M58.6775 96.9081H52.8328V91.0633C52.8327 90.3614 52.2638 89.7925 51.5619 89.7925H46.988C46.2861 89.7925 45.7172 90.3614 45.7172 91.0633V96.9081H39.8724C39.1705 96.9081 38.6016 97.477 38.6016 98.1789V102.753C38.6016 103.455 39.1705 104.024 39.8724 104.024H45.7172V109.868C45.7172 110.57 46.2861 111.139 46.988 111.139H51.5619C52.2638 111.139 52.8327 110.57 52.8328 109.868V104.024H58.6775C59.3794 104.024 59.9483 103.455 59.9484 102.753V98.1789C59.9483 97.477 59.3794 96.9081 58.6775 96.9081Z" fill="white"/>
</mask>
<g mask="url(#mask3_18934_3245)">
<path opacity="0.5" d="M52.8329 91.0634C58.6777 104.024 43.9024 105.972 43.2161 111.742C42.5299 117.511 52.686 120.531 52.686 120.531L61.1952 105.003L63.6657 93.9663L52.8329 91.0634" fill="url(#paint29_linear_18934_3245)"/>
</g>
<path opacity="0.71" d="M129.474 118.072L112.133 87.0337L111.445 85.5605V54.8419H96.2312V85.5603L95.5435 87.0337L78.202 118.072C73.9233 125.73 79.4591 135.164 88.2312 135.164H119.445C128.217 135.164 133.753 125.73 129.474 118.072Z" fill="url(#paint30_linear_18934_3245)"/>
<mask id="mask4_18934_3245" style="mask-type:luminance" maskUnits="userSpaceOnUse" x="76" y="54" width="55" height="82">
<path fill-rule="evenodd" clip-rule="evenodd" d="M129.474 118.072L112.133 87.0337L111.445 85.5605V54.8419H96.2314V85.5603L95.5437 87.0337L78.2022 118.072C73.9236 125.73 79.4593 135.164 88.2315 135.164H119.445C128.217 135.164 133.753 125.73 129.474 118.072Z" fill="white"/>
</mask>
<g mask="url(#mask4_18934_3245)">
<path opacity="0.47" d="M96.2312 66.7381C96.6638 57.6097 97.7003 58.1421 105.703 56.7269C113.705 55.3118 97.3798 55.3118 97.3798 55.3118L91.7417 55.9988" fill="url(#paint31_linear_18934_3245)"/>
</g>
<path d="M107.564 107.712C100.015 101.66 94.0441 101.727 87.0868 104.649L80.1204 117.118C76.1618 124.203 81.2834 132.931 89.3993 132.931H118.277C126.393 132.931 131.515 124.203 127.556 117.118L121.831 106.872C117.467 109.896 113.006 112.075 107.564 107.712Z" fill="url(#paint32_radial_18934_3245)"/>
<mask id="mask5_18934_3245" style="mask-type:luminance" maskUnits="userSpaceOnUse" x="78" y="102" width="51" height="31">
<path fill-rule="evenodd" clip-rule="evenodd" d="M107.563 107.712C100.015 101.66 94.0439 101.727 87.0865 104.649L80.1201 117.118C76.1616 124.203 81.2832 132.931 89.3991 132.931H118.277C126.393 132.931 131.514 124.203 127.556 117.118L121.831 106.872C117.467 109.896 113.005 112.075 107.563 107.712Z" fill="white"/>
</mask>
<g mask="url(#mask5_18934_3245)">
<path opacity="0.41" d="M90.2202 102.414C79.3103 130.913 106.884 129.205 123.879 131.353C140.874 133.5 106.538 137.617 103.838 137.438C101.138 137.259 75.3643 132.247 74.2903 132.069C73.2164 131.89 69.0997 115.065 72.8585 110.769C76.6172 106.473 80.018 100.746 80.018 100.746" fill="url(#paint33_linear_18934_3245)"/>
</g>
<rect x="93.9712" y="53.8966" width="19.7339" height="2.83037" rx="1.41518" fill="url(#paint34_linear_18934_3245)"/>
<circle opacity="0.2" cx="95.2366" cy="116.14" r="0.753435" fill="white"/>
<circle opacity="0.2" cx="103.823" cy="115.606" r="1.04119" fill="white"/>
<circle opacity="0.2" cx="97.0919" cy="120.442" r="0.643954" fill="white"/>
<circle opacity="0.2" cx="121.23" cy="121.821" r="2.47894" fill="white"/>
<path d="M40.5752 22.8455H39.3313L46.0573 42.6526C46.3617 43.5489 47.0291 44.2758 47.8963 44.6553C48.7634 45.0349 49.7502 45.032 50.6152 44.6475C51.4905 44.2584 52.1588 43.515 52.4528 42.6032C52.7468 41.6915 52.6387 40.6977 52.1555 39.8705L43.0955 24.3601L40.5752 22.8455Z" fill="url(#paint35_linear_18934_3245)"/>
<mask id="mask6_18934_3245" style="mask-type:luminance" maskUnits="userSpaceOnUse" x="39" y="22" width="14" height="23">
<path fill-rule="evenodd" clip-rule="evenodd" d="M40.5752 22.8455H39.3313L46.0573 42.6526C46.3617 43.5489 47.0291 44.2758 47.8963 44.6553C48.7634 45.0349 49.7502 45.032 50.6152 44.6475C51.4905 44.2584 52.1588 43.515 52.4528 42.6032C52.7468 41.6915 52.6387 40.6977 52.1555 39.8705L43.0955 24.3601L40.5752 22.8455Z" fill="white"/>
</mask>
<g mask="url(#mask6_18934_3245)">
<path opacity="0.34" d="M42.7732 42.185C50.6152 44.6475 51.8711 43.66 52.1555 39.8705C52.4399 36.0809 54.051 44.4167 54.051 44.4167L50.6186 47.779L45.0147 44.9391" fill="url(#paint36_linear_18934_3245)"/>
<path opacity="0.34" d="M40.4105 28.8717C41.2135 30.138 43.5917 25.7522 45.2287 26.3699C46.8657 26.9877 42.9431 31.1881 42.9431 31.1881L40.812 31.7441L39.3313 30.2307" fill="url(#paint37_linear_18934_3245)"/>
</g>
<path d="M39.48 21.9544C40.2885 20.585 42.9819 17.3738 43.3062 17.3821C43.995 17.3997 43.5378 19.3047 42.1758 20.618C43.6278 19.232 44.0567 20.519 42.8358 21.9379C44.1227 21.014 44.3537 22.2349 43.5491 23.4889C42.9483 24.4252 42.6543 26.8053 42.7533 27.0528C42.8523 27.3003 41.8296 26.4588 41.8296 26.4588L40.9218 24.8254C40.9218 24.8254 38.6715 23.3239 39.48 21.9544Z" fill="url(#paint38_linear_18934_3245)"/>
<path d="M56.77 100.602C63.665 102.84 77.4659 98.2399 77.4659 98.2399L73.347 86.677L65.5446 70.2257" fill="url(#paint39_linear_18934_3245)"/>
<ellipse cx="60.4098" cy="18.4995" rx="6.7908" ry="4.95312" transform="rotate(-51.4775 60.4098 18.4995)" fill="url(#paint40_linear_18934_3245)"/>
<path d="M40.1196 34.242C41.897 28.7529 44.9286 25.7423 44.9286 25.7423L51.5491 35.1408C44.4762 36.9629 53.5165 26.0495 55.4902 22.6925C55.4902 22.6925 57.1532 23.4385 59.3567 37.385C59.4231 37.805 56.9267 51.1356 50.7753 50.461C47.3255 50.0826 40.1196 34.242 40.1196 34.242Z" fill="url(#paint41_linear_18934_3245)"/>
<mask id="mask7_18934_3245" style="mask-type:luminance" maskUnits="userSpaceOnUse" x="40" y="22" width="20" height="29">
<path fill-rule="evenodd" clip-rule="evenodd" d="M40.1196 34.242C41.897 28.7529 44.9286 25.7423 44.9286 25.7423L51.5491 35.1408C44.4762 36.9629 53.5165 26.0495 55.4902 22.6925C55.4902 22.6925 57.1532 23.4385 59.3567 37.385C59.4231 37.805 56.9267 51.1356 50.7753 50.461C47.3255 50.0826 40.1196 34.242 40.1196 34.242Z" fill="white"/>
</mask>
<g mask="url(#mask7_18934_3245)">
<path d="M55.741 33.2223C53.4933 58.4605 47.0322 44.1085 45.9739 45.3C43.7324 47.8236 50.1129 52.6256 50.1129 52.6256L55.741 52.5921L56.7702 40.8602L55.9153 35.7113" fill="url(#paint42_linear_18934_3245)"/>
</g>
<path d="M46.2153 134.713C46.2153 134.713 47.0392 131.697 51.3646 131.697C55.6899 131.697 58.2645 127.837 58.2645 127.837V84.6492L59.9123 42.1851L69.1809 47.2518C69.1809 54.9725 62.6675 128.157 62.6675 128.157C62.6675 128.157 63.5167 134.713 63.4138 134.713L46.2153 134.713Z" fill="url(#paint43_linear_18934_3245)"/>
<mask id="mask8_18934_3245" style="mask-type:luminance" maskUnits="userSpaceOnUse" x="46" y="42" width="24" height="93">
<path fill-rule="evenodd" clip-rule="evenodd" d="M46.2153 134.713C46.2153 134.713 47.0392 131.697 51.3646 131.697C55.6899 131.697 58.2645 127.837 58.2645 127.837V84.6492L59.9123 42.1851L69.1809 47.2518C69.1809 54.9725 62.6675 128.157 62.6675 128.157C62.6675 128.157 63.5167 134.713 63.4138 134.713L46.2153 134.713Z" fill="white"/>
</mask>
<g mask="url(#mask8_18934_3245)">
<path opacity="0.34" d="M56.7701 102.865C55.1695 104.842 63.447 106.695 64.9295 108.548C66.412 110.402 65.8719 100.9 65.8719 100.9L57.6981 98.5994" fill="url(#paint44_linear_18934_3245)"/>
</g>
<path d="M65.6794 54.4096L72.8884 82.0756L82.7062 129.204C82.7062 129.204 83.4565 134.834 83.7311 135.317H99.7501C96.2614 129.204 90.533 133.708 88.336 128.802L76.5271 50.0667L65.6794 54.4096Z" fill="url(#paint45_linear_18934_3245)"/>
<mask id="mask9_18934_3245" style="mask-type:luminance" maskUnits="userSpaceOnUse" x="65" y="50" width="35" height="86">
<path fill-rule="evenodd" clip-rule="evenodd" d="M65.6794 54.4096L72.8884 82.0756L82.7062 129.204C82.7062 129.204 83.4565 134.834 83.7311 135.317H99.7501C96.2614 129.204 90.533 133.708 88.336 128.802L76.5271 50.0667L65.6794 54.4096Z" fill="white"/>
</mask>
<g mask="url(#mask9_18934_3245)">
<path opacity="0.34" d="M75.2454 108.178C80.3416 105.861 86.017 102.13 84.1985 101.216C82.38 100.302 75.616 102.155 75.616 102.155" fill="url(#paint46_linear_18934_3245)"/>
</g>
<path d="M55.2783 79.7259C67.0872 82.6212 79.2733 83.0406 82.0195 81.1104L75.1112 43.0443L59.2362 45.633L55.2783 79.7259Z" fill="url(#paint47_linear_18934_3245)"/>
<mask id="mask10_18934_3245" style="mask-type:luminance" maskUnits="userSpaceOnUse" x="55" y="43" width="28" height="40">
<path fill-rule="evenodd" clip-rule="evenodd" d="M55.2783 79.7259C67.0872 82.6212 79.2733 83.0406 82.0195 81.1104L75.1112 43.0443L59.2362 45.633L55.2783 79.7259Z" fill="white"/>
</mask>
<g mask="url(#mask10_18934_3245)">
<path d="M61.4985 65.0024C64.5943 65.1857 61.226 48.5718 66.2584 48.4075C71.2909 48.2433 67.2329 45.0902 67.2329 45.0902L58.6037 46.1281L58.0093 47.0037" fill="url(#paint48_linear_18934_3245)"/>
</g>
<ellipse cx="68.36" cy="13.798" rx="6.7908" ry="4.95312" transform="rotate(-51.4775 68.36 13.798)" fill="url(#paint49_linear_18934_3245)"/>
<ellipse cx="61.5926" cy="16.0392" rx="3.92677" ry="3.48844" transform="rotate(-43.9494 61.5926 16.0392)" fill="url(#paint50_linear_18934_3245)"/>
<path d="M59.9291 21.014C59.9291 21.014 68.2449 16.5591 78.2436 21.014C80.4215 26.6568 74.0229 39.993 76.0657 44.6743C76.0657 44.6743 64.3453 49.784 58.6035 45.9231C56.8215 44.1411 60.8633 39.1331 57.8502 34.2796C54.5281 28.9286 59.9291 21.014 59.9291 21.014Z" fill="url(#paint51_linear_18934_3245)"/>
<mask id="mask11_18934_3245" style="mask-type:luminance" maskUnits="userSpaceOnUse" x="56" y="19" width="23" height="29">
<path fill-rule="evenodd" clip-rule="evenodd" d="M59.9291 21.014C59.9291 21.014 68.2449 16.5591 78.2436 21.014C80.4215 26.6568 74.0229 39.993 76.0657 44.6743C76.0657 44.6743 64.3453 49.784 58.6035 45.9231C56.8215 44.1411 60.8633 39.1331 57.8502 34.2796C54.5281 28.9286 59.9291 21.014 59.9291 21.014Z" fill="white"/>
</mask>
<g mask="url(#mask11_18934_3245)">
<path d="M61.9928 19.7587C59.9292 27.8726 69.2375 23.6591 72.9705 19.034C76.7035 14.409 72.6621 15.3601 72.6621 15.3601L61.6531 18.4959" fill="url(#paint52_linear_18934_3245)"/>
<path d="M75.9281 32.0635C75.9776 38.9933 75.3836 47.0285 62.8439 46.8553C50.3043 46.6821 57.0423 50.1381 57.0423 50.1381L75.9116 49.586L76.7695 49.124L82.0196 37.7064L80.9149 31.0581L76.823 30.0029C77.4038 38.2653 71.1633 35.6579 71.1633 35.6579" fill="url(#paint53_linear_18934_3245)"/>
</g>
<path d="M64.4892 13.333C64.6576 13.7635 62.3052 22.0398 62.3052 22.0398L70.0612 20.516L69.7296 10.3401L64.4892 13.333Z" fill="url(#paint54_linear_18934_3245)"/>
<mask id="mask12_18934_3245" style="mask-type:luminance" maskUnits="userSpaceOnUse" x="62" y="10" width="9" height="13">
<path fill-rule="evenodd" clip-rule="evenodd" d="M64.4892 13.333C64.6576 13.7635 62.3052 22.0398 62.3052 22.0398L70.0612 20.516L69.7296 10.3401L64.4892 13.333Z" fill="white"/>
</mask>
<g mask="url(#mask12_18934_3245)">
<path opacity="0.34" d="M60.3055 19.7074C65.2588 18.4995 65.7159 14.8312 67.452 13.333C69.1882 11.8347 61.8784 13.6902 61.8784 13.6902L60.2605 15.6284L60.4639 18.3674" fill="url(#paint55_linear_18934_3245)"/>
</g>
<ellipse cx="62.0613" cy="4.8595" rx="3.64391" ry="3.23715" transform="rotate(-43.9494 62.0613 4.8595)" fill="url(#paint56_linear_18934_3245)"/>
<path d="M73.0638 7.22301C72.6648 10.5975 68.91 12.4764 65.5445 12.4764C62.179 12.4764 60.4773 10.5975 60.8763 7.22301C61.2753 3.84857 64.327 1.11304 67.6925 1.11304C71.058 1.11304 73.4628 3.84857 73.0638 7.22301Z" fill="url(#paint57_linear_18934_3245)"/>
<path d="M62.0791 4.30988C55.6025 22.526 70.0158 14.0461 70.6431 8.70688C71.005 5.62642 68.5434 3.68176 68.5434 3.68176L62.0791 4.30988Z" fill="url(#paint58_linear_18934_3245)"/>
<path d="M60.1235 7.07375C63.5543 7.19938 64.7457 4.05082 64.7457 4.05082C64.7457 4.05082 65.3378 10.1294 70.5442 9.54378L71.6804 6.82249L70.8243 3.99585C70.8243 3.99585 67.8999 2.23705 67.7045 2.29986C67.5092 2.36267 64.4471 2.29822 64.4471 2.29822L61.9772 3.05363L61.258 3.99585L60.1235 7.07375Z" fill="url(#paint59_linear_18934_3245)"/>
<path d="M69.23 106.384C76.8882 108.607 85.7018 100.361 85.7018 100.361C85.7018 100.361 79.2521 33.8923 79.0121 21.014C76.8644 19.8164 74.3576 18.9595 70.2274 19.0341L67.7021 29.4841C67.7021 29.4841 63.8823 86.2561 69.23 106.384Z" fill="url(#paint60_linear_18934_3245)"/>
<mask id="mask13_18934_3245" style="mask-type:luminance" maskUnits="userSpaceOnUse" x="66" y="19" width="20" height="88">
<path fill-rule="evenodd" clip-rule="evenodd" d="M69.23 106.384C76.8882 108.607 85.7018 100.361 85.7018 100.361C85.7018 100.361 79.2521 33.8923 79.0121 21.014C76.8644 19.8164 74.3576 18.9595 70.2274 19.0341L67.7021 29.4841C67.7021 29.4841 63.8823 86.2561 69.23 106.384Z" fill="white"/>
</mask>
<g mask="url(#mask13_18934_3245)">
<path d="M68.4556 44.6236C65.3226 46.8383 83.0016 52.2675 83.1259 54.677C83.2502 57.0865 84.0556 40.8603 84.0556 40.8603L80.0148 31.054L76.1765 31.165C76.1765 31.165 78.9634 37.2959 70.1331 35.5426C61.3028 33.7893 70.6779 43.5837 70.6779 43.5837" fill="url(#paint61_linear_18934_3245)"/>
</g>
<path d="M53.0935 102.65C60.3723 105.175 66.1072 106.139 66.1072 106.139C66.1072 106.139 60.7232 22.0052 62.9514 19.8163C62.9514 19.8163 57.8923 20.186 55.4902 22.6925C55.7409 52.7774 52.0537 68.6328 53.0935 102.65Z" fill="url(#paint62_linear_18934_3245)"/>
<mask id="mask14_18934_3245" style="mask-type:luminance" maskUnits="userSpaceOnUse" x="52" y="19" width="15" height="88">
<path fill-rule="evenodd" clip-rule="evenodd" d="M53.0935 102.65C60.3723 105.175 66.1072 106.139 66.1072 106.139C66.1072 106.139 60.7232 22.0052 62.9514 19.8163C62.9514 19.8163 57.8923 20.186 55.4902 22.6925C55.7409 52.7774 52.0537 68.6328 53.0935 102.65Z" fill="white"/>
</mask>
<g mask="url(#mask14_18934_3245)">
<path d="M48.6941 54.8255L48.9481 64.2476L57.1555 64.7161L57.9402 54.7708L48.6941 54.8255Z" fill="url(#paint63_linear_18934_3245)"/>
<path d="M48.1083 54.3853C48.0507 54.7272 47.8757 57.3489 47.8757 57.3489L58.2212 57.3932L58.3113 54.4009L48.1083 54.3853Z" fill="white"/>
</g>
<path d="M66.9195 40.2109C66.9195 40.2109 66.5801 23.1208 69.9967 18.5366L72.8725 19.4574L70.133 26.9278L71.193 30.1215L66.9195 40.2109Z" fill="white"/>
<path d="M62.9239 39.5535L59.8813 30.0964L61.4985 27.0309L59.8562 20.3857C59.8562 20.3857 61.1993 19.0296 63.1407 19.0321C63.1407 19.0321 62.1563 35.3191 62.9239 39.5535Z" fill="white"/>
<path d="M70.531 35.901C70.6407 35.8815 70.7486 35.8527 70.8534 35.8148C72.6787 35.16 73.9387 31.8283 74.7728 29.6234L74.9533 29.1477L74.5715 29.0018L74.3904 29.4789C73.632 31.4837 72.3631 34.8391 70.7154 35.4302C70.2687 35.5913 69.8253 35.5392 69.3596 35.2722L69.1565 35.6266C69.6153 35.8895 70.0763 35.9812 70.531 35.901Z" fill="url(#paint64_linear_18934_3245)"/>
<mask id="mask15_18934_3245" style="mask-type:luminance" maskUnits="userSpaceOnUse" x="69" y="29" width="6" height="7">
<path fill-rule="evenodd" clip-rule="evenodd" d="M70.531 35.901C70.6407 35.8815 70.7486 35.8527 70.8534 35.8148C72.6787 35.16 73.9387 31.8283 74.7728 29.6234L74.9533 29.1477L74.5715 29.0018L74.3904 29.4789C73.632 31.4837 72.3631 34.8391 70.7154 35.4302C70.2687 35.5913 69.8253 35.5392 69.3596 35.2722L69.1565 35.6266C69.6153 35.8895 70.0763 35.9812 70.531 35.901Z" fill="white"/>
</mask>
<g mask="url(#mask15_18934_3245)">
<path d="M74.3136 29.2708C74.7728 29.6234 74.704 29.6876 74.7215 29.9866C74.739 30.2856 75.3028 29.7418 75.2984 29.7089C75.294 29.676 74.9534 28.9171 74.9275 28.9543C74.9015 28.9916 74.2866 28.9841 74.2866 28.9841" fill="url(#paint65_linear_18934_3245)"/>
</g>
<rect x="69.3584" y="36.0389" width="1.52681" height="1.01787" rx="0.508937" transform="rotate(-157.65 69.3584 36.0389)" fill="url(#paint66_linear_18934_3245)"/>
<path d="M58.6379 25.9497C58.6387 25.8811 58.6348 19.2217 63.1408 19.032L63.3617 18.2749C58.2807 18.4903 58.0102 25.8682 58.0093 25.9429L58.6379 25.9497Z" fill="url(#paint67_linear_18934_3245)"/>
<mask id="mask16_18934_3245" style="mask-type:luminance" maskUnits="userSpaceOnUse" x="58" y="18" width="6" height="8">
<path fill-rule="evenodd" clip-rule="evenodd" d="M58.6379 25.9497C58.6387 25.8811 58.6348 19.2217 63.1408 19.032L63.3617 18.2749C58.2807 18.4903 58.0102 25.8682 58.0093 25.9429L58.6379 25.9497Z" fill="white"/>
</mask>
<g mask="url(#mask16_18934_3245)">
<path d="M59.761 21.8882C59.2414 24.5245 57.9323 24.0099 57.3844 25.8009C56.8365 27.592 58.8915 27.0936 58.8915 27.0936L60.4214 24.5013" fill="url(#paint68_linear_18934_3245)"/>
</g>
<path d="M72.6807 23.8702L72.7822 23.5108C73.1983 22.0425 73.6283 20.5244 72.8727 19.4575C72.3486 18.7171 71.573 18.2837 69.9827 18.174L70.0074 18.8059C71.3957 18.9028 71.9525 19.2455 72.3599 19.8209C72.9416 20.6422 72.5703 21.9524 72.1774 23.3392L72.0754 23.7012L72.6807 23.8702Z" fill="url(#paint69_linear_18934_3245)"/>
<path d="M72.9655 35.7895C72.8578 35.761 72.7527 35.7232 72.6514 35.6768C70.887 34.8721 69.909 31.447 69.2615 29.1803L69.1213 28.6912L69.5139 28.5776L69.6547 29.0682C70.2433 31.1291 71.2283 34.5786 72.821 35.305C73.2527 35.5027 73.6989 35.4877 74.1852 35.2605L74.3581 35.6305C73.879 35.8543 73.4119 35.9073 72.9655 35.7895Z" fill="url(#paint70_linear_18934_3245)"/>
<rect x="73.8152" y="35.0544" width="1.52681" height="1.01787" rx="0.508937" transform="rotate(-17.57 73.8152 35.0544)" fill="url(#paint71_linear_18934_3245)"/>
<path d="M75.0002 29.4336C76.2513 26.088 74.8678 24.5153 74.215 23.9946C73.0868 23.1106 71.5216 23.041 70.3195 23.8214C69.6477 24.2633 68.1788 25.6307 69.0381 28.7815L69.6447 28.6159C69.1159 26.6773 69.4875 25.1211 70.6647 24.3468C71.6392 23.7139 72.908 23.7697 73.823 24.4859C74.9762 25.4061 75.1908 27.1292 74.4116 29.2135L75.0002 29.4336Z" fill="url(#paint72_linear_18934_3245)"/>
<ellipse cx="58.7771" cy="27.5433" rx="1.94132" ry="2.09969" transform="rotate(-1.4391 58.7771 27.5433)" fill="url(#paint73_linear_18934_3245)"/>
<ellipse cx="57.8683" cy="27.0308" rx="1.1436" ry="0.833957" transform="rotate(-83.4137 57.8683 27.0308)" fill="url(#paint74_linear_18934_3245)"/>
<path d="M64.7565 35.701C64.7565 35.701 62.6334 33.7625 60.6948 33.1163C58.7563 32.4701 59.4948 32.9624 59.4948 32.9624L60.1717 35.0548L64.7565 35.701Z" fill="url(#paint75_linear_18934_3245)"/>
<path d="M64.8311 42.0422H54.1987C53.1802 42.0422 51.9557 41.3408 51.4636 40.4755L43.9754 27.3091C43.4834 26.4438 43.9101 25.7424 44.9285 25.7424H55.5609C56.5794 25.7424 57.8039 26.4438 58.296 27.3091L65.7842 40.4755C66.2763 41.3408 65.8495 42.0422 64.8311 42.0422Z" fill="url(#paint76_linear_18934_3245)"/>
<mask id="mask17_18934_3245" style="mask-type:luminance" maskUnits="userSpaceOnUse" x="43" y="25" width="23" height="18">
<path fill-rule="evenodd" clip-rule="evenodd" d="M64.8311 42.0422H54.1987C53.1802 42.0422 51.9557 41.3408 51.4636 40.4755L43.9754 27.3091C43.4834 26.4438 43.9101 25.7424 44.9285 25.7424H55.5609C56.5794 25.7424 57.8039 26.4438 58.296 27.3091L65.7842 40.4755C66.2763 41.3408 65.8495 42.0422 64.8311 42.0422Z" fill="white"/>
</mask>
<g mask="url(#mask17_18934_3245)">
<path d="M58.7771 37.9522C57.4286 38.6934 63.4851 39.1259 63.5454 41.1026C63.6058 43.0793 60.4097 43.697 60.4097 43.697L69.1807 43.9164L66.2583 38.0757L62.0566 37.5548" fill="url(#paint77_linear_18934_3245)"/>
</g>
<ellipse cx="54.3519" cy="33.415" rx="1.72429" ry="2.96589" transform="rotate(-60.9685 54.3519 33.415)" fill="url(#paint78_linear_18934_3245)"/>
<path d="M62.0488 34.8703C62.0488 34.8703 59.2589 34.9113 59.0538 34.8703C58.8487 34.8293 56.5511 33.6395 56.305 34.6652C56.305 34.6652 55.3613 34.8703 55.9152 35.7114L56.9204 36.5319C56.9204 36.5319 56.2229 36.3883 56.2845 36.9217C56.346 37.455 59.0243 38.5983 59.25 38.6804C59.4756 38.7624 62.418 38.6448 64.1001 39.0551C65.7823 39.4654 69.5978 40.8603 69.5978 40.8603L70.7055 36.5524L62.0488 34.8703Z" fill="url(#paint79_linear_18934_3245)"/>
<mask id="mask18_18934_3245" style="mask-type:luminance" maskUnits="userSpaceOnUse" x="55" y="34" width="16" height="7">
<path fill-rule="evenodd" clip-rule="evenodd" d="M62.0488 34.8703C62.0488 34.8703 59.2589 34.9113 59.0538 34.8703C58.8487 34.8293 56.5511 33.6395 56.305 34.6652C56.305 34.6652 55.3613 34.8703 55.9152 35.7114L56.9204 36.5319C56.9204 36.5319 56.2229 36.3883 56.2845 36.9217C56.346 37.455 59.0243 38.5983 59.25 38.6804C59.4756 38.7624 62.418 38.6448 64.1001 39.0551C65.7823 39.4654 69.5978 40.8603 69.5978 40.8603L70.7055 36.5524L62.0488 34.8703Z" fill="white"/>
</mask>
<g mask="url(#mask18_18934_3245)">
<path opacity="0.34" d="M64.9997 35.2781C63.3203 35.3347 63.6214 38.3924 62.718 38.9947C61.8146 39.5969 63.9926 40.3231 63.9926 40.3231L64.9649 39.9907L65.6135 36.8404" fill="url(#paint80_linear_18934_3245)"/>
</g>
<path d="M66.7708 35.8005C66.7708 35.8005 65.2827 38.3837 66.1356 39.6605L83.1458 45.487C85.4885 45.9961 87.7385 44.3348 87.8527 42.0117C87.9482 40.0689 86.492 38.3788 84.5016 38.1222L66.7708 35.8005Z" fill="url(#paint81_linear_18934_3245)"/>
<mask id="mask19_18934_3245" style="mask-type:luminance" maskUnits="userSpaceOnUse" x="65" y="35" width="23" height="11">
<path fill-rule="evenodd" clip-rule="evenodd" d="M66.7708 35.8005C66.7708 35.8005 65.2827 38.3837 66.1356 39.6605L83.1458 45.487C85.4885 45.9961 87.7385 44.3348 87.8527 42.0117C87.9482 40.0689 86.492 38.3788 84.5016 38.1222L66.7708 35.8005Z" fill="white"/>
</mask>
<g mask="url(#mask19_18934_3245)">
<path opacity="0.34" d="M78.7021 36.5012C86.7781 38.0613 88.11 42.1751 87.8571 44.4867C87.6042 46.7983 90.7564 38.3925 90.7564 38.3925L87.8571 35.701H82.0194" fill="url(#paint82_linear_18934_3245)"/>
</g>
<path d="M65.2153 34.9923C62.6792 38.0758 64.728 43.9342 64.728 43.9342C64.728 43.9342 82.7146 51.6192 87.8571 48.577C92.8742 45.6089 82.75 22.2263 79.0122 21.014C76.8869 20.3247 74.5692 29.5278 76.1765 31.165L78.7022 36.5012L65.2153 34.9923Z" fill="url(#paint83_linear_18934_3245)"/>
<mask id="mask20_18934_3245" style="mask-type:luminance" maskUnits="userSpaceOnUse" x="63" y="20" width="27" height="30">
<path fill-rule="evenodd" clip-rule="evenodd" d="M65.2153 34.9923C62.6792 38.0758 64.728 43.9342 64.728 43.9342C64.728 43.9342 82.7146 51.6192 87.8571 48.577C92.8742 45.6089 82.75 22.2263 79.0122 21.014C76.8869 20.3247 74.5692 29.5278 76.1765 31.165L78.7022 36.5012L65.2153 34.9923Z" fill="white"/>
</mask>
<g mask="url(#mask20_18934_3245)">
<path d="M76.4844 35.9962L78.7023 36.5013C78.7023 36.5013 81.1734 37.5076 81.8488 37.5549C82.5241 37.6021 78.1809 35.7806 77.7769 35.2512C77.3728 34.7217 77.062 35.8006 77.062 35.8006" fill="url(#paint84_linear_18934_3245)"/>
</g>
<circle cx="67.6887" cy="47.1237" r="0.960153" fill="white"/>
<circle cx="67.6887" cy="59.1708" r="0.960153" fill="white"/>
<path d="M71.5874 56.175L71.8415 65.597L80.0489 66.0655L80.8335 56.1201L71.5874 56.175Z" fill="url(#paint85_linear_18934_3245)"/>
<path d="M71.0018 55.7346C70.9443 56.0765 70.7693 58.6983 70.7693 58.6983L81.1148 58.7426L81.2049 55.7502L71.0018 55.7346Z" fill="white"/>
<path d="M60.4098 9.5835C60.8534 10.4591 62.1782 9.79675 62.1782 9.79675C62.1782 9.79675 63.5029 11.1215 66.9192 10.3401C67.4772 10.4591 66.3416 13.4375 67.2098 13.6178C61.5158 18.4077 58.6154 13.9121 60.4098 9.5835Z" fill="white"/>
<path d="M66.1523 11.1215L66.8147 10.4591L69.6412 9.43237L69.4642 9.79671L66.8147 11.1215" fill="white"/>
<path d="M66.2583 13.3854L69.6412 12.2897L66.5322 13.9448L66.2583 13.6418" fill="white"/>
<path d="M69.3286 9.54373C74.7697 7.50226 71.7653 13.6378 68.3599 12.1931L69.3286 9.54373Z" fill="url(#paint86_linear_18934_3245)"/>
<g opacity="0.39">
<rect x="99.9031" y="33.3013" width="0.354881" height="0.928953" transform="rotate(180 99.9031 33.3013)" fill="url(#paint87_linear_18934_3245)"/>
<rect x="97.0789" y="25.9824" width="0.354881" height="0.928953" transform="rotate(-45 97.0789 25.9824)" fill="url(#paint88_linear_18934_3245)"/>
<rect x="95.7776" y="30.5487" width="0.400178" height="1.04753" transform="rotate(-109.937 95.7776 30.5487)" fill="url(#paint89_linear_18934_3245)"/>
<rect x="101.674" y="25.249" width="0.435266" height="1.13937" transform="rotate(31.7057 101.674 25.249)" fill="url(#paint90_linear_18934_3245)"/>
<rect x="96.0876" y="27.5964" width="0.193453" height="0.506389" transform="rotate(-63.7646 96.0876 27.5964)" fill="url(#paint91_linear_18934_3245)"/>
<rect x="97.23" y="32.0234" width="0.193453" height="0.506389" transform="rotate(-142.333 97.23 32.0234)" fill="url(#paint92_linear_18934_3245)"/>
<rect x="102.086" y="32.0243" width="0.193453" height="0.506389" transform="rotate(143.794 102.086 32.0243)" fill="url(#paint93_linear_18934_3245)"/>
<path d="M102.12 32.2355C102.058 32.2809 101.971 32.2675 101.926 32.2054L101.915 32.1909C101.87 32.1288 101.883 32.0416 101.945 31.9961C102.007 31.9507 102.095 31.9642 102.14 32.0263L102.151 32.0408C102.172 32.0706 102.182 32.1079 102.176 32.1444C102.17 32.1809 102.15 32.2137 102.12 32.2355V32.2355Z" fill="url(#paint94_linear_18934_3245)"/>
<rect x="102.995" y="26.9921" width="0.193453" height="0.506389" transform="rotate(53.085 102.995 26.9921)" fill="url(#paint95_linear_18934_3245)"/>
<rect x="103.898" y="29.6588" width="0.400178" height="1.04753" transform="rotate(98.391 103.898 29.6588)" fill="url(#paint96_linear_18934_3245)"/>
<path d="M104.444 29.9151L104.436 29.9668C104.397 30.234 104.148 30.4186 103.881 30.3792C103.614 30.3398 103.429 30.0913 103.469 29.8241L103.476 29.7724C103.516 29.5053 103.764 29.3206 104.031 29.36C104.299 29.3994 104.483 29.648 104.444 29.9152L104.444 29.9151Z" fill="url(#paint97_linear_18934_3245)"/>
<circle cx="99.7256" cy="29.0471" r="3.41608" fill="url(#paint98_linear_18934_3245)"/>
<mask id="mask21_18934_3245" style="mask-type:luminance" maskUnits="userSpaceOnUse" x="96" y="25" width="8" height="8">
<circle cx="99.7256" cy="29.0471" r="3.41608" fill="white"/>
</mask>
<g mask="url(#mask21_18934_3245)">
<path d="M98.7859 32.898C93.1105 26.5193 100.587 24.9954 100.587 24.9954L97.3883 23.5974L92.1836 29.0471L95.9269 32.898" fill="url(#paint99_linear_18934_3245)"/>
</g>
<circle cx="101.349" cy="29.8696" r="0.762276" fill="url(#paint100_linear_18934_3245)"/>
<circle cx="98.5052" cy="30.7929" r="0.762276" fill="url(#paint101_linear_18934_3245)"/>
<circle cx="98.786" cy="27.3211" r="0.762276" fill="url(#paint102_linear_18934_3245)"/>
<circle cx="102.07" cy="32.1668" r="0.26094" fill="url(#paint103_linear_18934_3245)"/>
<circle cx="97.1274" cy="31.9982" r="0.26094" fill="url(#paint104_linear_18934_3245)"/>
<circle cx="103.081" cy="27.0489" r="0.26094" fill="url(#paint105_linear_18934_3245)"/>
<circle cx="96.0568" cy="27.4985" r="0.26094" fill="url(#paint106_linear_18934_3245)"/>
<circle cx="99.7255" cy="33.3383" r="0.538011" fill="url(#paint107_linear_18934_3245)"/>
<circle cx="95.589" cy="30.4369" r="0.538011" fill="url(#paint108_linear_18934_3245)"/>
<circle cx="97.0087" cy="25.631" r="0.635626" fill="url(#paint109_linear_18934_3245)"/>
<circle cx="101.88" cy="25.3301" r="0.635626" fill="url(#paint110_linear_18934_3245)"/>
</g>
<defs>
<linearGradient id="paint0_linear_18934_3245" x1="22.4448" y1="49.4283" x2="24.1718" y2="49.4283" gradientUnits="userSpaceOnUse">
<stop stop-color="#FF7C95"/>
<stop offset="1" stop-color="#FF2B45"/>
</linearGradient>
<linearGradient id="paint1_linear_18934_3245" x1="39.2111" y1="80.2587" x2="35.706" y2="79.7472" gradientUnits="userSpaceOnUse">
<stop stop-color="#FF7C95"/>
<stop offset="1" stop-color="#FF2B45"/>
</linearGradient>
<linearGradient id="paint2_linear_18934_3245" x1="43.5442" y1="65.8513" x2="46.9217" y2="64.4924" gradientUnits="userSpaceOnUse">
<stop stop-color="#FF7C95"/>
<stop offset="1" stop-color="#FF2B45"/>
</linearGradient>
<linearGradient id="paint3_linear_18934_3245" x1="16.4719" y1="80.9026" x2="12.5012" y2="81.1736" gradientUnits="userSpaceOnUse">
<stop stop-color="#FF7C95"/>
<stop offset="1" stop-color="#FF2B45"/>
</linearGradient>
<linearGradient id="paint4_linear_18934_3245" x1="42.514" y1="73.5608" x2="40.805" y2="73.0547" gradientUnits="userSpaceOnUse">
<stop stop-color="#FF7C95"/>
<stop offset="1" stop-color="#FF2B45"/>
</linearGradient>
<linearGradient id="paint5_linear_18934_3245" x1="35.2954" y1="55.3781" x2="37.208" y2="55.1626" gradientUnits="userSpaceOnUse">
<stop stop-color="#FF7C95"/>
<stop offset="1" stop-color="#FF2B45"/>
</linearGradient>
<linearGradient id="paint6_linear_18934_3245" x1="11.1495" y1="54.0406" x2="13.0551" y2="54.2442" gradientUnits="userSpaceOnUse">
<stop stop-color="#FF7C95"/>
<stop offset="1" stop-color="#FF2B45"/>
</linearGradient>
<linearGradient id="paint7_linear_18934_3245" x1="10.874" y1="51.1463" x2="12.6581" y2="51.8424" gradientUnits="userSpaceOnUse">
<stop stop-color="#FF7C95"/>
<stop offset="1" stop-color="#FF2B45"/>
</linearGradient>
<linearGradient id="paint8_linear_18934_3245" x1="8.24245" y1="73.836" x2="6.39526" y2="74.1948" gradientUnits="userSpaceOnUse">
<stop stop-color="#FF7C95"/>
<stop offset="1" stop-color="#FF2B45"/>
</linearGradient>
<linearGradient id="paint9_linear_18934_3245" x1="2.58097" y1="63.5626" x2="5.60885" y2="66.5584" gradientUnits="userSpaceOnUse">
<stop stop-color="#FF7C95"/>
<stop offset="1" stop-color="#FF2B45"/>
</linearGradient>
<linearGradient id="paint10_linear_18934_3245" x1="0.0134702" y1="64.0253" x2="4.9781" y2="64.4492" gradientUnits="userSpaceOnUse">
<stop stop-color="#FF7C95"/>
<stop offset="1" stop-color="#FF2B45"/>
</linearGradient>
<linearGradient id="paint11_linear_18934_3245" x1="6.68408" y1="82.2351" x2="39.9326" y2="82.2351" gradientUnits="userSpaceOnUse">
<stop stop-color="#FF7C95"/>
<stop offset="1" stop-color="#FF2B45"/>
</linearGradient>
<linearGradient id="paint12_linear_18934_3245" x1="-0.0629405" y1="101.699" x2="1.59928" y2="101.165" gradientUnits="userSpaceOnUse">
<stop stop-color="#FF7C95"/>
<stop offset="1" stop-color="#FF2B45"/>
</linearGradient>
<linearGradient id="paint13_linear_18934_3245" x1="-4.50363" y1="69.2228" x2="-1.8835" y2="68.4097" gradientUnits="userSpaceOnUse">
<stop stop-color="#FF7C95"/>
<stop offset="1" stop-color="#FF2B45"/>
</linearGradient>
<linearGradient id="paint14_linear_18934_3245" x1="-4.5596" y1="69.0424" x2="-1.93947" y2="68.2293" gradientUnits="userSpaceOnUse">
<stop stop-color="#FF7C95"/>
<stop offset="1" stop-color="#FF2B45"/>
</linearGradient>
<linearGradient id="paint15_linear_18934_3245" x1="0.103233" y1="84.0668" x2="2.72336" y2="83.2537" gradientUnits="userSpaceOnUse">
<stop stop-color="#FF7C95"/>
<stop offset="1" stop-color="#FF2B45"/>
</linearGradient>
<linearGradient id="paint16_linear_18934_3245" x1="10.6284" y1="51.6981" x2="13.1681" y2="51.6981" gradientUnits="userSpaceOnUse">
<stop stop-color="#FF7C95"/>
<stop offset="1" stop-color="#FF2B45"/>
</linearGradient>
<linearGradient id="paint17_linear_18934_3245" x1="34.6826" y1="52.5191" x2="37.2223" y2="52.5191" gradientUnits="userSpaceOnUse">
<stop stop-color="#FF7C95"/>
<stop offset="1" stop-color="#FF2B45"/>
</linearGradient>
<linearGradient id="paint18_linear_18934_3245" x1="5.71167" y1="76.6046" x2="8.25137" y2="76.6046" gradientUnits="userSpaceOnUse">
<stop stop-color="#FF7C95"/>
<stop offset="1" stop-color="#FF2B45"/>
</linearGradient>
<linearGradient id="paint19_linear_18934_3245" x1="39.8923" y1="74.4166" x2="42.432" y2="74.4166" gradientUnits="userSpaceOnUse">
<stop stop-color="#FF7C95"/>
<stop offset="1" stop-color="#FF2B45"/>
</linearGradient>
<linearGradient id="paint20_linear_18934_3245" x1="20.6902" y1="47.3457" x2="25.9266" y2="47.3457" gradientUnits="userSpaceOnUse">
<stop stop-color="#FF7C95"/>
<stop offset="1" stop-color="#FF2B45"/>
</linearGradient>
<linearGradient id="paint21_linear_18934_3245" x1="40.8206" y1="61.4655" x2="46.057" y2="61.4655" gradientUnits="userSpaceOnUse">
<stop stop-color="#FF7C95"/>
<stop offset="1" stop-color="#FF2B45"/>
</linearGradient>
<linearGradient id="paint22_linear_18934_3245" x1="33.4373" y1="85.3283" x2="39.6237" y2="85.3283" gradientUnits="userSpaceOnUse">
<stop stop-color="#FF7C95"/>
<stop offset="1" stop-color="#FF2B45"/>
</linearGradient>
<linearGradient id="paint23_linear_18934_3245" x1="9.73096" y1="86.7924" x2="15.9174" y2="86.7924" gradientUnits="userSpaceOnUse">
<stop stop-color="#FF7C95"/>
<stop offset="1" stop-color="#FF2B45"/>
</linearGradient>
<linearGradient id="paint24_linear_18934_3245" x1="51.0231" y1="31.0358" x2="11.4298" y2="79.5998" gradientUnits="userSpaceOnUse">
<stop offset="0.1011" stop-color="#FFDF94"/>
<stop offset="1" stop-color="#FFA200"/>
</linearGradient>
<linearGradient id="paint25_linear_18934_3245" x1="43.5905" y1="61.4945" x2="36.1756" y2="87.5225" gradientUnits="userSpaceOnUse">
<stop offset="0.1011" stop-color="#FFCC02"/>
<stop offset="1" stop-color="#FFE484"/>
</linearGradient>
<linearGradient id="paint26_linear_18934_3245" x1="4.55615" y1="143.039" x2="69.8199" y2="143.039" gradientUnits="userSpaceOnUse">
<stop offset="0.1011" stop-color="#FFCC02"/>
<stop offset="1" stop-color="#FFE484"/>
</linearGradient>
<radialGradient id="paint27_radial_18934_3245" cx="0" cy="0" r="1" gradientUnits="userSpaceOnUse" gradientTransform="translate(49.275 102.557) scale(23.9715 27.9666)">
<stop stop-color="#FC7023"/>
<stop offset="1" stop-color="#E00321"/>
</radialGradient>
<linearGradient id="paint28_linear_18934_3245" x1="77.9978" y1="125.975" x2="75.2714" y2="123.076" gradientUnits="userSpaceOnUse">
<stop stop-color="#FC7023"/>
<stop offset="1" stop-color="#E00321"/>
</linearGradient>
<linearGradient id="paint29_linear_18934_3245" x1="43.1829" y1="120.531" x2="63.6656" y2="120.531" gradientUnits="userSpaceOnUse">
<stop offset="0.1023" stop-color="#DCDFF8"/>
<stop offset="0.8855" stop-color="#F5F7FE"/>
</linearGradient>
<linearGradient id="paint30_linear_18934_3245" x1="76.7261" y1="135.164" x2="130.95" y2="135.164" gradientUnits="userSpaceOnUse">
<stop offset="0.1023" stop-color="#DCDFF8"/>
<stop offset="0.8855" stop-color="#F5F7FE"/>
</linearGradient>
<linearGradient id="paint31_linear_18934_3245" x1="91.7417" y1="66.7381" x2="107.91" y2="66.7381" gradientUnits="userSpaceOnUse">
<stop offset="0.1023" stop-color="#DCDFF8"/>
<stop offset="0.8855" stop-color="#F5F7FE"/>
</linearGradient>
<radialGradient id="paint32_radial_18934_3245" cx="0" cy="0" r="1" gradientUnits="userSpaceOnUse" gradientTransform="translate(118.679 111.485) scale(40.3964 24.328)">
<stop stop-color="#00DED8"/>
<stop offset="0.9965" stop-color="#4AAAFD"/>
</radialGradient>
<linearGradient id="paint33_linear_18934_3245" x1="103.05" y1="100.787" x2="101.83" y2="108.217" gradientUnits="userSpaceOnUse">
<stop stop-color="#00DED8"/>
<stop offset="0.9965" stop-color="#4AAAFD"/>
</linearGradient>
<linearGradient id="paint34_linear_18934_3245" x1="93.9712" y1="56.727" x2="113.705" y2="56.727" gradientUnits="userSpaceOnUse">
<stop offset="0.1023" stop-color="#DCDFF8"/>
<stop offset="0.8855" stop-color="#F5F7FE"/>
</linearGradient>
<linearGradient id="paint35_linear_18934_3245" x1="62.7939" y1="33.6836" x2="35.3648" y2="15.0751" gradientUnits="userSpaceOnUse">
<stop offset="0.1023" stop-color="#FCADAD"/>
<stop offset="0.8855" stop-color="#FBDCD9"/>
</linearGradient>
<linearGradient id="paint36_linear_18934_3245" x1="59.3888" y1="46.2987" x2="55.305" y2="33.9843" gradientUnits="userSpaceOnUse">
<stop offset="0.1011" stop-color="#FF8338"/>
<stop offset="0.8855" stop-color="#FF4729"/>
</linearGradient>
<linearGradient id="paint37_linear_18934_3245" x1="46.7536" y1="30.2369" x2="44.7707" y2="25.2412" gradientUnits="userSpaceOnUse">
<stop offset="0.1011" stop-color="#FF8338"/>
<stop offset="0.8855" stop-color="#FF4729"/>
</linearGradient>
<linearGradient id="paint38_linear_18934_3245" x1="64.1345" y1="28.7635" x2="36.4649" y2="16.5523" gradientUnits="userSpaceOnUse">
<stop offset="0.1023" stop-color="#FCADAD"/>
<stop offset="0.8855" stop-color="#FBDCD9"/>
</linearGradient>
<linearGradient id="paint39_linear_18934_3245" x1="72.3117" y1="102.233" x2="70.7874" y2="101.1" gradientUnits="userSpaceOnUse">
<stop offset="0.1023" stop-color="white"/>
<stop offset="0.8855" stop-color="#E3EBFD"/>
</linearGradient>
<linearGradient id="paint40_linear_18934_3245" x1="57.3632" y1="-4.47298" x2="51.2343" y2="16.5464" gradientUnits="userSpaceOnUse">
<stop offset="0.1023" stop-color="#915A57"/>
<stop offset="0.8855" stop-color="#2C0B09"/>
</linearGradient>
<linearGradient id="paint41_linear_18934_3245" x1="99.5012" y1="52.8446" x2="65.8289" y2="36.9415" gradientUnits="userSpaceOnUse">
<stop offset="0.1023" stop-color="white"/>
<stop offset="0.8855" stop-color="#E3EBFD"/>
</linearGradient>
<linearGradient id="paint42_linear_18934_3245" x1="81.5172" y1="52.341" x2="61.7699" y2="45.77" gradientUnits="userSpaceOnUse">
<stop offset="0.1023" stop-color="white"/>
<stop offset="0.8855" stop-color="#CDDEFD"/>
</linearGradient>
<linearGradient id="paint43_linear_18934_3245" x1="46.2153" y1="134.713" x2="69.1809" y2="134.713" gradientUnits="userSpaceOnUse">
<stop offset="0.1023" stop-color="#FCADAD"/>
<stop offset="0.8855" stop-color="#FBDCD9"/>
</linearGradient>
<linearGradient id="paint44_linear_18934_3245" x1="56.5657" y1="108.788" x2="65.9679" y2="108.788" gradientUnits="userSpaceOnUse">
<stop offset="0.1011" stop-color="#FF8338"/>
<stop offset="0.8855" stop-color="#FF4729"/>
</linearGradient>
<linearGradient id="paint45_linear_18934_3245" x1="65.6794" y1="135.317" x2="99.7502" y2="135.317" gradientUnits="userSpaceOnUse">
<stop offset="0.1023" stop-color="#FCADAD"/>
<stop offset="0.8855" stop-color="#FBDCD9"/>
</linearGradient>
<linearGradient id="paint46_linear_18934_3245" x1="75.2454" y1="108.178" x2="84.5455" y2="108.178" gradientUnits="userSpaceOnUse">
<stop offset="0.1011" stop-color="#FF8338"/>
<stop offset="0.8855" stop-color="#FF4729"/>
</linearGradient>
<linearGradient id="paint47_linear_18934_3245" x1="89.8846" y1="70.7539" x2="60.0199" y2="40.8313" gradientUnits="userSpaceOnUse">
<stop offset="0.0083" stop-color="#009EFE"/>
<stop offset="1" stop-color="#005DFA"/>
</linearGradient>
<linearGradient id="paint48_linear_18934_3245" x1="55.4616" y1="64.0497" x2="57.6055" y2="63.2382" gradientUnits="userSpaceOnUse">
<stop offset="0.0083" stop-color="#009EFE"/>
<stop offset="1" stop-color="#005DFA"/>
</linearGradient>
<linearGradient id="paint49_linear_18934_3245" x1="65.3131" y1="-9.17442" x2="59.1843" y2="11.8449" gradientUnits="userSpaceOnUse">
<stop offset="0.1023" stop-color="#915A57"/>
<stop offset="0.8855" stop-color="#2C0B09"/>
</linearGradient>
<linearGradient id="paint50_linear_18934_3245" x1="55.743" y1="1.10979" x2="51.007" y2="19.1107" gradientUnits="userSpaceOnUse">
<stop offset="0.1023" stop-color="#915A57"/>
<stop offset="0.8855" stop-color="#2C0B09"/>
</linearGradient>
<linearGradient id="paint51_linear_18934_3245" x1="67.3383" y1="2.13624" x2="51.8852" y2="24.9842" gradientUnits="userSpaceOnUse">
<stop offset="0.0048" stop-color="#FF88C3"/>
<stop offset="0.9986" stop-color="#FF168E"/>
</linearGradient>
<linearGradient id="paint52_linear_18934_3245" x1="61.5706" y1="8.83383" x2="59.6868" y2="21.3939" gradientUnits="userSpaceOnUse">
<stop offset="0.1023" stop-color="#FCADAD"/>
<stop offset="0.8855" stop-color="#FBDCD9"/>
</linearGradient>
<linearGradient id="paint53_linear_18934_3245" x1="71.698" y1="55.9104" x2="71.6188" y2="51.9865" gradientUnits="userSpaceOnUse">
<stop offset="0.0048" stop-color="#EE72BC"/>
<stop offset="0.9986" stop-color="#EE0796"/>
</linearGradient>
<linearGradient id="paint54_linear_18934_3245" x1="56.9997" y1="12.7819" x2="65.7828" y2="18.1277" gradientUnits="userSpaceOnUse">
<stop offset="0.1023" stop-color="#FCADAD"/>
<stop offset="0.8855" stop-color="#FBDCD9"/>
</linearGradient>
<linearGradient id="paint55_linear_18934_3245" x1="57.4819" y1="12.2096" x2="60.4792" y2="16.9778" gradientUnits="userSpaceOnUse">
<stop offset="0.1011" stop-color="#FF8338"/>
<stop offset="0.8855" stop-color="#FF4729"/>
</linearGradient>
<linearGradient id="paint56_linear_18934_3245" x1="53.4047" y1="-1.65117" x2="48.6687" y2="16.3498" gradientUnits="userSpaceOnUse">
<stop offset="0.1023" stop-color="#915A57"/>
<stop offset="0.8855" stop-color="#2C0B09"/>
</linearGradient>
<linearGradient id="paint57_linear_18934_3245" x1="54.4453" y1="3.00839" x2="61.2195" y2="19.6109" gradientUnits="userSpaceOnUse">
<stop offset="0.1023" stop-color="#915A57"/>
<stop offset="0.8855" stop-color="#2C0B09"/>
</linearGradient>
<linearGradient id="paint58_linear_18934_3245" x1="85.9572" y1="9.58887" x2="94.6034" y2="17.4625" gradientUnits="userSpaceOnUse">
<stop offset="0.1023" stop-color="#FCADAD"/>
<stop offset="0.8855" stop-color="#FBDCD9"/>
</linearGradient>
<linearGradient id="paint59_linear_18934_3245" x1="49.3828" y1="2.32931" x2="52.7428" y2="20.0501" gradientUnits="userSpaceOnUse">
<stop offset="0.1023" stop-color="#915A57"/>
<stop offset="0.8855" stop-color="#2C0B09"/>
</linearGradient>
<linearGradient id="paint60_linear_18934_3245" x1="91.6794" y1="9.95806" x2="60.4574" y2="8.46545" gradientUnits="userSpaceOnUse">
<stop offset="0.1023" stop-color="white"/>
<stop offset="0.8855" stop-color="#E3EBFD"/>
</linearGradient>
<linearGradient id="paint61_linear_18934_3245" x1="77.8411" y1="62.59" x2="77.5293" y2="57.7825" gradientUnits="userSpaceOnUse">
<stop offset="0.1023" stop-color="white"/>
<stop offset="0.8855" stop-color="#CDDEFD"/>
</linearGradient>
<linearGradient id="paint62_linear_18934_3245" x1="89.3441" y1="-19.0498" x2="55.3697" y2="-19.8328" gradientUnits="userSpaceOnUse">
<stop offset="0.1023" stop-color="white"/>
<stop offset="0.8855" stop-color="#E3EBFD"/>
</linearGradient>
<linearGradient id="paint63_linear_18934_3245" x1="64.3432" y1="71.2784" x2="59.9866" y2="54.7469" gradientUnits="userSpaceOnUse">
<stop offset="0.1023" stop-color="white"/>
<stop offset="0.8855" stop-color="#E3EBFD"/>
</linearGradient>
<linearGradient id="paint64_linear_18934_3245" x1="74.9502" y1="27.9197" x2="68.1769" y2="28.7563" gradientUnits="userSpaceOnUse">
<stop offset="0.1023" stop-color="#CBCBE5"/>
<stop offset="0.8855" stop-color="#EBE4E0"/>
</linearGradient>
<linearGradient id="paint65_linear_18934_3245" x1="74.796" y1="31.0686" x2="75.8543" y2="29.5962" gradientUnits="userSpaceOnUse">
<stop offset="0.1023" stop-color="#DCDCF8"/>
<stop offset="0.8855" stop-color="#F5F6FE"/>
</linearGradient>
<linearGradient id="paint66_linear_18934_3245" x1="70.0902" y1="37.4043" x2="70.9182" y2="36.2242" gradientUnits="userSpaceOnUse">
<stop offset="0.1023" stop-color="#915A57"/>
<stop offset="0.8855" stop-color="#2C0B09"/>
</linearGradient>
<linearGradient id="paint67_linear_18934_3245" x1="59.4531" y1="21.7448" x2="60.7768" y2="24.3416" gradientUnits="userSpaceOnUse">
<stop offset="0.0083" stop-color="#009EFE"/>
<stop offset="1" stop-color="#005DFA"/>
</linearGradient>
<linearGradient id="paint68_linear_18934_3245" x1="62.9305" y1="28.6035" x2="62.743" y2="28.536" gradientUnits="userSpaceOnUse">
<stop offset="0.0083" stop-color="#009EFE"/>
<stop offset="1" stop-color="#005DFA"/>
</linearGradient>
<linearGradient id="paint69_linear_18934_3245" x1="71.2791" y1="15.6684" x2="66.4875" y2="18.3709" gradientUnits="userSpaceOnUse">
<stop offset="0.0083" stop-color="#009EFE"/>
<stop offset="1" stop-color="#005DFA"/>
</linearGradient>
<linearGradient id="paint70_linear_18934_3245" x1="67.6498" y1="30.4104" x2="72.0362" y2="37.009" gradientUnits="userSpaceOnUse">
<stop offset="0.1023" stop-color="#CBCBE5"/>
<stop offset="0.8855" stop-color="#EBE4E0"/>
</linearGradient>
<linearGradient id="paint71_linear_18934_3245" x1="73.2925" y1="35.5851" x2="74.1205" y2="36.7652" gradientUnits="userSpaceOnUse">
<stop offset="0.1023" stop-color="#915A57"/>
<stop offset="0.8855" stop-color="#2C0B09"/>
</linearGradient>
<linearGradient id="paint72_linear_18934_3245" x1="73.1942" y1="19.0168" x2="70.4044" y2="24.6112" gradientUnits="userSpaceOnUse">
<stop offset="0.0083" stop-color="#009EFE"/>
<stop offset="1" stop-color="#005DFA"/>
</linearGradient>
<linearGradient id="paint73_linear_18934_3245" x1="61.8979" y1="27.9949" x2="58.9966" y2="23.8537" gradientUnits="userSpaceOnUse">
<stop offset="0.1023" stop-color="#CBCBE5"/>
<stop offset="0.8855" stop-color="#EBE4E0"/>
</linearGradient>
<linearGradient id="paint74_linear_18934_3245" x1="59.2149" y1="27.7066" x2="58.9886" y2="26.0209" gradientUnits="userSpaceOnUse">
<stop offset="0.1023" stop-color="#915A57"/>
<stop offset="0.8855" stop-color="#2C0B09"/>
</linearGradient>
<linearGradient id="paint75_linear_18934_3245" x1="74.3758" y1="36.7389" x2="70.6894" y2="27.3476" gradientUnits="userSpaceOnUse">
<stop offset="0.1023" stop-color="#FCADAD"/>
<stop offset="0.8855" stop-color="#FBDCD9"/>
</linearGradient>
<linearGradient id="paint76_linear_18934_3245" x1="43.771" y1="42.0422" x2="65.9886" y2="42.0422" gradientUnits="userSpaceOnUse">
<stop offset="0.0048" stop-color="#FFED7A"/>
<stop offset="0.9986" stop-color="#FF9D00"/>
</linearGradient>
<linearGradient id="paint77_linear_18934_3245" x1="52.9247" y1="45.8677" x2="53.195" y2="45.5461" gradientUnits="userSpaceOnUse">
<stop offset="0.0048" stop-color="#FFED7A"/>
<stop offset="0.9986" stop-color="#FF9D00"/>
</linearGradient>
<linearGradient id="paint78_linear_18934_3245" x1="59.389" y1="12.5848" x2="57.8223" y2="14.4354" gradientUnits="userSpaceOnUse">
<stop offset="0.0048" stop-color="#FFED7A"/>
<stop offset="0.9986" stop-color="#FF9D00"/>
</linearGradient>
<linearGradient id="paint79_linear_18934_3245" x1="38.0838" y1="32.0044" x2="39.7714" y2="52.5542" gradientUnits="userSpaceOnUse">
<stop offset="0.1023" stop-color="#FCADAD"/>
<stop offset="0.8855" stop-color="#FBDCD9"/>
</linearGradient>
<linearGradient id="paint80_linear_18934_3245" x1="60.3697" y1="37.8486" x2="66.1722" y2="43.1057" gradientUnits="userSpaceOnUse">
<stop offset="0.1011" stop-color="#FF8338"/>
<stop offset="0.8855" stop-color="#FF4729"/>
</linearGradient>
<linearGradient id="paint81_linear_18934_3245" x1="48.3975" y1="27.7415" x2="50.1086" y2="48.297" gradientUnits="userSpaceOnUse">
<stop offset="0.1023" stop-color="#FCADAD"/>
<stop offset="0.8855" stop-color="#FBDCD9"/>
</linearGradient>
<linearGradient id="paint82_linear_18934_3245" x1="72.148" y1="31.832" x2="75.7414" y2="46.531" gradientUnits="userSpaceOnUse">
<stop offset="0.1011" stop-color="#FF8338"/>
<stop offset="0.8855" stop-color="#FF4729"/>
</linearGradient>
<linearGradient id="paint83_linear_18934_3245" x1="112.626" y1="44.5334" x2="81.7529" y2="20.274" gradientUnits="userSpaceOnUse">
<stop offset="0.1023" stop-color="white"/>
<stop offset="0.8855" stop-color="#E3EBFD"/>
</linearGradient>
<linearGradient id="paint84_linear_18934_3245" x1="89.0807" y1="39.5595" x2="87.825" y2="33.4709" gradientUnits="userSpaceOnUse">
<stop offset="0.1023" stop-color="white"/>
<stop offset="0.8855" stop-color="#D8E0FD"/>
</linearGradient>
<linearGradient id="paint85_linear_18934_3245" x1="88.5533" y1="67.2177" x2="80.745" y2="49.7052" gradientUnits="userSpaceOnUse">
<stop offset="0.1023" stop-color="white"/>
<stop offset="0.8855" stop-color="#E3EBFD"/>
</linearGradient>
<linearGradient id="paint86_linear_18934_3245" x1="86.8678" y1="6.40204" x2="92.7185" y2="16.4433" gradientUnits="userSpaceOnUse">
<stop offset="0.1023" stop-color="#FCADAD"/>
<stop offset="0.8855" stop-color="#FBDCD9"/>
</linearGradient>
<linearGradient id="paint87_linear_18934_3245" x1="241.924" y1="-138.256" x2="241.927" y2="-138.256" gradientUnits="userSpaceOnUse">
<stop offset="0.0083" stop-color="#00CAFE"/>
<stop offset="1" stop-color="#0088FA"/>
</linearGradient>
<linearGradient id="paint88_linear_18934_3245" x1="-127.863" y1="54.0974" x2="-127.87" y2="54.0964" gradientUnits="userSpaceOnUse">
<stop offset="0.0083" stop-color="#00CAFE"/>
<stop offset="1" stop-color="#0088FA"/>
</linearGradient>
<linearGradient id="paint89_linear_18934_3245" x1="-21.1046" y1="-158.489" x2="-21.0979" y2="-158.492" gradientUnits="userSpaceOnUse">
<stop offset="0.0083" stop-color="#00CAFE"/>
<stop offset="1" stop-color="#0088FA"/>
</linearGradient>
<linearGradient id="paint90_linear_18934_3245" x1="73.6008" y1="253.469" x2="73.5921" y2="253.469" gradientUnits="userSpaceOnUse">
<stop offset="0.0083" stop-color="#00CAFE"/>
<stop offset="1" stop-color="#0088FA"/>
</linearGradient>
<linearGradient id="paint91_linear_18934_3245" x1="-124.042" y1="-17.9601" x2="-124.046" y2="-17.9611" gradientUnits="userSpaceOnUse">
<stop offset="0.0083" stop-color="#00CAFE"/>
<stop offset="1" stop-color="#0088FA"/>
</linearGradient>
<linearGradient id="paint92_linear_18934_3245" x1="101.894" y1="-189.932" x2="101.898" y2="-189.933" gradientUnits="userSpaceOnUse">
<stop offset="0.0083" stop-color="#00CAFE"/>
<stop offset="1" stop-color="#0088FA"/>
</linearGradient>
<linearGradient id="paint93_linear_18934_3245" x1="320.558" y1="-22.2506" x2="320.562" y2="-22.2502" gradientUnits="userSpaceOnUse">
<stop offset="0.0083" stop-color="#00CAFE"/>
<stop offset="1" stop-color="#0088FA"/>
</linearGradient>
<linearGradient id="paint94_linear_18934_3245" x1="-41.1737" y1="204.168" x2="-41.1754" y2="204.167" gradientUnits="userSpaceOnUse">
<stop offset="0.0083" stop-color="#00CAFE"/>
<stop offset="1" stop-color="#0088FA"/>
</linearGradient>
<linearGradient id="paint95_linear_18934_3245" x1="158.074" y1="249.9" x2="158.07" y2="249.901" gradientUnits="userSpaceOnUse">
<stop offset="0.0083" stop-color="#00CAFE"/>
<stop offset="1" stop-color="#0088FA"/>
</linearGradient>
<linearGradient id="paint96_linear_18934_3245" x1="298.564" y1="148.573" x2="298.57" y2="148.579" gradientUnits="userSpaceOnUse">
<stop offset="0.0083" stop-color="#00CAFE"/>
<stop offset="1" stop-color="#0088FA"/>
</linearGradient>
<linearGradient id="paint97_linear_18934_3245" x1="103.352" y1="30.8434" x2="102.331" y2="30.7537" gradientUnits="userSpaceOnUse">
<stop offset="0.0083" stop-color="#00CAFE"/>
<stop offset="1" stop-color="#0088FA"/>
</linearGradient>
<linearGradient id="paint98_linear_18934_3245" x1="-42.0864" y1="204.866" x2="-42.1526" y2="204.866" gradientUnits="userSpaceOnUse">
<stop offset="0.0083" stop-color="#00CAFE"/>
<stop offset="1" stop-color="#0088FA"/>
</linearGradient>
<linearGradient id="paint99_linear_18934_3245" x1="-162.78" y1="204.807" x2="-155.749" y2="207.893" gradientUnits="userSpaceOnUse">
<stop offset="0.0083" stop-color="#00CAFE"/>
<stop offset="1" stop-color="#0088FA"/>
</linearGradient>
<linearGradient id="paint100_linear_18934_3245" x1="196.251" y1="-129.683" x2="196.789" y2="-129.85" gradientUnits="userSpaceOnUse">
<stop offset="0.0083" stop-color="#00CAFE"/>
<stop offset="1" stop-color="#0088FA"/>
</linearGradient>
<linearGradient id="paint101_linear_18934_3245" x1="190.953" y1="-127.072" x2="191.491" y2="-127.239" gradientUnits="userSpaceOnUse">
<stop offset="0.0083" stop-color="#00CAFE"/>
<stop offset="1" stop-color="#0088FA"/>
</linearGradient>
<linearGradient id="paint102_linear_18934_3245" x1="191.431" y1="-130.856" x2="191.969" y2="-131.023" gradientUnits="userSpaceOnUse">
<stop offset="0.0083" stop-color="#00CAFE"/>
<stop offset="1" stop-color="#0088FA"/>
</linearGradient>
<linearGradient id="paint103_linear_18934_3245" x1="101.809" y1="32.4278" x2="102.331" y2="32.4278" gradientUnits="userSpaceOnUse">
<stop offset="0.0083" stop-color="#00CAFE"/>
<stop offset="1" stop-color="#0088FA"/>
</linearGradient>
<linearGradient id="paint104_linear_18934_3245" x1="96.8665" y1="32.2592" x2="97.3883" y2="32.2592" gradientUnits="userSpaceOnUse">
<stop offset="0.0083" stop-color="#00CAFE"/>
<stop offset="1" stop-color="#0088FA"/>
</linearGradient>
<linearGradient id="paint105_linear_18934_3245" x1="102.82" y1="27.3098" x2="103.341" y2="27.3098" gradientUnits="userSpaceOnUse">
<stop offset="0.0083" stop-color="#00CAFE"/>
<stop offset="1" stop-color="#0088FA"/>
</linearGradient>
<linearGradient id="paint106_linear_18934_3245" x1="95.7959" y1="27.7594" x2="96.3178" y2="27.7594" gradientUnits="userSpaceOnUse">
<stop offset="0.0083" stop-color="#00CAFE"/>
<stop offset="1" stop-color="#0088FA"/>
</linearGradient>
<linearGradient id="paint107_linear_18934_3245" x1="99.1875" y1="33.8763" x2="100.264" y2="33.8763" gradientUnits="userSpaceOnUse">
<stop offset="0.0083" stop-color="#00CAFE"/>
<stop offset="1" stop-color="#0088FA"/>
</linearGradient>
<linearGradient id="paint108_linear_18934_3245" x1="95.051" y1="30.9749" x2="96.127" y2="30.9749" gradientUnits="userSpaceOnUse">
<stop offset="0.0083" stop-color="#00CAFE"/>
<stop offset="1" stop-color="#0088FA"/>
</linearGradient>
<linearGradient id="paint109_linear_18934_3245" x1="96.373" y1="26.2666" x2="97.6443" y2="26.2666" gradientUnits="userSpaceOnUse">
<stop offset="0.0083" stop-color="#00CAFE"/>
<stop offset="1" stop-color="#0088FA"/>
</linearGradient>
<linearGradient id="paint110_linear_18934_3245" x1="101.244" y1="25.9657" x2="102.516" y2="25.9657" gradientUnits="userSpaceOnUse">
<stop offset="0.0083" stop-color="#00CAFE"/>
<stop offset="1" stop-color="#0088FA"/>
</linearGradient>
</defs>
</svg>
