<svg width="38" height="38" viewBox="0 0 38 38" fill="none" xmlns="http://www.w3.org/2000/svg">
<path d="M0.659912 23.9241C0.659912 28.9999 5.08568 34.208 12.6764 35.0638C10.4217 32.311 9.19355 28.8745 9.19837 25.3317C9.19837 22.798 9.81314 20.4051 10.9061 18.2937H4.92914C3.79687 18.2937 2.71098 18.7386 1.91034 19.5305C1.1097 20.3225 0.659912 21.3966 0.659912 22.5165V23.9241ZM12.9752 15.2449C15.3855 12.4686 18.712 10.6265 22.3647 10.0452C22.8307 8.56621 22.8374 6.9829 22.3839 5.50006C21.9303 4.01723 21.0375 2.70308 19.8207 1.72757C18.604 0.752063 17.1194 0.160063 15.5588 0.0281299C13.9982 -0.103803 12.4336 0.230401 11.0671 0.98752C9.70065 1.74464 8.59526 2.88985 7.89391 4.27505C7.19255 5.66025 6.92749 7.22172 7.13299 8.75753C7.33849 10.2933 8.00511 11.7328 9.04663 12.8899C10.0882 14.0469 11.4567 14.8683 12.9752 15.2477M37.6599 25.3317C37.6599 26.9953 37.3286 28.6426 36.685 30.1796C36.0413 31.7166 35.0979 33.1132 33.9086 34.2895C32.7193 35.4659 31.3074 36.399 29.7535 37.0357C28.1996 37.6723 26.5341 38 24.8522 38C23.1703 38 21.5048 37.6723 19.9509 37.0357C18.397 36.399 16.9851 35.4659 15.7958 34.2895C14.6065 33.1132 13.6631 31.7166 13.0195 30.1796C12.3758 28.6426 12.0445 26.9953 12.0445 25.3317C12.0445 21.9718 13.3939 18.7496 15.7958 16.3738C18.1977 13.9981 21.4554 12.6634 24.8522 12.6634C28.249 12.6634 31.5067 13.9981 33.9086 16.3738C36.3105 18.7496 37.6599 21.9718 37.6599 25.3317ZM24.8522 18.2937C24.4748 18.2937 24.1128 18.442 23.846 18.706C23.5791 18.97 23.4291 19.328 23.4291 19.7013V25.3317C23.4291 25.705 23.5791 26.063 23.846 26.327C24.1128 26.591 24.4748 26.7393 24.8522 26.7393H29.1214C29.4989 26.7393 29.8608 26.591 30.1277 26.327C30.3946 26.063 30.5445 25.705 30.5445 25.3317C30.5445 24.9584 30.3946 24.6003 30.1277 24.3364C29.8608 24.0724 29.4989 23.9241 29.1214 23.9241H26.2753V19.7013C26.2753 19.328 26.1254 18.97 25.8585 18.706C25.5916 18.442 25.2296 18.2937 24.8522 18.2937Z" fill="url(#paint0_linear_18934_10809)"/>
<defs>
<linearGradient id="paint0_linear_18934_10809" x1="19.1599" y1="38" x2="19.1599" y2="1.41561e-07" gradientUnits="userSpaceOnUse">
<stop stop-color="#46BEE8"/>
<stop offset="1" stop-color="#24D89D"/>
</linearGradient>
</defs>
</svg>
